<svg width="407" height="390" viewBox="0 0 407 390" fill="none" xmlns="http://www.w3.org/2000/svg">
<g opacity="0.2" clip-path="url(#clip0_11645_12221)">
<path d="M279.577 333.477L281.105 332.204V332.459L276.013 335.005L277.031 334.496L279.577 333.477Z" fill="#B2B1A8"/>
<path d="M5.62512 191.415H5.87972V191.67H5.62512V191.415Z" fill="#EFE7F3"/>
<path d="M49.1619 117.324L55.7815 109.432L57.8184 111.723L49.1619 120.125V117.324Z" fill="#9E86A4"/>
<path d="M307.584 63.8486H307.838V64.1032H307.584V63.8486Z" fill="#D44728"/>
<path d="M135.472 53.6748H135.727V53.9294H135.472V53.6748Z" fill="#CAD6E8"/>
<path d="M253.607 28.7178H253.862V28.9724H253.607V28.7178Z" fill="#B2B1A8"/>
<path d="M143.873 43.9883L219.236 -2.09473L225.855 3.50653V4.27034L218.981 -1.07632L180.027 33.8042L179.263 34.0588L144.128 57.4823L143.873 43.9883Z" fill="#CAD6E8"/>
<path d="M180.028 33.8151L218.982 -1.06543L225.856 4.28123L239.605 17.7752L246.988 25.4132L224.074 24.6494L205.234 22.8672H195.559L205.997 25.4132L265.065 39.671L265.574 40.1802L198.614 35.5973L180.028 33.8151Z" fill="#886AB3"/>
<path d="M225.856 4.26967V3.50586L240.877 17.2544L239.604 17.7636L225.856 4.26967Z" fill="#EFE7F3"/>
<path d="M239.604 17.7709L240.877 17.2617L254.371 29.4826H254.117L253.862 28.9734L253.607 28.7188L251.571 27.955L246.988 25.409L239.604 17.7709Z" fill="#CAD6E8"/>
<path d="M205.997 25.4083L195.558 22.8623H205.233L205.997 25.4083Z" fill="#30223D"/>
<path d="M205.996 25.4083L205.233 22.8623L224.073 24.6445L252.589 29.7366L254.88 30.755L266.846 38.1385L265.064 39.6661L205.996 25.4083Z" fill="#020101"/>
<path d="M224.074 24.6406L246.989 25.4044L251.571 27.9505L252.59 29.7327L224.074 24.6406Z" fill="#231DF0"/>
<path d="M252.59 29.7373L251.572 27.9551L253.608 28.7189L253.863 28.9735L254.118 29.4827L254.881 30.7557L252.59 29.7373Z" fill="#30223D"/>
<path d="M254.88 30.7525L254.117 29.4795H254.371L270.92 40.4274L269.902 40.1728L266.847 38.136L254.88 30.7525Z" fill="#B2B1A8"/>
<path d="M144.129 57.4889L179.264 34.0654L171.117 66.4L166.025 78.8755L165.007 78.1117L144.129 57.4889Z" fill="#EFE7F3"/>
<path d="M179.264 34.0651L180.028 33.8105L198.614 35.5928L257.172 53.9242L271.176 48.3229L272.449 41.9578V41.194L301.473 60.0346V60.2892L282.633 47.8137L301.219 67.1635L242.151 68.6911L250.044 63.5991L250.298 63.3444L249.789 61.5622L189.957 74.8016L178.246 77.3476L171.117 66.3997L179.264 34.0651Z" fill="#B2B1A8"/>
<path d="M271.176 48.319L257.173 53.9203L198.614 35.5889L265.575 40.1717L269.394 40.9355L271.43 42.7177L271.176 48.319Z" fill="#B399C7"/>
<path d="M265.065 39.6692L266.847 38.1416L269.902 40.1784L269.393 40.9422L265.574 40.1784L265.065 39.6692Z" fill="#30223D"/>
<path d="M269.392 40.9376L269.902 40.1738L270.92 40.4284L272.448 41.1922V41.956L271.429 42.7199L269.392 40.9376Z" fill="#9E86A4"/>
<path d="M271.43 42.715L272.448 41.9512L271.175 48.3162L271.43 42.715Z" fill="#74657D"/>
<path d="M143.873 43.9971L144.128 57.491L165.005 78.1138V78.3684L144.128 59.0186L143.873 44.7609V44.2517V43.9971Z" fill="#74657D"/>
<path d="M143.875 44.7588L144.129 59.0165L165.007 78.3663L117.141 57.4889L117.396 46.2864L137.51 55.1975L143.875 44.7588Z" fill="#020101"/>
<path d="M135.727 53.9259L143.875 44.251V44.7602L137.509 55.1989L117.396 46.2878L117.141 57.4903V58.2541L98.3007 76.5855L91.681 77.6039L92.4448 65.8922L116.632 45.524L135.473 53.6713L135.727 53.9259Z" fill="#B2B1A8"/>
<path d="M301.219 67.1691L282.633 47.8193L301.474 60.2949L307.839 64.6231L316.75 70.9882L322.351 75.0618L322.606 75.3164L301.983 67.6783L301.219 67.1691Z" fill="#D44728"/>
<path d="M117.141 58.2492V57.4854L165.007 78.3628V78.1082L166.025 78.872L166.28 82.4364L123.252 106.878L122.997 104.587L120.451 86.2554L117.141 58.2492Z" fill="#9E86A4"/>
<path d="M98.2998 76.5775L117.14 58.2461L120.45 86.2524L98.2998 76.5775Z" fill="#EFE7F3"/>
<path d="M301.473 60.2927V60.0381L307.584 63.8571L307.838 64.1117V64.6209L301.473 60.2927Z" fill="#EFE7F3"/>
<path d="M189.957 74.8009L249.788 61.5615L250.298 63.3437L250.043 63.5983L242.15 68.6904L238.077 70.7272L235.021 70.9818L226.11 72.2548L218.472 73.2732L215.672 73.7824H214.653L211.853 74.0371L195.303 76.3285H195.049L191.484 76.8377H189.957V74.8009Z" fill="#020101"/>
<path d="M250.043 63.3398H250.297V63.5944H250.043V63.3398Z" fill="#30223D"/>
<path d="M166.025 78.8769L171.117 66.4014L178.246 77.3493H177.482L170.608 79.3861L179.264 78.3677L189.958 76.8401H191.485L195.05 76.3309H195.304L211.854 74.5487L214.654 73.7848H215.673L218.473 73.5302L226.111 72.5118L235.022 71.2388H237.823V72.2572L224.074 86.7696L191.995 119.104L181.81 137.181L176.464 170.788L158.387 175.117L157.878 172.061L159.915 157.295L174.172 159.841L165.007 99.7543L166.28 82.4413L166.025 78.8769Z" fill="#D6B2E4"/>
<path d="M242.151 68.6907L301.219 67.1631L301.983 67.6723L268.885 114.265L265.065 116.047L261.756 112.482L239.605 73.0189L237.823 72.2551V71.2367L238.078 70.7275L242.151 68.6907Z" fill="#B399C7"/>
<path d="M268.885 114.263L301.983 67.6709L322.606 75.309H323.115L332.026 98.987L371.999 144.052L373.272 145.07L373.781 146.088L374.035 146.598L375.308 155H374.799L371.744 145.07L325.916 131.576L322.351 130.303L321.842 129.539L337.627 110.19L295.363 112.226L292.308 111.972L294.854 108.917L301.983 105.861L315.731 96.6956L301.219 99.2416L297.909 100.769L294.345 102.551L269.139 114.263H268.885Z" fill="#9E86A4"/>
<path d="M235.021 70.986L238.076 70.7314L237.822 71.2407H235.021V70.986Z" fill="#74657D"/>
<path d="M226.111 72.2593L235.022 70.9863V71.2409L226.111 72.5139V72.2593Z" fill="#846098"/>
<path d="M322.35 75.06L316.749 70.9863L323.114 75.3146H322.605L322.35 75.06Z" fill="#EFE7F3"/>
<path d="M322.35 75.0498H322.605V75.3044H322.35V75.0498Z" fill="#9E86A4"/>
<path d="M218.473 73.2743L226.111 72.2559V72.5105L218.473 73.5289V73.2743Z" fill="#74657D"/>
<path d="M224.075 86.7682L237.823 72.2559L239.605 73.0197L240.624 104.59L241.897 165.186V166.459L240.878 167.477L210.581 126.232L209.308 126.486L206.762 113.501L224.075 86.7682Z" fill="#A836D5"/>
<path d="M239.604 73.0186L261.755 112.482L240.623 104.589L239.604 73.0186Z" fill="#EFE7F3"/>
<path d="M215.671 73.7817L218.472 73.2725V73.5271L215.671 73.7817Z" fill="#9E86A4"/>
<path d="M211.853 74.0349L214.654 73.7803L211.853 74.5441V74.0349Z" fill="#9E86A4"/>
<path d="M195.304 76.3256L211.853 74.0342V74.5434L195.304 76.3256Z" fill="#74657D"/>
<path d="M178.245 77.3419L189.957 74.7959V76.8327L179.264 78.3603L177.481 77.3419H178.245Z" fill="#30223D"/>
<path d="M91.6808 77.6053L98.3004 76.5869L120.451 86.2618L122.997 104.593L120.705 105.612L91.9354 82.952L75.1316 96.4459L64.1837 105.612L60.11 107.394L55.7818 109.431L49.1621 117.323H48.3983L91.6808 77.6053Z" fill="#CAD6E8"/>
<path d="M55.7822 109.423L60.1105 107.386L57.819 111.714L55.7822 109.423Z" fill="#B2B1A8"/>
<path d="M179.264 78.367L170.607 79.3855L177.481 77.3486L179.264 78.367Z" fill="#74657D"/>
<path d="M123.251 106.884L166.279 82.4424L165.006 99.7554L159.914 157.296L157.877 172.062L124.779 119.36L126.561 211.017L91.171 116.305L87.0973 156.023L81.4961 186.829L69.7844 137.691L69.2751 130.562L69.7844 128.271L90.6618 109.939L121.214 106.63L123.251 106.884Z" fill="#A867C4"/>
<path d="M75.132 96.4441L91.9357 82.9502L120.706 105.61L121.215 106.628L90.6627 109.938L75.132 96.4441Z" fill="#886AB3"/>
<path d="M191.994 119.108L224.074 86.7734L206.761 113.507L191.994 119.108Z" fill="#A867C4"/>
<path d="M301.219 99.2384L315.731 96.6924L301.983 105.858L299.182 103.057L299.946 101.53L301.219 99.2384Z" fill="#74657D"/>
<path d="M64.1838 105.604L75.1317 96.4385L90.6625 109.932L69.7851 128.264L64.1838 105.604Z" fill="#9E86A4"/>
<path d="M297.909 100.774L301.219 99.2461L299.946 101.538L297.909 100.774Z" fill="#30223D"/>
<path d="M159.915 157.294L165.007 99.7539L174.172 159.84L159.915 157.294Z" fill="#EFE7F3"/>
<path d="M294.345 102.551L297.909 100.769L299.946 101.532L299.182 103.06L298.164 104.078L294.345 102.551Z" fill="#020101"/>
<path d="M269.139 114.26L294.345 102.548L298.164 104.075L294.854 108.913L292.308 111.968H292.053L268.885 115.533L269.139 114.26Z" fill="#30223D"/>
<path d="M298.163 104.074L299.181 103.056L301.982 105.856L294.853 108.912L298.163 104.074Z" fill="#846098"/>
<path d="M120.706 105.611L122.997 104.593L123.252 106.884L121.215 106.63L120.706 105.611Z" fill="#D6B2E4"/>
<path d="M241.896 165.188L240.623 104.593L261.755 112.485L265.065 116.05L268.884 115.541L292.053 111.976L268.374 190.139L266.847 194.467L264.81 200.833L244.442 183.52L259.718 277.977H257.936L210.58 126.234L240.877 167.48L244.696 168.498L241.896 165.188Z" fill="#CF43EC"/>
<path d="M60.11 107.391L64.1837 105.608L69.7849 128.268L69.2757 130.559L48.3983 123.176V122.667L49.1621 120.121L57.8186 111.719L60.11 107.391Z" fill="#B399C7"/>
<path d="M295.362 112.23L337.626 110.193L321.841 129.543H319.804L318.531 129.289L295.362 112.23Z" fill="#B399C7"/>
<path d="M268.375 190.135L292.053 111.972H292.307L295.363 112.226L318.531 129.285L311.912 139.978L271.175 190.644L268.375 190.135Z" fill="#D070E8"/>
<path d="M191.993 119.096L206.76 113.495L209.306 126.48L210.325 158.56L202.177 162.633L194.539 218.901L191.484 214.827L181.809 137.173L191.993 119.096Z" fill="#CF43EC"/>
<path d="M265.065 116.053L268.884 114.271H269.138L268.884 115.544L265.065 116.053Z" fill="#74657D"/>
<path d="M87.0968 156.021L91.1704 116.303L126.56 211.015L129.615 225.018L140.054 278.485L111.539 282.049L123.25 228.328L121.468 221.963L113.575 230.619L96.5171 248.187L86.0784 183.772L87.0968 156.021Z" fill="#D6B2E4"/>
<path d="M48.3983 122.665V117.318H49.1621V120.119L48.3983 122.665Z" fill="#EFE7F3"/>
<path d="M126.562 211.02L124.779 119.363L157.878 172.066L158.387 175.121L155.841 268.051H155.586L129.617 225.023L126.562 211.02Z" fill="#A836D5"/>
<path d="M45.8517 125.72L48.3977 123.174V123.938L45.8517 126.229V125.72Z" fill="#B2B1A8"/>
<path d="M48.3979 123.938V123.174L69.2753 130.557L69.7845 137.686L58.8366 168.493H57.5635L37.7045 157.291L24.4652 162.128L37.7045 146.343L43.0512 139.468L47.3794 127.502L48.3979 123.938Z" fill="#886AB3"/>
<path d="M45.8524 126.227L48.3984 123.936L47.38 127.5L45.5978 126.736L45.8524 126.227Z" fill="#30223D"/>
<path d="M5.11548 166.463L45.8519 125.727V126.236L45.5973 126.745L26.5021 148.132L16.0634 159.589L7.4069 169.264L7.1523 171.3L6.38849 199.307L5.62468 191.669L5.87929 191.414L5.11548 187.85V166.463Z" fill="#CAD6E8"/>
<path d="M209.306 126.489L210.579 126.234L257.935 277.978L214.398 203.124L210.325 158.569L209.306 126.489Z" fill="#832CB8"/>
<path d="M45.5973 126.742L47.3795 127.506L43.0512 139.472L26.5021 148.129L45.5973 126.742Z" fill="#020101"/>
<path d="M311.912 139.977L318.531 129.283L319.804 129.538L321.841 131.829L348.574 173.075L336.608 176.639L311.912 139.977Z" fill="#CD94E6"/>
<path d="M321.842 131.829L319.805 129.537H321.842L322.351 130.301V131.829H321.842Z" fill="#74657D"/>
<path d="M322.35 131.825V130.298L325.915 131.571L324.642 132.844L322.35 131.825Z" fill="#30223D"/>
<path d="M324.643 132.855L325.916 131.582L371.744 145.076L374.799 155.005L376.327 166.717L324.643 132.855Z" fill="#020101"/>
<path d="M348.574 173.082L321.84 131.836H322.35L324.641 132.854L376.325 166.716L376.835 167.48L376.071 192.431L375.816 226.803L374.798 228.076L348.574 173.082Z" fill="#9E86A4"/>
<path d="M176.464 170.79L181.811 137.183L191.485 214.836L176.464 170.79Z" fill="#A836D5"/>
<path d="M58.8368 168.497L69.7847 137.69L81.4964 186.829L80.9872 195.994L58.8368 168.497Z" fill="#832CB8"/>
<path d="M26.5023 148.125L43.0515 139.469L37.7048 146.343L16.0636 159.582L26.5023 148.125Z" fill="#30223D"/>
<path d="M271.176 190.642L311.912 139.977L336.609 176.639L264.811 200.827L266.847 194.462L271.176 190.642Z" fill="#D6B2E4"/>
<path d="M16.0627 159.579L37.704 146.34L24.4646 162.125L7.40625 169.254L16.0627 159.579Z" fill="#74657D"/>
<path d="M375.307 154.996L374.034 146.594L403.059 186.312H402.805L383.964 172.309L377.853 167.726L375.307 154.996Z" fill="#CAD6E8"/>
<path d="M376.326 166.714L374.798 155.002H375.307L377.853 167.732L376.835 167.477L376.326 166.714Z" fill="#231DF0"/>
<path d="M81.4967 186.824L87.098 156.018L86.0796 183.769L83.5335 237.745L80.7329 216.868L80.9875 195.99L81.4967 186.824Z" fill="#74657D"/>
<path d="M24.4653 162.126L37.7047 157.288L35.9224 193.442L37.7047 205.408L32.6126 212.791L7.15234 171.291L7.40695 169.254L24.4653 162.126Z" fill="#B399C7"/>
<path d="M35.923 193.442L37.7052 157.288L57.5642 168.491L44.5795 192.423L35.923 193.442Z" fill="#D6B2E4"/>
<path d="M194.54 218.912L202.178 162.645L210.326 158.571L214.399 203.127L257.936 277.98H259.718L261.755 278.998V290.71L207.016 238.007L194.795 226.041L194.54 218.912Z" fill="#A836D5"/>
<path d="M241.897 165.188L244.697 168.498L241.897 166.461V165.188Z" fill="#CD94E6"/>
<path d="M240.877 167.476L241.896 166.458L244.696 168.495L240.877 167.476Z" fill="#D070E8"/>
<path d="M376.071 192.425L376.835 167.474L377.854 167.728L383.964 172.311L376.071 192.425Z" fill="#846098"/>
<path d="M44.5791 192.423L57.5638 168.49H58.8369L80.9873 195.987L80.7327 216.865L69.2756 250.472L35.4134 220.938L32.6128 214.319V212.791L37.7048 205.408L44.5791 192.423Z" fill="#A867C4"/>
<path d="M158.387 175.117L176.464 170.789L191.485 214.835L194.541 218.909L194.795 226.038L155.841 268.047L158.387 175.117Z" fill="#D070E8"/>
<path d="M6.38879 199.304L7.1526 171.298L32.6129 212.798V214.326L13.7723 203.378L7.1526 199.813L10.2078 204.651L9.44403 204.396L6.38879 199.304Z" fill="#886AB3"/>
<path d="M376.072 192.426L383.965 172.312L402.805 186.316L400.768 189.625L393.13 202.356L389.821 207.448L381.928 220.178L377.345 227.052L375.817 226.797L376.072 192.426Z" fill="#74657D"/>
<path d="M336.608 176.64L348.574 173.075L374.798 228.069L375.817 229.597L373.016 234.18L323.878 252.511L293.325 296.557L288.488 297.321L267.865 215.848L261.755 278.99L259.718 277.971L244.442 183.514L264.81 200.827L336.608 176.64Z" fill="#A867C4"/>
<path d="M83.5326 237.745L86.0786 183.77L96.5173 248.184L82.5142 263.715L83.5326 237.745Z" fill="#CAD6E8"/>
<path d="M400.768 189.632L402.805 186.322H403.06L401.023 190.141L400.768 189.632Z" fill="#EFE7F3"/>
<path d="M393.13 202.354L400.768 189.624L401.023 190.133L393.385 203.627L393.13 202.354Z" fill="#D6B2E4"/>
<path d="M266.848 194.46L268.375 190.132L271.176 190.641L266.848 194.46Z" fill="#CD94E6"/>
<path d="M35.923 193.45L44.5795 192.432L37.7052 205.416L35.923 193.45Z" fill="#CD94E6"/>
<path d="M10.2076 204.648L7.15234 199.811L13.772 203.375L43.3059 245.639L48.398 260.661L47.8888 261.679L10.4622 205.157L10.2076 204.648Z" fill="#020101"/>
<path d="M389.82 207.455L393.13 202.363L393.385 203.636L390.584 208.728L389.82 207.455Z" fill="#CD94E6"/>
<path d="M43.3066 245.644L13.7727 203.38L32.6133 214.328L35.4139 220.947L43.3066 245.644Z" fill="#30223D"/>
<path d="M10.207 205.159L9.44324 204.396L10.207 204.65V205.159Z" fill="#CAD6E8"/>
<path d="M10.2085 205.159V204.649L10.4631 205.159H10.2085Z" fill="#30223D"/>
<path d="M48.3989 262.952L10.2085 205.157H10.4631L47.8897 261.679L48.3989 262.952Z" fill="#B2B1A8"/>
<path d="M381.928 220.173L389.821 207.443L390.585 208.716L384.983 218.9L383.201 221.192L381.928 220.173Z" fill="#D070E8"/>
<path d="M261.754 278.993L267.865 215.852L288.488 297.324L268.119 292.742L261.754 291.214V290.705V278.993Z" fill="#B399C7"/>
<path d="M35.4133 220.941L69.2755 250.475L80.7326 216.867L83.5332 237.745L82.5148 263.714V264.478H81.751L70.2939 253.53L52.9809 260.659H48.3981L43.306 245.637L35.4133 220.941Z" fill="#886AB3"/>
<path d="M383.2 221.205L384.983 218.913L382.946 222.223L383.2 221.205Z" fill="#EFE7F3"/>
<path d="M377.345 227.057L381.928 220.183L383.201 221.201L382.946 222.219V222.474L376.581 233.677L375.562 235.968L367.161 250.48H365.633L373.016 234.186L375.817 229.603L377.345 227.057Z" fill="#CF43EC"/>
<path d="M113.576 230.616L121.468 221.96L123.251 228.325L113.576 230.616Z" fill="#CAD6E8"/>
<path d="M140.056 278.488L129.617 225.021L155.586 268.049L154.822 271.359H153.549L140.056 278.743V278.488Z" fill="#846098"/>
<path d="M155.841 268.048L194.795 226.038L207.016 238.004L196.068 251.498L194.795 303.692L175.191 312.858L192.249 370.907L154.568 352.066L142.092 342.137L154.822 271.357L155.586 268.048H155.841Z" fill="#D6B2E4"/>
<path d="M374.798 228.073L375.817 226.8L377.344 227.054L375.817 229.6L374.798 228.073Z" fill="#846098"/>
<path d="M113.576 230.615L123.251 228.323L111.539 282.044L110.266 282.299L82.5142 264.477V263.713L96.5173 248.182L113.576 230.615Z" fill="#EFE7F3"/>
<path d="M323.877 252.51L373.016 234.179L365.632 250.473L363.595 255.311L361.304 259.894L358.758 265.495L356.212 270.332L352.648 276.952L350.611 277.207H349.338L323.877 252.51Z" fill="#846098"/>
<path d="M367.16 250.482L375.562 235.97L366.396 252.264L367.16 250.482Z" fill="#EFE7F3"/>
<path d="M192.249 370.904L175.191 312.854L194.795 303.688L196.068 251.495L207.016 238.001L261.755 290.704V291.213V291.977L195.813 372.686L192.249 370.904Z" fill="#CD94E6"/>
<path d="M363.596 255.311L365.633 250.474H367.161L366.397 252.256L365.124 255.056L363.596 255.311Z" fill="#D070E8"/>
<path d="M293.326 296.566L323.878 252.52L349.338 277.216L345.01 278.998L293.326 296.566Z" fill="#9E86A4"/>
<path d="M52.9817 260.664L70.2947 253.535L81.7518 264.483L52.9817 264.228V260.664Z" fill="#74657D"/>
<path d="M363.596 255.313L365.124 255.059L362.323 260.151L361.305 259.896L363.596 255.313Z" fill="#CD94E6"/>
<path d="M358.759 265.5L361.305 259.898L362.323 260.153L359.268 265.5H358.759Z" fill="#D6B2E4"/>
<path d="M47.8887 261.679L48.3979 260.66H52.9807V264.225L48.6525 263.461L48.3979 262.952L47.8887 261.679Z" fill="#846098"/>
<path d="M68.7659 289.691L48.6523 263.467L52.9806 264.231L81.7507 264.485H82.5145L110.266 282.307L94.7354 299.366L89.898 299.111L73.3488 285.108L66.4745 279.252L69.0206 289.691H68.7659Z" fill="#B2B1A8"/>
<path d="M356.212 270.336L358.758 265.499H359.267L356.212 270.591V270.336Z" fill="#EFE7F3"/>
<path d="M140.055 278.737L153.549 271.354L128.344 297.068L140.055 278.737Z" fill="#D44728"/>
<path d="M352.648 276.958L356.213 270.338V270.592L352.393 280.777H351.884L352.648 276.958Z" fill="#B399C7"/>
<path d="M140.055 278.737L128.343 297.068L153.549 271.354H154.822L142.092 342.133L140.055 340.096L139.8 339.078L120.705 302.415L111.03 300.378L98.3 301.397L97.2816 300.633L94.7356 299.36L110.266 282.301L111.539 282.047L140.055 278.482V278.737Z" fill="#9E86A4"/>
<path d="M350.611 277.21L352.648 276.955L351.884 280.774L350.865 287.648L350.102 290.194L346.792 306.998L345.264 315.4L334.571 316.164L303.509 316.673L283.65 316.928L283.141 316.673L346.283 280.01L350.611 277.21Z" fill="#74657D"/>
<path d="M345.01 278.991L349.338 277.209H350.611L346.283 280.01L345.01 278.991Z" fill="#30223D"/>
<path d="M293.326 296.555L345.01 278.987L346.283 280.006L283.142 316.668H282.124L262.774 292.227L268.12 292.736L288.489 297.319L293.326 296.555Z" fill="#020101"/>
<path d="M69.0208 289.68L66.4747 279.241L73.349 285.097L69.2754 289.935L69.0208 289.68Z" fill="#30223D"/>
<path d="M350.867 287.653L351.885 280.778H352.394L351.121 287.653H350.867Z" fill="#D6B2E4"/>
<path d="M69.2751 289.947L73.3488 285.109L89.898 299.113L97.2814 300.64L98.2998 301.404L104.41 310.57H102.628L79.4593 312.352L78.1862 312.606L74.6218 311.588L73.6034 308.278L69.7844 292.493L69.2751 289.947Z" fill="#020101"/>
<path d="M350.101 290.195L350.865 287.649H351.12L350.356 291.214L350.101 290.195Z" fill="#CAD6E8"/>
<path d="M69.2748 292.482L68.7656 289.682H69.0202L69.2748 289.936L69.784 292.482H69.2748Z" fill="#9E86A4"/>
<path d="M346.793 306.993L350.103 290.189L350.357 291.208L347.302 306.993H346.793Z" fill="#B2B1A8"/>
<path d="M261.754 291.983V291.219L268.119 292.746L262.773 292.237L261.754 291.983Z" fill="#846098"/>
<path d="M195.813 372.689L261.756 291.98L262.774 292.235L282.124 316.677L281.869 317.441L280.596 318.205L273.213 322.787L195.813 372.689Z" fill="#886AB3"/>
<path d="M73.0942 308.274L69.2751 292.488H69.7844L73.6034 308.274H73.3488H73.0942Z" fill="#B2B1A8"/>
<path d="M97.2817 300.633L89.8982 299.105L94.7356 299.36L97.2817 300.633Z" fill="#74657D"/>
<path d="M98.2998 301.393L111.03 300.375L107.465 310.559H104.41L98.2998 301.393Z" fill="#846098"/>
<path d="M107.467 310.559L111.031 300.375L120.706 302.412L111.031 313.614L107.467 310.559Z" fill="#886AB3"/>
<path d="M111.031 313.623L120.706 302.421L139.801 339.084L129.108 329.663L127.071 328.136L118.414 320.243L116.632 318.715L111.031 313.623Z" fill="#832CB8"/>
<path d="M345.266 315.394L346.793 306.992H347.302L345.52 315.394H345.266Z" fill="#CAD6E8"/>
<path d="M73.8589 310.058L73.0951 308.275H73.3497L73.8589 310.058Z" fill="#EFE7F3"/>
<path d="M73.8582 310.058L73.349 308.275H73.6036L74.622 311.585H73.8582V310.058Z" fill="#9E86A4"/>
<path d="M79.4594 312.344L102.628 310.562H104.41H107.466L111.03 313.617L116.631 318.709V319.218L78.1864 313.362V312.598L79.4594 312.344Z" fill="#CAD6E8"/>
<path d="M78.1869 313.359L73.8586 311.577H74.6225L78.1869 312.596V313.359Z" fill="#B2B1A8"/>
<path d="M334.572 316.164L345.265 315.4H345.519L334.572 316.419V316.164Z" fill="#D6B2E4"/>
<path d="M303.51 316.671L334.572 316.162V316.417L303.51 318.963V316.671Z" fill="#D070E8"/>
<path d="M281.868 317.434L282.123 316.67H283.141L283.651 316.925L287.47 324.308L287.215 324.563V325.326H286.96L281.105 332.201L279.577 333.474L281.868 317.434Z" fill="#231DF0"/>
<path d="M287.215 324.316H287.469V324.571H287.215V324.316Z" fill="#CF43EC"/>
<path d="M283.651 316.925L303.51 316.67V318.961L288.234 324.308H287.47L283.651 316.925Z" fill="#CF43EC"/>
<path d="M280.595 318.195L281.868 317.432L279.577 333.472L277.031 334.49L274.485 335.254L265.828 337.036L277.795 321.76L280.595 318.195Z" fill="#020101"/>
<path d="M273.212 322.791L280.596 318.208L277.795 321.772L274.74 323.3L273.212 322.791Z" fill="#30223D"/>
<path d="M116.632 319.225V318.716L118.414 320.243H117.65L116.632 319.225Z" fill="#B399C7"/>
<path d="M127.07 328.641L117.649 320.239H118.413L127.07 328.132V328.641Z" fill="#D6B2E4"/>
<path d="M274.74 323.291L277.795 321.764L265.829 337.04L259.973 341.877L248.77 350.788L245.715 353.334L244.188 354.353L231.457 364.792H230.948L220.51 372.939L212.617 379.049H212.362L211.853 378.795L274.74 323.291Z" fill="#231DF0"/>
<path d="M195.813 372.681L273.213 322.779L274.74 323.289L211.853 378.792L209.307 381.338L209.053 381.592L205.488 384.393L199.887 387.194L195.813 372.681Z" fill="#020101"/>
<path d="M209.052 381.344H209.307V381.598H209.052V381.344Z" fill="#886AB3"/>
<path d="M287.215 324.571L287.469 324.316H288.233L287.215 325.335V324.571Z" fill="#EFE7F3"/>
<path d="M281.104 332.207L286.96 325.333L281.104 332.462V332.207Z" fill="#EFE7F3"/>
<path d="M127.07 328.636V328.127L129.107 329.655L128.598 329.909L127.07 328.636Z" fill="#B399C7"/>
<path d="M128.598 329.918L129.107 329.663L139.8 339.083L140.055 340.102L128.598 329.918Z" fill="#D6B2E4"/>
<path d="M274.485 335.253L277.031 334.489L276.013 334.998L274.485 335.253Z" fill="#74657D"/>
<path d="M274.486 335.265L276.013 335.011L260.228 341.885H259.973L265.829 337.048L274.486 335.265Z" fill="#B2B1A8"/>
<path d="M248.771 350.793L259.974 341.882H260.228L248.771 350.793Z" fill="#EFE7F3"/>
<path d="M154.568 352.068L192.249 370.909L195.813 372.691L199.887 387.204L190.976 381.093L176.973 369.891L172.39 366.326L168.062 363.016L159.15 355.887L154.568 352.068Z" fill="#CF43EC"/>
<path d="M172.391 366.835L168.062 363.016L172.391 366.325V366.835Z" fill="#D6B2E4"/>
<path d="M220.51 372.941L230.949 364.794L220.51 373.45V372.941Z" fill="#EFE7F3"/>
<path d="M172.39 366.827V366.317L176.973 369.882L172.39 366.827Z" fill="#CD94E6"/>
<path d="M190.975 381.344L176.972 369.887L190.975 381.089V381.344Z" fill="#D6B2E4"/>
<path d="M212.617 379.045L220.509 372.935V373.444L212.871 379.3L212.617 379.045Z" fill="#D6B2E4"/>
<path d="M209.306 381.336L211.852 378.79L212.362 379.045L210.07 381.336H209.306Z" fill="#886AB3"/>
<path d="M210.07 381.348L212.361 379.057H212.616L212.871 379.311L210.07 381.348Z" fill="#CAD6E8"/>
<path d="M190.976 381.344V381.09L199.887 387.2L205.488 384.4V385.163L190.976 381.344Z" fill="#CD94E6"/>
<path d="M209.053 381.598L209.307 381.344H210.071L205.488 385.163V384.399L209.053 381.598Z" fill="#CAD6E8"/>
</g>
<defs>
<clipPath id="clip0_11645_12221">
<rect width="406.091" height="389.542" fill="white" transform="translate(0.78772 0.458008)"/>
</clipPath>
</defs>
</svg>
