<svg width="171" height="36" viewBox="0 0 171 36" fill="none" xmlns="http://www.w3.org/2000/svg">
<g clip-path="url(#clip0_11531_132)">
<path d="M23.3417 29.5747L23.4696 29.4681V29.4894L23.0433 29.7026L23.1285 29.66L23.3417 29.5747Z" fill="#B2B1A8"/>
<path d="M0.40509 17.6801H0.42578V17.7008H0.40509V17.6801Z" fill="#EFE7F3"/>
<path d="M4.05023 11.4769L4.60446 10.8161L4.775 11.0079L4.05023 11.7114V11.4769Z" fill="#9E86A4"/>
<path d="M25.6866 7.0004H25.7073V7.02109H25.6866V7.0004Z" fill="#D44728"/>
<path d="M11.2765 6.14774H11.2972V6.16843H11.2765V6.14774Z" fill="#CAD6E8"/>
<path d="M21.1674 4.05872H21.1881V4.07941H21.1674V4.05872Z" fill="#B2B1A8"/>
<path d="M11.98 5.33774L18.2897 1.47943L18.8439 1.9484V2.01235L18.2684 1.5647L15.0069 4.48507L14.943 4.50639L12.0013 6.46752L11.98 5.33774Z" fill="#CAD6E8"/>
<path d="M15.007 4.48507L18.2684 1.5647L18.8439 2.01235L19.995 3.14213L20.6132 3.78163L18.6947 3.71768L17.1173 3.56846H16.3073L17.1813 3.78163L22.1267 4.97536L22.1693 5.01799L16.5631 4.63429L15.007 4.48507Z" fill="#886AB3"/>
<path d="M18.8439 2.01234V1.94839L20.1016 3.09949L19.995 3.14213L18.8439 2.01234Z" fill="#EFE7F3"/>
<path d="M19.995 3.14212L20.1016 3.09949L21.2314 4.12268H21.21L21.1887 4.08005L21.1674 4.05873L20.9969 3.99479L20.6132 3.78162L19.995 3.14212Z" fill="#CAD6E8"/>
<path d="M17.1812 3.78165L16.3073 3.56848H17.1173L17.1812 3.78165Z" fill="#30223D"/>
<path d="M17.1813 3.78165L17.1173 3.56848L18.6947 3.7177L21.0822 4.14403L21.274 4.2293L22.2759 4.84748L22.1267 4.97538L17.1813 3.78165Z" fill="#020101"/>
<path d="M18.6947 3.71768L20.6132 3.78163L20.9969 3.9948L21.0822 4.14401L18.6947 3.71768Z" fill="#231DF0"/>
<path d="M21.0822 4.14397L20.9969 3.99475L21.1674 4.0587L21.1887 4.08002L21.2101 4.12265L21.274 4.22923L21.0822 4.14397Z" fill="#30223D"/>
<path d="M21.274 4.22926L21.2101 4.12268H21.2314L22.617 5.0393L22.5317 5.01798L22.2759 4.84745L21.274 4.22926Z" fill="#B2B1A8"/>
<path d="M12.0013 6.46754L14.943 4.50641L14.2608 7.21362L13.8345 8.25813L13.7492 8.19418L12.0013 6.46754Z" fill="#EFE7F3"/>
<path d="M14.943 4.50639L15.0069 4.48508L16.5631 4.63429L21.4659 6.16909L22.6383 5.70012L22.7449 5.16721V5.10326L25.175 6.68069V6.702L23.5975 5.65749L25.1537 7.27755L20.2082 7.40545L20.869 6.97912L20.8903 6.9578L20.8477 6.80859L15.8383 7.91705L14.8577 8.13022L14.2609 7.2136L14.943 4.50639Z" fill="#B2B1A8"/>
<path d="M22.6382 5.70011L21.4658 6.16907L16.563 4.63428L22.1693 5.01798L22.489 5.08193L22.6595 5.23114L22.6382 5.70011Z" fill="#B399C7"/>
<path d="M22.1266 4.97531L22.2759 4.84741L22.5317 5.01795L22.489 5.08189L22.1693 5.01795L22.1266 4.97531Z" fill="#30223D"/>
<path d="M22.4891 5.08196L22.5317 5.01801L22.617 5.03932L22.7449 5.10327V5.16722L22.6596 5.23117L22.4891 5.08196Z" fill="#9E86A4"/>
<path d="M22.6596 5.23116L22.7449 5.16721L22.6383 5.70012L22.6596 5.23116Z" fill="#74657D"/>
<path d="M11.98 5.33774L12.0013 6.46752L13.7493 8.19416V8.21548L12.0013 6.59542L11.98 5.40169V5.35905V5.33774Z" fill="#74657D"/>
<path d="M11.9799 5.40167L12.0013 6.5954L13.7492 8.21547L9.7417 6.4675L9.76302 5.52957L11.447 6.27565L11.9799 5.40167Z" fill="#020101"/>
<path d="M11.2978 6.1691L11.98 5.35907V5.4017L11.447 6.27568L9.76302 5.5296L9.74171 6.46753V6.53148L8.16428 8.06628L7.61005 8.15155L7.674 7.17098L9.69907 5.46565L11.2765 6.14778L11.2978 6.1691Z" fill="#B2B1A8"/>
<path d="M25.1536 7.27753L23.5975 5.65747L25.175 6.70198L25.7079 7.06437L26.454 7.59728L26.9229 7.93835L26.9442 7.95967L25.2176 7.32017L25.1536 7.27753Z" fill="#D44728"/>
<path d="M9.7417 6.53145V6.4675L13.7492 8.21546V8.19414L13.8345 8.25809L13.8558 8.55653L10.2533 10.6029L10.232 10.4111L10.0188 8.87628L9.7417 6.53145Z" fill="#9E86A4"/>
<path d="M8.16437 8.06623L9.7418 6.53143L10.0189 8.87626L8.16437 8.06623Z" fill="#EFE7F3"/>
<path d="M25.175 6.70195V6.68063L25.6866 7.00038L25.7079 7.0217V7.06433L25.175 6.70195Z" fill="#EFE7F3"/>
<path d="M15.8383 7.91706L20.8477 6.80859L20.8903 6.95781L20.869 6.97913L20.2082 7.40546L19.8671 7.57599L19.6113 7.59731L18.8652 7.70389L18.2257 7.78916L17.9912 7.83179H17.906L17.6715 7.85311L16.2859 8.04496H16.2646L15.9662 8.08759H15.8383V7.91706Z" fill="#020101"/>
<path d="M20.869 6.95779H20.8897V6.97848H20.869V6.95779Z" fill="#30223D"/>
<path d="M13.8345 8.25811L14.2608 7.21359L14.8577 8.13021H14.7937L14.2182 8.30074L14.9429 8.21547L15.8382 8.08757H15.9661L16.2646 8.04494H16.2859L17.6715 7.89572L17.9059 7.83177H17.9912L18.2257 7.81046L18.8652 7.72519L19.6113 7.61861H19.8458V7.70387L18.6947 8.91892L16.0088 11.6261L15.1561 13.1396L14.7085 15.9534L13.195 16.3158L13.1523 16.06L13.3229 14.8236L14.5166 15.0368L13.7492 10.0061L13.8558 8.55654L13.8345 8.25811Z" fill="#D6B2E4"/>
<path d="M20.2082 7.40546L25.1537 7.27756L25.2176 7.32019L22.4465 11.2211L22.1267 11.3703L21.8496 11.0719L19.995 7.76784L19.8458 7.70389V7.61862L19.8671 7.57599L20.2082 7.40546Z" fill="#B399C7"/>
<path d="M22.4464 11.2211L25.2176 7.32016L26.9442 7.95966H26.9869L27.7329 9.9421L31.0796 13.7151L31.1862 13.8004L31.2289 13.8857L31.2502 13.9283L31.3568 14.6318H31.3141L31.0583 13.8004L27.2213 12.6706L26.9229 12.564L26.8803 12.5001L28.2019 10.88L24.6633 11.0506L24.4075 11.0293L24.6207 10.7735L25.2176 10.5177L26.3687 9.75025L25.1536 9.96342L24.8765 10.0913L24.5781 10.2405L22.4677 11.2211H22.4464Z" fill="#9E86A4"/>
<path d="M19.6113 7.59731L19.8671 7.57599L19.8458 7.61862H19.6113V7.59731Z" fill="#74657D"/>
<path d="M18.8652 7.7039L19.6113 7.59732V7.61864L18.8652 7.72522V7.7039Z" fill="#846098"/>
<path d="M26.9229 7.93839L26.454 7.59732L26.9869 7.9597H26.9443L26.9229 7.93839Z" fill="#EFE7F3"/>
<path d="M26.9229 7.93835H26.9436V7.95904H26.9229V7.93835Z" fill="#9E86A4"/>
<path d="M18.2258 7.78912L18.8653 7.70386V7.72517L18.2258 7.81044V7.78912Z" fill="#74657D"/>
<path d="M18.6947 8.9189L19.8458 7.70386L19.995 7.76781L20.0803 10.4111L20.1869 15.4844V15.591L20.1016 15.6763L17.5649 12.223L17.4583 12.2443L17.2452 11.1571L18.6947 8.9189Z" fill="#A836D5"/>
<path d="M19.995 7.76782L21.8495 11.0719L20.0803 10.4111L19.995 7.76782Z" fill="#EFE7F3"/>
<path d="M17.9913 7.83176L18.2258 7.78912V7.81044L17.9913 7.83176Z" fill="#9E86A4"/>
<path d="M17.6715 7.8531L17.906 7.83179L17.6715 7.89574V7.8531Z" fill="#9E86A4"/>
<path d="M16.2859 8.04494L17.6715 7.85309V7.89572L16.2859 8.04494Z" fill="#74657D"/>
<path d="M14.8577 8.13019L15.8383 7.91702V8.08756L14.943 8.21546L14.7938 8.13019H14.8577Z" fill="#30223D"/>
<path d="M7.61009 8.15152L8.16432 8.06625L10.0189 8.87629L10.232 10.4111L10.0402 10.4963L7.63141 8.59917L6.22451 9.72895L5.3079 10.4963L4.96683 10.6456L4.60445 10.8161L4.05022 11.4769H3.98627L7.61009 8.15152Z" fill="#CAD6E8"/>
<path d="M4.60443 10.8161L4.96681 10.6455L4.77496 11.0079L4.60443 10.8161Z" fill="#B2B1A8"/>
<path d="M14.943 8.21548L14.2182 8.30075L14.7937 8.13022L14.943 8.21548Z" fill="#74657D"/>
<path d="M10.2533 10.6029L13.8558 8.55655L13.7492 10.0061L13.3229 14.8236L13.1524 16.06L10.3812 11.6475L10.5304 19.3214L7.56742 11.3917L7.22635 14.7171L6.75739 17.2964L5.77683 13.1823L5.73419 12.5854L5.77683 12.3935L7.52479 10.8587L10.0828 10.5816L10.2533 10.6029Z" fill="#A867C4"/>
<path d="M6.22449 9.72896L7.63138 8.59918L10.0402 10.4964L10.0828 10.5816L7.5248 10.8587L6.22449 9.72896Z" fill="#886AB3"/>
<path d="M16.0088 11.6262L18.6947 8.91895L17.2452 11.1572L16.0088 11.6262Z" fill="#A867C4"/>
<path d="M25.1536 9.96344L26.3687 9.75027L25.2176 10.5177L24.9831 10.2832L25.047 10.1553L25.1536 9.96344Z" fill="#74657D"/>
<path d="M5.30792 10.4963L6.22454 9.72894L7.52485 10.8587L5.77689 12.3935L5.30792 10.4963Z" fill="#9E86A4"/>
<path d="M24.8765 10.0914L25.1536 9.9635L25.047 10.1554L24.8765 10.0914Z" fill="#30223D"/>
<path d="M13.3229 14.8236L13.7493 10.006L14.5167 15.0368L13.3229 14.8236Z" fill="#EFE7F3"/>
<path d="M24.5781 10.2406L24.8765 10.0914L25.047 10.1553L24.9831 10.2832L24.8978 10.3685L24.5781 10.2406Z" fill="#020101"/>
<path d="M22.4677 11.2211L24.5781 10.2406L24.8978 10.3685L24.6207 10.7735L24.4075 11.0293H24.3862L22.4464 11.3277L22.4677 11.2211Z" fill="#30223D"/>
<path d="M24.8978 10.3684L24.9831 10.2831L25.2176 10.5176L24.6207 10.7734L24.8978 10.3684Z" fill="#846098"/>
<path d="M10.0402 10.4964L10.232 10.4111L10.2533 10.603L10.0828 10.5816L10.0402 10.4964Z" fill="#D6B2E4"/>
<path d="M20.1869 15.4845L20.0803 10.4111L21.8496 11.0719L22.1267 11.3703L22.4464 11.3277L24.3863 11.0293L22.4038 17.5735L22.2759 17.9359L22.1054 18.4688L20.4001 17.0193L21.679 24.9277H21.5298L17.5649 12.223L20.1016 15.6763L20.4214 15.7616L20.1869 15.4845Z" fill="#CF43EC"/>
<path d="M4.96683 10.6456L5.3079 10.4963L5.77686 12.3935L5.73423 12.5854L3.98627 11.9672V11.9246L4.05022 11.7114L4.77498 11.0079L4.96683 10.6456Z" fill="#B399C7"/>
<path d="M24.6633 11.0506L28.2019 10.8801L26.8803 12.5002H26.7097L26.6031 12.4788L24.6633 11.0506Z" fill="#B399C7"/>
<path d="M22.4038 17.5735L24.3863 11.0293H24.4076L24.6634 11.0506L26.6032 12.4788L26.0489 13.3741L22.6383 17.6161L22.4038 17.5735Z" fill="#D070E8"/>
<path d="M16.0089 11.6262L17.2452 11.1572L17.4584 12.2443L17.5436 14.9302L16.8615 15.2713L16.222 19.9823L15.9662 19.6412L15.1562 13.1396L16.0089 11.6262Z" fill="#CF43EC"/>
<path d="M22.1266 11.3703L22.4464 11.2211H22.4677L22.4464 11.3277L22.1266 11.3703Z" fill="#74657D"/>
<path d="M7.22638 14.717L7.56745 11.3916L10.5305 19.3214L10.7863 20.4938L11.6602 24.9703L9.27277 25.2687L10.2533 20.7709L10.1041 20.238L9.44331 20.9628L8.01509 22.4336L7.14111 17.0405L7.22638 14.717Z" fill="#D6B2E4"/>
<path d="M3.98627 11.9246V11.4769H4.05022V11.7114L3.98627 11.9246Z" fill="#EFE7F3"/>
<path d="M10.5304 19.3215L10.3812 11.6475L13.1524 16.06L13.195 16.3158L12.9819 24.0964H12.9605L10.7862 20.4939L10.5304 19.3215Z" fill="#A836D5"/>
<path d="M3.77307 12.1804L3.98624 11.9672V12.0312L3.77307 12.223V12.1804Z" fill="#B2B1A8"/>
<path d="M3.98624 12.0312V11.9672L5.73421 12.5854L5.77684 13.1823L4.86023 15.7616H4.75364L3.09095 14.8237L1.98248 15.2287L3.09095 13.907L3.5386 13.3315L3.90098 12.3296L3.98624 12.0312Z" fill="#886AB3"/>
<path d="M3.77309 12.223L3.98625 12.0311L3.90099 12.3296L3.75177 12.2656L3.77309 12.223Z" fill="#30223D"/>
<path d="M0.362427 15.591L3.77309 12.1803V12.223L3.75177 12.2656L2.15302 14.0562L1.27904 15.0154L0.554276 15.8255L0.53296 15.996L0.46901 18.3408L0.40506 17.7013L0.426377 17.68L0.362427 17.3816V15.591Z" fill="#CAD6E8"/>
<path d="M17.4583 12.2443L17.5649 12.223L21.5298 24.9277L17.8846 18.6606L17.5436 14.9302L17.4583 12.2443Z" fill="#832CB8"/>
<path d="M3.75176 12.2657L3.90098 12.3296L3.5386 13.3315L2.15302 14.0563L3.75176 12.2657Z" fill="#020101"/>
<path d="M26.049 13.3741L26.6032 12.4788L26.7098 12.5001L26.8803 12.6919L29.1185 16.1452L28.1167 16.4437L26.049 13.3741Z" fill="#CD94E6"/>
<path d="M26.8803 12.692L26.7098 12.5001H26.8803L26.9229 12.5641V12.692H26.8803Z" fill="#74657D"/>
<path d="M26.9229 12.692V12.5641L27.2213 12.6707L27.1148 12.7773L26.9229 12.692Z" fill="#30223D"/>
<path d="M27.1147 12.7772L27.2213 12.6707L31.0583 13.8004L31.3141 14.6318L31.442 15.6123L27.1147 12.7772Z" fill="#020101"/>
<path d="M29.1186 16.1453L26.8803 12.692H26.9229L27.1148 12.7773L31.4421 15.6124L31.4847 15.6763L31.4207 17.7653L31.3994 20.6431L31.3142 20.7497L29.1186 16.1453Z" fill="#9E86A4"/>
<path d="M14.7085 15.9534L15.1561 13.1396L15.9662 19.6412L14.7085 15.9534Z" fill="#A836D5"/>
<path d="M4.86023 15.7616L5.77684 13.1823L6.75741 17.2964L6.71478 18.0638L4.86023 15.7616Z" fill="#832CB8"/>
<path d="M2.15303 14.0563L3.53861 13.3315L3.09096 13.9071L1.27905 15.0155L2.15303 14.0563Z" fill="#30223D"/>
<path d="M22.6383 17.616L26.049 13.374L28.1167 16.4436L22.1054 18.4687L22.2759 17.9358L22.6383 17.616Z" fill="#D6B2E4"/>
<path d="M1.27903 15.0155L3.09094 13.907L1.98247 15.2286L0.55426 15.8255L1.27903 15.0155Z" fill="#74657D"/>
<path d="M31.3568 14.6318L31.2502 13.9283L33.6803 17.2537H33.659L32.0815 16.0813L31.5699 15.6976L31.3568 14.6318Z" fill="#CAD6E8"/>
<path d="M31.4421 15.6123L31.3142 14.6317H31.3568L31.57 15.6976L31.4847 15.6763L31.4421 15.6123Z" fill="#231DF0"/>
<path d="M6.75743 17.2964L7.2264 14.717L7.14113 17.0406L6.92796 21.5597L6.69348 19.8117L6.7148 18.0637L6.75743 17.2964Z" fill="#74657D"/>
<path d="M1.98249 15.2286L3.09095 14.8236L2.94174 17.8506L3.09095 18.8524L2.66462 19.4706L0.532959 15.996L0.554276 15.8255L1.98249 15.2286Z" fill="#B399C7"/>
<path d="M2.94177 17.8506L3.09099 14.8236L4.75368 15.7615L3.66654 17.7653L2.94177 17.8506Z" fill="#D6B2E4"/>
<path d="M16.222 19.9822L16.8615 15.2712L17.5436 14.9301L17.8847 18.6606L21.5298 24.9276H21.679L21.8496 25.0129V25.9935L17.2665 21.5809L16.2433 20.579L16.222 19.9822Z" fill="#A836D5"/>
<path d="M20.1869 15.4844L20.4214 15.7616L20.1869 15.591V15.4844Z" fill="#CD94E6"/>
<path d="M20.1016 15.6763L20.1869 15.591L20.4214 15.7615L20.1016 15.6763Z" fill="#D070E8"/>
<path d="M31.4207 17.7653L31.4847 15.6763L31.5699 15.6976L32.0815 16.0813L31.4207 17.7653Z" fill="#846098"/>
<path d="M3.66649 17.7653L4.75364 15.7615H4.86022L6.71477 18.0637L6.69345 19.8117L5.7342 22.6255L2.89909 20.1528L2.66461 19.5985V19.4706L3.09094 18.8524L3.66649 17.7653Z" fill="#A867C4"/>
<path d="M13.195 16.3158L14.7085 15.9534L15.9661 19.6412L16.2219 19.9823L16.2433 20.5791L12.9818 24.0964L13.195 16.3158Z" fill="#D070E8"/>
<path d="M0.468994 18.3408L0.532944 15.996L2.66461 19.4706V19.5985L1.08718 18.6819L0.532944 18.3835L0.788743 18.7885L0.724793 18.7672L0.468994 18.3408Z" fill="#886AB3"/>
<path d="M31.4207 17.7653L32.0815 16.0813L33.6589 17.2537L33.4884 17.5308L32.8489 18.5967L32.5718 19.023L31.911 20.0888L31.5273 20.6644L31.3994 20.6431L31.4207 17.7653Z" fill="#74657D"/>
<path d="M28.1166 16.4437L29.1185 16.1453L31.3141 20.7497L31.3994 20.8776L31.1649 21.2613L27.0508 22.7961L24.4928 26.4839L24.0878 26.5478L22.3612 19.7265L21.8496 25.013L21.679 24.9277L20.4 17.0193L22.1054 18.4688L28.1166 16.4437Z" fill="#A867C4"/>
<path d="M6.92798 21.5597L7.14115 17.0406L8.01513 22.4337L6.84271 23.734L6.92798 21.5597Z" fill="#CAD6E8"/>
<path d="M33.4885 17.5308L33.659 17.2537H33.6803L33.5098 17.5734L33.4885 17.5308Z" fill="#EFE7F3"/>
<path d="M32.8489 18.5967L33.4884 17.5309L33.5098 17.5735L32.8703 18.7033L32.8489 18.5967Z" fill="#D6B2E4"/>
<path d="M22.2759 17.9358L22.4038 17.5735L22.6383 17.6161L22.2759 17.9358Z" fill="#CD94E6"/>
<path d="M2.94177 17.8506L3.66654 17.7653L3.09099 18.8525L2.94177 17.8506Z" fill="#CD94E6"/>
<path d="M0.788758 18.7885L0.532959 18.3835L1.08719 18.6819L3.55992 22.2205L3.98625 23.4782L3.94362 23.5635L0.810075 18.8312L0.788758 18.7885Z" fill="#020101"/>
<path d="M32.5718 19.023L32.849 18.5967L32.8703 18.7033L32.6358 19.1296L32.5718 19.023Z" fill="#CD94E6"/>
<path d="M3.55989 22.2205L1.08716 18.6819L2.66459 19.5985L2.89907 20.1528L3.55989 22.2205Z" fill="#30223D"/>
<path d="M0.788803 18.8312L0.724854 18.7672L0.788803 18.7886V18.8312Z" fill="#CAD6E8"/>
<path d="M0.788757 18.8311V18.7885L0.810074 18.8311H0.788757Z" fill="#30223D"/>
<path d="M3.98625 23.67L0.788757 18.8311H0.810074L3.94362 23.5634L3.98625 23.67Z" fill="#B2B1A8"/>
<path d="M31.911 20.0888L32.5718 19.023L32.6358 19.1296L32.1668 19.9822L32.0176 20.1741L31.911 20.0888Z" fill="#D070E8"/>
<path d="M21.8496 25.0129L22.3612 19.7264L24.0879 26.5477L22.3825 26.164L21.8496 26.0361V25.9935V25.0129Z" fill="#B399C7"/>
<path d="M2.89911 20.1528L5.73422 22.6255L6.69347 19.8117L6.92795 21.5597L6.84268 23.734V23.7979H6.77873L5.81948 22.8813L4.36996 23.4782H3.98626L3.55992 22.2205L2.89911 20.1528Z" fill="#886AB3"/>
<path d="M32.0176 20.1741L32.1668 19.9823L31.9963 20.2594L32.0176 20.1741Z" fill="#EFE7F3"/>
<path d="M31.5273 20.6644L31.911 20.0888L32.0176 20.1741L31.9963 20.2594V20.2807L31.4634 21.2186L31.3781 21.4105L30.6747 22.6255H30.5468L31.1649 21.2613L31.3994 20.8776L31.5273 20.6644Z" fill="#CF43EC"/>
<path d="M9.4433 20.9628L10.1041 20.238L10.2533 20.771L9.4433 20.9628Z" fill="#CAD6E8"/>
<path d="M11.6602 24.9703L10.7863 20.4938L12.9605 24.0963L12.8966 24.3734H12.79L11.6602 24.9916V24.9703Z" fill="#846098"/>
<path d="M12.9819 24.0963L16.2434 20.5791L17.2665 21.581L16.3499 22.7108L16.2434 27.0807L14.602 27.8481L16.0302 32.7083L12.8753 31.1308L11.8308 30.2995L12.8966 24.3735L12.9606 24.0963H12.9819Z" fill="#D6B2E4"/>
<path d="M31.3142 20.7496L31.3995 20.643L31.5274 20.6643L31.3995 20.8775L31.3142 20.7496Z" fill="#846098"/>
<path d="M9.44334 20.9628L10.2534 20.771L9.27281 25.2688L9.16622 25.2901L6.84271 23.798V23.734L8.01513 22.4337L9.44334 20.9628Z" fill="#EFE7F3"/>
<path d="M27.0508 22.796L31.1649 21.2612L30.5468 22.6255L30.3762 23.0305L30.1844 23.4142L29.9712 23.8831L29.7581 24.2882L29.4596 24.8424L29.2891 24.8637H29.1825L27.0508 22.796Z" fill="#846098"/>
<path d="M30.6747 22.6254L31.3781 21.4104L30.6107 22.7747L30.6747 22.6254Z" fill="#EFE7F3"/>
<path d="M16.0301 32.7082L14.6019 27.848L16.2433 27.0806L16.3499 22.7107L17.2665 21.5809L21.8496 25.9935V26.0361V26.1001L16.3286 32.8574L16.0301 32.7082Z" fill="#CD94E6"/>
<path d="M30.3762 23.0306L30.5468 22.6255H30.6747L30.6107 22.7748L30.5041 23.0092L30.3762 23.0306Z" fill="#D070E8"/>
<path d="M24.4928 26.4838L27.0508 22.796L29.1825 24.8637L28.8201 25.0129L24.4928 26.4838Z" fill="#9E86A4"/>
<path d="M4.36993 23.4782L5.81946 22.8813L6.77871 23.7979L4.36993 23.7766V23.4782Z" fill="#74657D"/>
<path d="M30.3762 23.0305L30.5041 23.0092L30.2697 23.4355L30.1844 23.4142L30.3762 23.0305Z" fill="#CD94E6"/>
<path d="M29.9712 23.8832L30.1844 23.4142L30.2696 23.4355L30.0138 23.8832H29.9712Z" fill="#D6B2E4"/>
<path d="M3.9436 23.5634L3.98624 23.4782H4.36994V23.7766L4.00755 23.7127L3.98624 23.67L3.9436 23.5634Z" fill="#846098"/>
<path d="M5.69152 25.9083L4.00751 23.7127L4.36989 23.7766L6.77867 23.7979H6.84262L9.16613 25.2901L7.86581 26.7183L7.4608 26.697L6.07522 25.5246L5.49967 25.0343L5.71284 25.9083H5.69152Z" fill="#B2B1A8"/>
<path d="M29.7581 24.2882L29.9712 23.8831H30.0139L29.7581 24.3095V24.2882Z" fill="#EFE7F3"/>
<path d="M11.6603 24.9916L12.79 24.3734L10.6797 26.5264L11.6603 24.9916Z" fill="#D44728"/>
<path d="M29.4596 24.8424L29.758 24.2882V24.3095L29.4383 25.1622H29.3956L29.4596 24.8424Z" fill="#B399C7"/>
<path d="M11.6602 24.9916L10.6796 26.5264L12.79 24.3734H12.8966L11.8307 30.2995L11.6602 30.1289L11.6389 30.0437L10.0401 26.9741L9.23011 26.8035L8.16428 26.8888L8.07901 26.8249L7.86584 26.7183L9.16616 25.2901L9.27274 25.2687L11.6602 24.9703V24.9916Z" fill="#9E86A4"/>
<path d="M29.2891 24.8637L29.4596 24.8424L29.3957 25.1622L29.3104 25.7377L29.2465 25.9509L28.9694 27.3578L28.8415 28.0612L27.9462 28.1252L25.3455 28.1678L23.6828 28.1891L23.6402 28.1678L28.9267 25.0982L29.2891 24.8637Z" fill="#74657D"/>
<path d="M28.8201 25.013L29.1825 24.8637H29.289L28.9267 25.0982L28.8201 25.013Z" fill="#30223D"/>
<path d="M24.4929 26.4838L28.8201 25.013L28.9267 25.0982L23.6402 28.1678H23.5549L21.9349 26.1214L22.3825 26.1641L24.0879 26.5478L24.4929 26.4838Z" fill="#020101"/>
<path d="M5.71286 25.9083L5.49969 25.0343L6.07524 25.5246L5.73418 25.9296L5.71286 25.9083Z" fill="#30223D"/>
<path d="M29.3104 25.7377L29.3956 25.1622H29.4383L29.3317 25.7377H29.3104Z" fill="#D6B2E4"/>
<path d="M5.73419 25.9296L6.07526 25.5246L7.46084 26.697L8.07902 26.8249L8.16429 26.8888L8.67588 27.6562H8.52667L6.58686 27.8054L6.48027 27.8268L6.18184 27.7415L6.09657 27.4644L5.77683 26.1427L5.73419 25.9296Z" fill="#020101"/>
<path d="M29.2465 25.9508L29.3104 25.7377H29.3317L29.2678 26.0361L29.2465 25.9508Z" fill="#CAD6E8"/>
<path d="M5.73422 26.1427L5.69159 25.9082H5.71291L5.73422 25.9295L5.77686 26.1427H5.73422Z" fill="#9E86A4"/>
<path d="M28.9693 27.3578L29.2464 25.9509L29.2677 26.0362L29.0119 27.3578H28.9693Z" fill="#B2B1A8"/>
<path d="M21.8496 26.1001V26.0362L22.3825 26.1641L21.9349 26.1215L21.8496 26.1001Z" fill="#846098"/>
<path d="M16.3286 32.8575L21.8496 26.1001L21.9348 26.1214L23.5549 28.1678L23.5336 28.2318L23.427 28.2957L22.8088 28.6794L16.3286 32.8575Z" fill="#886AB3"/>
<path d="M6.05394 27.4644L5.73419 26.1428H5.77683L6.09657 27.4644H6.07526H6.05394Z" fill="#B2B1A8"/>
<path d="M8.07906 26.8249L7.46088 26.697L7.86589 26.7183L8.07906 26.8249Z" fill="#74657D"/>
<path d="M8.16437 26.8889L9.2302 26.8036L8.93177 27.6563H8.67597L8.16437 26.8889Z" fill="#846098"/>
<path d="M8.9317 27.6563L9.23013 26.8036L10.0402 26.9742L9.23013 27.9121L8.9317 27.6563Z" fill="#886AB3"/>
<path d="M9.2301 27.912L10.0401 26.9741L11.6389 30.0437L10.7436 29.2549L10.573 29.127L9.84828 28.4662L9.69907 28.3383L9.2301 27.912Z" fill="#832CB8"/>
<path d="M28.8414 28.0612L28.9693 27.3578H29.012L28.8627 28.0612H28.8414Z" fill="#CAD6E8"/>
<path d="M6.1179 27.6135L6.05396 27.4643H6.07527L6.1179 27.6135Z" fill="#EFE7F3"/>
<path d="M6.11789 27.6135L6.07526 27.4643H6.09657L6.18184 27.7414H6.11789V27.6135Z" fill="#9E86A4"/>
<path d="M6.58687 27.8054L8.52668 27.6562H8.6759H8.9317L9.23013 27.912L9.69909 28.3384V28.381L6.48029 27.8907V27.8268L6.58687 27.8054Z" fill="#CAD6E8"/>
<path d="M6.4803 27.8907L6.11792 27.7415H6.18187L6.4803 27.8267V27.8907Z" fill="#B2B1A8"/>
<path d="M27.9461 28.1251L28.8414 28.0612H28.8627L27.9461 28.1465V28.1251Z" fill="#D6B2E4"/>
<path d="M25.3455 28.1678L27.9461 28.1252V28.1465L25.3455 28.3597V28.1678Z" fill="#D070E8"/>
<path d="M23.5336 28.2318L23.5549 28.1679H23.6402L23.6828 28.1892L24.0026 28.8074L23.9812 28.8287V28.8926H23.9599L23.4696 29.4682L23.3417 29.5748L23.5336 28.2318Z" fill="#231DF0"/>
<path d="M23.9812 28.8073H24.0019V28.828H23.9812V28.8073Z" fill="#CF43EC"/>
<path d="M23.6828 28.1892L25.3455 28.1679V28.3597L24.0665 28.8074H24.0025L23.6828 28.1892Z" fill="#CF43EC"/>
<path d="M23.427 28.2957L23.5336 28.2317L23.3418 29.5747L23.1286 29.6599L22.9154 29.7239L22.1907 29.8731L23.1926 28.5941L23.427 28.2957Z" fill="#020101"/>
<path d="M22.8088 28.6794L23.427 28.2957L23.1925 28.5942L22.9367 28.7221L22.8088 28.6794Z" fill="#30223D"/>
<path d="M9.6991 28.381V28.3384L9.84831 28.4663H9.78436L9.6991 28.381Z" fill="#B399C7"/>
<path d="M10.5731 29.1697L9.78442 28.4663H9.84837L10.5731 29.1271V29.1697Z" fill="#D6B2E4"/>
<path d="M22.9367 28.722L23.1925 28.5941L22.1906 29.8731L21.7003 30.2782L20.7624 31.0242L20.5066 31.2374L20.3787 31.3227L19.3129 32.1967H19.2703L18.3963 32.8788L17.7355 33.3904H17.7141L17.6715 33.3691L22.9367 28.722Z" fill="#231DF0"/>
<path d="M16.3286 32.8574L22.8088 28.6794L22.9367 28.722L17.6715 33.369L17.4583 33.5822L17.437 33.6035L17.1386 33.838L16.6696 34.0725L16.3286 32.8574Z" fill="#020101"/>
<path d="M17.4371 33.5823H17.4578V33.603H17.4371V33.5823Z" fill="#886AB3"/>
<path d="M23.9812 28.8287L24.0025 28.8073H24.0665L23.9812 28.8926V28.8287Z" fill="#EFE7F3"/>
<path d="M23.4697 29.4681L23.9599 28.8926L23.4697 29.4894V29.4681Z" fill="#EFE7F3"/>
<path d="M10.5731 29.1698V29.1271L10.7436 29.255L10.701 29.2764L10.5731 29.1698Z" fill="#B399C7"/>
<path d="M10.7009 29.2763L10.7436 29.255L11.6389 30.0437L11.6602 30.129L10.7009 29.2763Z" fill="#D6B2E4"/>
<path d="M22.9154 29.7239L23.1286 29.66L23.0433 29.7026L22.9154 29.7239Z" fill="#74657D"/>
<path d="M22.9154 29.724L23.0433 29.7026L21.7216 30.2782H21.7003L22.1906 29.8732L22.9154 29.724Z" fill="#B2B1A8"/>
<path d="M20.7625 31.0242L21.7004 30.2782H21.7217L20.7625 31.0242Z" fill="#EFE7F3"/>
<path d="M12.8753 31.1309L16.0302 32.7083L16.3286 32.8575L16.6697 34.0726L15.9236 33.561L14.7512 32.623L14.3675 32.3246L14.0051 32.0475L13.259 31.4506L12.8753 31.1309Z" fill="#CF43EC"/>
<path d="M14.3674 32.3672L14.0051 32.0475L14.3674 32.3246V32.3672Z" fill="#D6B2E4"/>
<path d="M18.3963 32.8788L19.2703 32.1967L18.3963 32.9215V32.8788Z" fill="#EFE7F3"/>
<path d="M14.3674 32.3672V32.3246L14.7511 32.623L14.3674 32.3672Z" fill="#CD94E6"/>
<path d="M15.9236 33.5823L14.7512 32.623L15.9236 33.5609V33.5823Z" fill="#D6B2E4"/>
<path d="M17.7355 33.3904L18.3963 32.8788V32.9214L17.7568 33.4117L17.7355 33.3904Z" fill="#D6B2E4"/>
<path d="M17.4583 33.5822L17.6715 33.3691L17.7141 33.3904L17.5223 33.5822H17.4583Z" fill="#886AB3"/>
<path d="M17.5223 33.5823L17.7142 33.3904H17.7355L17.7568 33.4117L17.5223 33.5823Z" fill="#CAD6E8"/>
<path d="M15.9235 33.5823V33.5609L16.6696 34.0725L17.1386 33.8381V33.902L15.9235 33.5823Z" fill="#CD94E6"/>
<path d="M17.437 33.6036L17.4583 33.5823H17.5222L17.1385 33.902V33.8381L17.437 33.6036Z" fill="#CAD6E8"/>
</g>
<path d="M47.0107 30V5.13742H55.7029C57.4349 5.13742 58.8633 5.43687 59.9883 6.03578C61.1133 6.62658 61.9509 7.42377 62.5013 8.42734C63.0516 9.42282 63.3268 10.5275 63.3268 11.7415C63.3268 12.8099 63.1366 13.692 62.7562 14.388C62.3839 15.0841 61.8902 15.6344 61.2751 16.0391C60.6681 16.4437 60.0085 16.7432 59.2963 16.9374V17.1802C60.0571 17.2288 60.8219 17.4959 61.5908 17.9815C62.3596 18.4671 63.003 19.1631 63.521 20.0695C64.039 20.976 64.298 22.0848 64.298 23.3959C64.298 24.6422 64.0147 25.7632 63.4482 26.7586C62.8816 27.7541 61.9873 28.5432 60.7652 29.1259C59.5432 29.7086 57.9528 30 55.9943 30H47.0107ZM50.0214 27.3292H55.9943C57.9609 27.3292 59.357 26.9488 60.1825 26.1881C61.0161 25.4192 61.4329 24.4885 61.4329 23.3959C61.4329 22.5542 61.2185 21.7772 60.7895 21.065C60.3606 20.3447 59.7495 19.7701 58.9564 19.3411C58.1633 18.9041 57.2244 18.6856 56.1399 18.6856H50.0214V27.3292ZM50.0214 16.0634H55.6058C56.5122 16.0634 57.3296 15.8853 58.058 15.5292C58.7945 15.1731 59.3772 14.6713 59.8062 14.0238C60.2432 13.3764 60.4617 12.6156 60.4617 11.7415C60.4617 10.6489 60.0814 9.72227 59.3206 8.9615C58.5598 8.19264 57.3539 7.8082 55.7029 7.8082H50.0214V16.0634ZM68.1728 30V11.3531H71.0378V30H68.1728ZM69.6296 8.24524C69.0711 8.24524 68.5896 8.05505 68.1849 7.67467C67.7884 7.29428 67.5901 6.83701 67.5901 6.30285C67.5901 5.7687 67.7884 5.31143 68.1849 4.93104C68.5896 4.55066 69.0711 4.36047 69.6296 4.36047C70.188 4.36047 70.6655 4.55066 71.0621 4.93104C71.4668 5.31143 71.6691 5.7687 71.6691 6.30285C71.6691 6.83701 71.4668 7.29428 71.0621 7.67467C70.6655 8.05505 70.188 8.24524 69.6296 8.24524ZM88.8098 15.5292L86.2362 16.2576C86.0743 15.8287 85.8355 15.4118 85.5199 15.0072C85.2124 14.5944 84.7915 14.2545 84.2573 13.9874C83.7232 13.7204 83.0393 13.5868 82.2057 13.5868C81.0645 13.5868 80.1136 13.8498 79.3528 14.3759C78.6001 14.8939 78.2238 15.5535 78.2238 16.3547C78.2238 17.0669 78.4828 17.6294 79.0008 18.0422C79.5187 18.4549 80.3281 18.7989 81.4287 19.0741L84.1966 19.7539C85.8639 20.1586 87.1062 20.7777 87.9236 21.6113C88.741 22.4368 89.1497 23.5011 89.1497 24.8041C89.1497 25.8724 88.8422 26.8274 88.2271 27.6691C87.6201 28.5108 86.7703 29.1745 85.6777 29.6601C84.5851 30.1457 83.3145 30.3885 81.8658 30.3885C79.9639 30.3885 78.3897 29.9757 77.1433 29.1502C75.897 28.3247 75.1079 27.1188 74.7761 25.5325L77.4954 24.8527C77.7544 25.8562 78.244 26.6089 78.9643 27.1107C79.6927 27.6125 80.6437 27.8634 81.8172 27.8634C83.1526 27.8634 84.2128 27.5801 84.9979 27.0136C85.791 26.439 86.1876 25.751 86.1876 24.9498C86.1876 24.3023 85.961 23.7601 85.5078 23.323C85.0545 22.8779 84.3585 22.5461 83.4197 22.3276L80.3119 21.5992C78.6042 21.1945 77.3497 20.5673 76.5485 19.7175C75.7553 18.8596 75.3588 17.7872 75.3588 16.5004C75.3588 15.4483 75.6542 14.5175 76.245 13.7082C76.8439 12.8989 77.6573 12.2636 78.6851 11.8022C79.7211 11.3409 80.8946 11.1103 82.2057 11.1103C84.051 11.1103 85.4997 11.5149 86.5518 12.3243C87.612 13.1336 88.3647 14.2019 88.8098 15.5292ZM92.7787 30V11.3531H95.5466V14.2666H95.7894C96.1779 13.2712 96.8051 12.4983 97.6711 11.9479C98.5371 11.3895 99.5771 11.1103 100.791 11.1103C102.021 11.1103 103.045 11.3895 103.862 11.9479C104.688 12.4983 105.331 13.2712 105.793 14.2666H105.987C106.464 13.3035 107.181 12.5387 108.136 11.9722C109.091 11.3976 110.236 11.1103 111.571 11.1103C113.239 11.1103 114.602 11.6323 115.662 12.6763C116.723 13.7123 117.253 15.3269 117.253 17.5201V30H114.388V17.5201C114.388 16.1443 114.011 15.161 113.259 14.5701C112.506 13.9793 111.62 13.6839 110.6 13.6839C109.289 13.6839 108.273 14.0805 107.553 14.8736C106.833 15.6587 106.473 16.6542 106.473 17.8601V30H103.559V17.2288C103.559 16.1686 103.215 15.3147 102.527 14.6673C101.839 14.0117 100.953 13.6839 99.8684 13.6839C99.1239 13.6839 98.4278 13.8822 97.7804 14.2788C97.141 14.6754 96.623 15.2257 96.2265 15.9298C95.838 16.6258 95.6438 17.4311 95.6438 18.3457V30H92.7787ZM133.559 22.3761V11.3531H136.424V30H133.559V26.8436H133.365C132.928 27.7905 132.248 28.5958 131.325 29.2595C130.403 29.915 129.237 30.2428 127.829 30.2428C126.663 30.2428 125.628 29.9879 124.721 29.478C123.815 28.96 123.102 28.1831 122.584 27.1471C122.066 26.1031 121.807 24.7879 121.807 23.2016V11.3531H124.673V23.0074C124.673 24.3671 125.053 25.4516 125.814 26.2609C126.583 27.0702 127.562 27.4749 128.752 27.4749C129.464 27.4749 130.188 27.2928 130.925 26.9286C131.669 26.5644 132.292 26.006 132.794 25.2533C133.304 24.5006 133.559 23.5416 133.559 22.3761ZM149.097 11.3531V13.7811H139.434V11.3531H149.097ZM142.25 6.88557H145.115V24.6584C145.115 25.4678 145.233 26.0748 145.467 26.4794C145.71 26.876 146.018 27.1431 146.39 27.2807C146.77 27.4101 147.171 27.4749 147.592 27.4749C147.907 27.4749 148.166 27.4587 148.369 27.4263C148.571 27.3859 148.733 27.3535 148.854 27.3292L149.437 29.9029C149.243 29.9757 148.972 30.0486 148.624 30.1214C148.276 30.2023 147.835 30.2428 147.3 30.2428C146.491 30.2428 145.698 30.0688 144.921 29.7208C144.152 29.3728 143.513 28.8427 143.003 28.1305C142.501 27.4182 142.25 26.5199 142.25 25.4354V6.88557ZM155.989 18.7827V30H153.124V5.13742H155.989V14.2666H156.232C156.669 13.3035 157.324 12.5387 158.198 11.9722C159.08 11.3976 160.254 11.1103 161.719 11.1103C162.989 11.1103 164.102 11.3652 165.057 11.8751C166.012 12.3769 166.753 13.1498 167.279 14.1938C167.813 15.2297 168.08 16.549 168.08 18.1514V30H165.215V18.3457C165.215 16.8646 164.831 15.7194 164.062 14.9101C163.301 14.0926 162.245 13.6839 160.893 13.6839C159.955 13.6839 159.113 13.8822 158.368 14.2788C157.632 14.6754 157.049 15.254 156.62 16.0148C156.199 16.7756 155.989 17.6982 155.989 18.7827Z" fill="#F1F7F8"/>
<defs>
<clipPath id="clip0_11531_132">
<rect width="34" height="32.6144" fill="white" transform="translate(0 1.69278)"/>
</clipPath>
</defs>
</svg>
