<svg width="492" height="240" viewBox="0 0 492 240" fill="none" xmlns="http://www.w3.org/2000/svg">
<g filter="url(#filter0_b_11678_1677)">
<rect x="216" y="26" width="275.538" height="93.1538" rx="23.0769" fill="#F1F7F8" style="mix-blend-mode:color-dodge"/>
<path d="M254.108 84.2154V79.6461H259.334C260.65 79.6461 261.815 79.45 262.831 79.0577C263.869 78.6423 264.746 78.0654 265.461 77.3269C266.177 76.5884 266.719 75.7231 267.088 74.7308C267.481 73.7154 267.677 72.5961 267.677 71.3731C267.677 70.1038 267.481 68.9731 267.088 67.9807C266.719 66.9654 266.177 66.1 265.461 65.3846C264.746 64.6692 263.869 64.1269 262.831 63.7577C261.815 63.3884 260.65 63.2038 259.334 63.2038H254.108V58.6346H259.023C261.308 58.6346 263.304 58.9692 265.011 59.6384C266.719 60.3077 268.138 61.2307 269.269 62.4077C270.4 63.5615 271.242 64.8884 271.796 66.3884C272.373 67.8654 272.661 69.4 272.661 70.9923V71.7538C272.661 73.2769 272.373 74.7769 271.796 76.2538C271.242 77.7308 270.4 79.0692 269.269 80.2692C268.138 81.4692 266.719 82.4269 265.011 83.1423C263.304 83.8577 261.308 84.2154 259.023 84.2154H254.108ZM249.884 84.2154V58.6346H254.8V84.2154H249.884ZM284.613 84.7346C282.998 84.7346 281.578 84.4577 280.355 83.9038C279.155 83.35 278.151 82.6115 277.344 81.6884C276.559 80.7423 275.959 79.6923 275.544 78.5384C275.151 77.3846 274.955 76.2077 274.955 75.0077V74.35C274.955 73.1038 275.151 71.9038 275.544 70.75C275.959 69.5731 276.559 68.5346 277.344 67.6346C278.151 66.7115 279.144 65.9846 280.321 65.4538C281.498 64.9 282.859 64.6231 284.405 64.6231C286.436 64.6231 288.132 65.0731 289.494 65.9731C290.878 66.85 291.917 68.0154 292.609 69.4692C293.301 70.9 293.648 72.4461 293.648 74.1077V75.8384H276.998V72.8961H290.636L289.148 74.35C289.148 73.15 288.974 72.1231 288.628 71.2692C288.282 70.4154 287.751 69.7577 287.036 69.2961C286.344 68.8346 285.467 68.6038 284.405 68.6038C283.344 68.6038 282.444 68.8461 281.705 69.3308C280.967 69.8154 280.401 70.5192 280.009 71.4423C279.64 72.3423 279.455 73.4269 279.455 74.6961C279.455 75.8731 279.64 76.9231 280.009 77.8461C280.378 78.7461 280.944 79.4615 281.705 79.9923C282.467 80.5 283.436 80.7538 284.613 80.7538C285.79 80.7538 286.748 80.5231 287.486 80.0615C288.224 79.5769 288.698 78.9884 288.905 78.2961H293.336C293.059 79.5884 292.528 80.7192 291.744 81.6884C290.959 82.6577 289.955 83.4077 288.732 83.9384C287.532 84.4692 286.159 84.7346 284.613 84.7346ZM297.186 91V65.2807H300.994V73.3808L300.405 73.3461C300.498 71.4308 300.89 69.8269 301.582 68.5346C302.298 67.2423 303.244 66.2846 304.421 65.6615C305.598 65.0154 306.913 64.6923 308.367 64.6923C309.705 64.6923 310.905 64.9346 311.967 65.4192C313.052 65.9038 313.975 66.5846 314.736 67.4615C315.521 68.3384 316.121 69.3654 316.536 70.5423C316.952 71.6961 317.159 72.9423 317.159 74.2808V75.0077C317.159 76.3692 316.952 77.6384 316.536 78.8154C316.144 79.9692 315.555 80.9961 314.771 81.8961C314.009 82.7731 313.086 83.4654 312.002 83.9731C310.917 84.4577 309.705 84.7 308.367 84.7C306.959 84.7 305.667 84.4115 304.49 83.8346C303.336 83.2346 302.402 82.3231 301.686 81.1C300.971 79.8538 300.567 78.25 300.475 76.2884L301.998 78.6077V91H297.186ZM307.155 80.65C308.194 80.65 309.094 80.3961 309.855 79.8884C310.64 79.3808 311.252 78.6769 311.69 77.7769C312.129 76.8538 312.348 75.8154 312.348 74.6615C312.348 73.4615 312.129 72.4231 311.69 71.5461C311.252 70.6692 310.64 69.9884 309.855 69.5038C309.094 68.9961 308.194 68.7423 307.155 68.7423C306.209 68.7423 305.332 68.95 304.525 69.3654C303.74 69.7808 303.094 70.3923 302.586 71.2C302.102 72.0077 301.859 72.9769 301.859 74.1077V75.4923C301.859 76.5769 302.113 77.5 302.621 78.2615C303.129 79.0231 303.786 79.6115 304.594 80.0269C305.402 80.4423 306.255 80.65 307.155 80.65ZM321.151 84.0769V58.8077H325.963V84.0769H321.151ZM318.798 62.4077V58.8077H325.963V62.4077H318.798ZM340.01 84.7346C338.348 84.7346 336.883 84.4692 335.614 83.9384C334.344 83.4077 333.271 82.6923 332.394 81.7923C331.518 80.8692 330.848 79.8308 330.387 78.6769C329.948 77.5231 329.729 76.3231 329.729 75.0769V74.35C329.729 73.0577 329.96 71.8346 330.421 70.6808C330.906 69.5038 331.587 68.4654 332.464 67.5654C333.364 66.6423 334.448 65.9269 335.718 65.4192C336.987 64.8884 338.418 64.6231 340.01 64.6231C341.602 64.6231 343.033 64.8884 344.302 65.4192C345.571 65.9269 346.644 66.6423 347.521 67.5654C348.421 68.4654 349.102 69.5038 349.564 70.6808C350.025 71.8346 350.256 73.0577 350.256 74.35V75.0769C350.256 76.3231 350.025 77.5231 349.564 78.6769C349.125 79.8308 348.468 80.8692 347.591 81.7923C346.714 82.6923 345.641 83.4077 344.371 83.9384C343.102 84.4692 341.648 84.7346 340.01 84.7346ZM340.01 80.6154C341.187 80.6154 342.179 80.3615 342.987 79.8538C343.794 79.3231 344.406 78.6192 344.821 77.7423C345.237 76.8423 345.444 75.8269 345.444 74.6961C345.444 73.5423 345.225 72.5269 344.787 71.65C344.371 70.75 343.748 70.0461 342.918 69.5384C342.11 69.0077 341.141 68.7423 340.01 68.7423C338.879 68.7423 337.898 69.0077 337.068 69.5384C336.26 70.0461 335.637 70.75 335.198 71.65C334.76 72.5269 334.541 73.5423 334.541 74.6961C334.541 75.8269 334.748 76.8423 335.164 77.7423C335.602 78.6192 336.225 79.3231 337.033 79.8538C337.841 80.3615 338.833 80.6154 340.01 80.6154ZM353.029 91.4846V87.3654H356.56C357.229 87.3654 357.783 87.2731 358.221 87.0884C358.683 86.9269 359.063 86.65 359.363 86.2577C359.663 85.8884 359.894 85.3692 360.056 84.7L365.11 65.2807H369.713L364.14 85.7384C363.771 87.1461 363.252 88.2654 362.583 89.0961C361.913 89.95 361.048 90.5615 359.987 90.9308C358.948 91.3 357.656 91.4846 356.11 91.4846H353.029ZM358.879 83.6615V79.8538H362.894V83.6615H358.879ZM357.252 83.6615L351.16 65.2807H356.006L361.787 83.6615H357.252ZM379.91 84.0769V58.8077H387.975L398.602 79.9923H399.745L399.052 80.6154V58.8077H403.691V84.0769H395.591L384.964 62.8923H383.787L384.479 62.2692V84.0769H379.91ZM418.101 84.7346C416.44 84.7346 414.974 84.4692 413.705 83.9384C412.436 83.4077 411.363 82.6923 410.486 81.7923C409.609 80.8692 408.94 79.8308 408.478 78.6769C408.04 77.5231 407.82 76.3231 407.82 75.0769V74.35C407.82 73.0577 408.051 71.8346 408.513 70.6808C408.997 69.5038 409.678 68.4654 410.555 67.5654C411.455 66.6423 412.54 65.9269 413.809 65.4192C415.078 64.8884 416.509 64.6231 418.101 64.6231C419.693 64.6231 421.124 64.8884 422.393 65.4192C423.663 65.9269 424.736 66.6423 425.613 67.5654C426.513 68.4654 427.193 69.5038 427.655 70.6808C428.116 71.8346 428.347 73.0577 428.347 74.35V75.0769C428.347 76.3231 428.116 77.5231 427.655 78.6769C427.216 79.8308 426.559 80.8692 425.682 81.7923C424.805 82.6923 423.732 83.4077 422.463 83.9384C421.193 84.4692 419.74 84.7346 418.101 84.7346ZM418.101 80.6154C419.278 80.6154 420.27 80.3615 421.078 79.8538C421.886 79.3231 422.497 78.6192 422.913 77.7423C423.328 76.8423 423.536 75.8269 423.536 74.6961C423.536 73.5423 423.316 72.5269 422.878 71.65C422.463 70.75 421.84 70.0461 421.009 69.5384C420.201 69.0077 419.232 68.7423 418.101 68.7423C416.97 68.7423 415.99 69.0077 415.159 69.5384C414.351 70.0461 413.728 70.75 413.29 71.65C412.851 72.5269 412.632 73.5423 412.632 74.6961C412.632 75.8269 412.84 76.8423 413.255 77.7423C413.693 78.6192 414.316 79.3231 415.124 79.8538C415.932 80.3615 416.924 80.6154 418.101 80.6154ZM438.112 84.0769L441.678 65.9038H447.216L451.335 84.0769H447.528L443.339 66.0077H445.347L441.643 84.0769H438.112ZM436.693 84.0769L436.658 80.1308H440.501V84.0769H436.693ZM434.755 84.0769L429.632 65.2807H434.305L439.185 84.0769H434.755ZM448.739 84.0769V80.1308H452.582L452.547 84.0769H448.739ZM450.262 84.0769L454.589 65.2807H458.951L454.416 84.0769H450.262Z" fill="#832ED4"/>
</g>
<g filter="url(#filter1_d_11678_1677)">
<g filter="url(#filter2_b_11678_1677)">
<rect x="29" y="146.547" width="133.2" height="61.5772" rx="10.8278" fill="#638FFF"/>
<path d="M47.9086 186.335L55.5025 165.257H60.2956L68.1205 186.335H65.2042L58.13 167.105L59.516 167.798H56.1088L57.5814 167.105L50.7382 186.335H47.9086ZM52.4418 180.041L53.3947 177.5H62.49L63.4429 180.041H52.4418ZM71.1342 186.335V165.257H73.9061V186.335H71.1342ZM68.9975 167.452V165.257H73.9061V167.452H68.9975ZM85.3261 186.855C83.9786 186.855 82.8141 186.624 81.8323 186.162C80.8506 185.7 80.0518 185.094 79.4358 184.343C78.8198 183.573 78.3578 182.717 78.0498 181.773C77.7611 180.83 77.6167 179.868 77.6167 178.886V178.366C77.6167 177.365 77.7611 176.393 78.0498 175.45C78.3578 174.507 78.8198 173.66 79.4358 172.909C80.0518 172.139 80.8314 171.533 81.7746 171.09C82.7371 170.628 83.8631 170.397 85.1529 170.397C86.8276 170.397 88.2039 170.763 89.2819 171.494C90.3791 172.206 91.1876 173.13 91.7073 174.266C92.2463 175.402 92.5158 176.614 92.5158 177.904V179.146H78.8294V177.067H90.4946L89.8593 178.193C89.8593 177.096 89.6861 176.152 89.3396 175.363C88.9931 174.555 88.4734 173.929 87.7804 173.486C87.0874 173.044 86.2116 172.822 85.1529 172.822C84.0556 172.822 83.1413 173.073 82.4098 173.573C81.6976 174.074 81.1586 174.757 80.7929 175.623C80.4464 176.489 80.2731 177.49 80.2731 178.626C80.2731 179.723 80.4464 180.715 80.7929 181.6C81.1586 182.466 81.7168 183.159 82.4676 183.679C83.2183 184.18 84.1711 184.43 85.3261 184.43C86.5388 184.43 87.5205 184.16 88.2713 183.621C89.0412 183.082 89.5032 182.457 89.6572 181.744H92.2559C92.0442 182.803 91.6207 183.718 90.9854 184.488C90.3502 185.257 89.5514 185.845 88.5889 186.249C87.6264 186.653 86.5388 186.855 85.3261 186.855ZM94.096 186.335L99.6109 178.222L99.5243 178.799L94.3558 170.917H97.4165L101.141 176.72H101.545L105.068 170.917H107.927L103.047 178.597L103.134 178.077L108.908 186.335H105.848L101.517 180.07H101.112L96.9545 186.335H94.096ZM120.425 186.451V183.852H125.68C126.951 183.852 128.077 183.65 129.059 183.246C130.059 182.822 130.906 182.245 131.599 181.513C132.312 180.782 132.851 179.925 133.216 178.944C133.582 177.962 133.765 176.903 133.765 175.768C133.765 174.574 133.582 173.496 133.216 172.534C132.851 171.552 132.312 170.705 131.599 169.993C130.906 169.261 130.059 168.703 129.059 168.318C128.077 167.933 126.951 167.74 125.68 167.74H120.425V165.142H125.391C127.297 165.142 128.953 165.44 130.358 166.037C131.763 166.614 132.928 167.404 133.852 168.405C134.795 169.386 135.497 170.493 135.959 171.725C136.421 172.938 136.652 174.179 136.652 175.45V176.085C136.652 177.317 136.421 178.549 135.959 179.781C135.497 181.013 134.795 182.129 133.852 183.13C132.928 184.131 131.763 184.94 130.358 185.556C128.953 186.153 127.297 186.451 125.391 186.451H120.425ZM118.173 186.451V165.142H121.003V186.451H118.173ZM138.566 186.335V182.813H141.915V186.335H138.566Z" fill="white"/>
</g>
<path d="M184.182 133.286L184.174 133.282C183.153 132.874 182.278 132.169 181.662 131.259C181.046 130.349 180.716 129.274 180.716 128.175C180.716 127.076 181.046 126.002 181.662 125.091C182.278 124.181 183.153 123.476 184.174 123.068L184.183 123.064L247.16 98.2236L247.16 98.2236L247.173 98.2187C248.165 97.8346 249.248 97.7482 250.289 97.9701C251.33 98.192 252.284 98.7126 253.034 99.4682C253.783 100.224 254.296 101.181 254.51 102.224C254.723 103.264 254.63 104.343 254.24 105.33C254.239 105.333 254.238 105.336 254.237 105.339L229.63 168.889L227.678 168.136L229.629 168.892L229.63 168.89C227.828 173.561 221.263 173.561 219.459 168.892C219.459 168.891 219.459 168.89 219.458 168.889L209.538 143.298L184.182 133.286Z" stroke="white" stroke-width="4.18566" stroke-linecap="round" stroke-linejoin="round"/>
<path d="M279.564 73.7977L289.665 63.6074ZM225.699 73.7977L215.598 63.6074ZM289.672 138.369L279.571 128.172ZM252.635 60.2129V46.6143ZM293.039 100.988H306.5ZM211.159 141.688L184.951 131.339C184.319 131.086 183.777 130.65 183.395 130.086C183.013 129.522 182.809 128.856 182.809 128.175C182.809 127.494 183.013 126.828 183.395 126.264C183.777 125.7 184.319 125.264 184.951 125.011L247.928 100.17C248.541 99.9331 249.21 99.8797 249.853 100.017C250.496 100.154 251.085 100.475 251.548 100.942C252.011 101.409 252.328 102 252.46 102.644C252.592 103.288 252.534 103.957 252.292 104.568L227.678 168.136C226.565 171.022 222.524 171.022 221.411 168.136L211.159 141.688Z" fill="#638FFF"/>
</g>
<defs>
<filter id="filter0_b_11678_1677" x="92.9231" y="-97.0769" width="521.692" height="339.308" filterUnits="userSpaceOnUse" color-interpolation-filters="sRGB">
<feFlood flood-opacity="0" result="BackgroundImageFix"/>
<feGaussianBlur in="BackgroundImageFix" stdDeviation="61.5385"/>
<feComposite in2="SourceAlpha" operator="in" result="effect1_backgroundBlur_11678_1677"/>
<feBlend mode="normal" in="SourceGraphic" in2="effect1_backgroundBlur_11678_1677" result="shape"/>
</filter>
<filter id="filter1_d_11678_1677" x="0.53754" y="0.886065" width="355.04" height="239.049" filterUnits="userSpaceOnUse" color-interpolation-filters="sRGB">
<feFlood flood-opacity="0" result="BackgroundImageFix"/>
<feColorMatrix in="SourceAlpha" type="matrix" values="0 0 0 0 0 0 0 0 0 0 0 0 0 0 0 0 0 0 127 0" result="hardAlpha"/>
<feOffset dy="3.34852"/>
<feGaussianBlur stdDeviation="14.2312"/>
<feComposite in2="hardAlpha" operator="out"/>
<feColorMatrix type="matrix" values="0 0 0 0 0 0 0 0 0 0 0 0 0 0 0 0 0 0 0.25 0"/>
<feBlend mode="normal" in2="BackgroundImageFix" result="effect1_dropShadow_11678_1677"/>
<feBlend mode="normal" in="SourceGraphic" in2="effect1_dropShadow_11678_1677" result="shape"/>
</filter>
<filter id="filter2_b_11678_1677" x="-86.4967" y="31.0502" width="364.193" height="292.57" filterUnits="userSpaceOnUse" color-interpolation-filters="sRGB">
<feFlood flood-opacity="0" result="BackgroundImageFix"/>
<feGaussianBlur in="BackgroundImageFix" stdDeviation="57.7483"/>
<feComposite in2="SourceAlpha" operator="in" result="effect1_backgroundBlur_11678_1677"/>
<feBlend mode="normal" in="SourceGraphic" in2="effect1_backgroundBlur_11678_1677" result="shape"/>
</filter>
</defs>
</svg>
