<svg width="607" height="127" viewBox="0 0 607 127" fill="none" xmlns="http://www.w3.org/2000/svg">
<rect x="283.006" width="311.93" height="126.865" rx="15.6141" fill="white" fill-opacity="0.1"/>
<path d="M315.123 33.3086L313.874 32.7491L320.798 18.4708L322.031 19.0627L315.123 33.3086ZM323.231 33.3086L321.982 32.7491L328.906 18.4708L330.139 19.0627L323.231 33.3086ZM348.394 28.8329H344.161L343.318 31.614H341.704L345.304 20.4411H347.331L350.94 31.614H349.237L348.394 28.8329ZM344.534 27.5438H348.021L346.285 21.7384L344.534 27.5438ZM355.717 30.5762C356.339 30.5762 356.828 30.4627 357.185 30.2356C357.547 30.0086 357.728 29.7005 357.728 29.3113C357.728 29.0627 357.679 28.8492 357.582 28.6708C357.49 28.4924 357.295 28.3302 356.998 28.1843C356.706 28.0383 356.263 27.8897 355.668 27.7384C355.09 27.5924 354.585 27.4221 354.152 27.2275C353.72 27.0329 353.385 26.7789 353.147 26.4654C352.914 26.1519 352.798 25.7465 352.798 25.2492C352.798 24.7627 352.933 24.3411 353.203 23.9843C353.479 23.6276 353.866 23.3519 354.363 23.1573C354.866 22.9627 355.449 22.8654 356.114 22.8654C356.817 22.8654 357.428 22.96 357.947 23.1492C358.471 23.333 358.914 23.56 359.276 23.8303L358.612 24.8438C358.282 24.6221 357.92 24.4411 357.525 24.3005C357.136 24.16 356.676 24.0897 356.147 24.0897C355.514 24.0897 355.063 24.187 354.793 24.3816C354.528 24.5708 354.395 24.8221 354.395 25.1357C354.395 25.3681 354.46 25.5627 354.59 25.7194C354.725 25.8708 354.955 26.0113 355.279 26.1411C355.603 26.2708 356.052 26.414 356.625 26.5708C357.182 26.7221 357.668 26.9005 358.085 27.1059C358.501 27.3113 358.822 27.5816 359.049 27.9167C359.282 28.2465 359.398 28.6816 359.398 29.2221C359.398 29.8329 359.222 30.3302 358.871 30.714C358.52 31.0924 358.063 31.3708 357.501 31.5491C356.944 31.7275 356.349 31.8167 355.717 31.8167C354.939 31.8167 354.268 31.7032 353.706 31.4762C353.149 31.2491 352.682 30.9708 352.303 30.641L353.163 29.6519C353.498 29.9275 353.882 30.1519 354.314 30.3248C354.747 30.4924 355.214 30.5762 355.717 30.5762ZM373.429 27.8681C373.461 28.4951 373.588 29.0086 373.81 29.4086C374.031 29.8032 374.32 30.0951 374.677 30.2843C375.034 30.4681 375.429 30.56 375.861 30.56C376.288 30.56 376.68 30.4951 377.037 30.3654C377.393 30.2356 377.756 30.0465 378.123 29.7978L378.829 30.7789C378.429 31.0978 377.966 31.3519 377.442 31.541C376.918 31.7248 376.374 31.8167 375.812 31.8167C374.958 31.8167 374.231 31.6302 373.631 31.2573C373.037 30.8789 372.583 30.3546 372.269 29.6843C371.961 29.014 371.807 28.2356 371.807 27.3492C371.807 26.4897 371.961 25.7221 372.269 25.0465C372.583 24.3708 373.023 23.8384 373.591 23.4492C374.158 23.06 374.834 22.8654 375.618 22.8654C376.353 22.8654 376.985 23.0357 377.515 23.3762C378.05 23.7167 378.461 24.2032 378.747 24.8357C379.034 25.4627 379.177 26.214 379.177 27.0897C379.177 27.2356 379.174 27.3762 379.169 27.5113C379.164 27.6465 379.156 27.7654 379.145 27.8681H373.429ZM375.634 24.0816C375.029 24.0816 374.523 24.2978 374.118 24.7303C373.718 25.1627 373.488 25.8302 373.429 26.7329H377.677C377.661 25.8681 377.472 25.2113 377.11 24.7627C376.753 24.3086 376.261 24.0816 375.634 24.0816ZM388.195 29.6519C388.195 29.9924 388.249 30.241 388.357 30.3978C388.465 30.5492 388.636 30.6627 388.868 30.7383L388.503 31.8086C388.114 31.76 387.776 31.6437 387.49 31.46C387.203 31.2762 386.99 30.9951 386.849 30.6167C386.541 31.0113 386.152 31.3113 385.682 31.5167C385.211 31.7167 384.701 31.8167 384.149 31.8167C383.29 31.8167 382.611 31.5735 382.114 31.087C381.617 30.6005 381.368 29.96 381.368 29.1654C381.368 28.2735 381.714 27.5897 382.406 27.114C383.103 26.6384 384.103 26.4005 385.406 26.4005H386.646V25.7519C386.646 25.1627 386.471 24.7438 386.119 24.4951C385.774 24.2465 385.29 24.1221 384.668 24.1221C384.387 24.1221 384.052 24.1573 383.663 24.2276C383.274 24.2978 382.86 24.4086 382.422 24.56L382.025 23.4249C382.555 23.2249 383.06 23.0816 383.541 22.9951C384.028 22.9086 384.482 22.8654 384.903 22.8654C386.006 22.8654 386.83 23.1167 387.376 23.6194C387.922 24.1167 388.195 24.8005 388.195 25.6708V29.6519ZM384.587 30.6492C384.987 30.6492 385.371 30.5464 385.738 30.341C386.106 30.1356 386.409 29.8492 386.646 29.4816V27.414H385.511C384.609 27.414 383.968 27.5681 383.59 27.8762C383.211 28.1789 383.022 28.5951 383.022 29.1248C383.022 29.6221 383.152 30.0005 383.411 30.26C383.671 30.5194 384.063 30.6492 384.587 30.6492ZM394.61 30.5762C395.232 30.5762 395.721 30.4627 396.078 30.2356C396.44 30.0086 396.621 29.7005 396.621 29.3113C396.621 29.0627 396.573 28.8492 396.475 28.6708C396.383 28.4924 396.189 28.3302 395.891 28.1843C395.6 28.0383 395.156 27.8897 394.562 27.7384C393.983 27.5924 393.478 27.4221 393.046 27.2275C392.613 27.0329 392.278 26.7789 392.04 26.4654C391.808 26.1519 391.691 25.7465 391.691 25.2492C391.691 24.7627 391.827 24.3411 392.097 23.9843C392.373 23.6276 392.759 23.3519 393.256 23.1573C393.759 22.9627 394.343 22.8654 395.008 22.8654C395.71 22.8654 396.321 22.96 396.84 23.1492C397.364 23.333 397.808 23.56 398.17 23.8303L397.505 24.8438C397.175 24.6221 396.813 24.4411 396.418 24.3005C396.029 24.16 395.57 24.0897 395.04 24.0897C394.408 24.0897 393.956 24.187 393.686 24.3816C393.421 24.5708 393.289 24.8221 393.289 25.1357C393.289 25.3681 393.354 25.5627 393.483 25.7194C393.619 25.8708 393.848 26.0113 394.173 26.1411C394.497 26.2708 394.946 26.414 395.519 26.5708C396.075 26.7221 396.562 26.9005 396.978 27.1059C397.394 27.3113 397.716 27.5816 397.943 27.9167C398.175 28.2465 398.291 28.6816 398.291 29.2221C398.291 29.8329 398.116 30.3302 397.764 30.714C397.413 31.0924 396.956 31.3708 396.394 31.5491C395.837 31.7275 395.243 31.8167 394.61 31.8167C393.832 31.8167 393.162 31.7032 392.6 31.4762C392.043 31.2491 391.575 30.9708 391.197 30.641L392.056 29.6519C392.391 29.9275 392.775 30.1519 393.208 30.3248C393.64 30.4924 394.108 30.5762 394.61 30.5762ZM408.615 23.0681L405.631 31.6627C405.426 32.2681 405.161 32.814 404.836 33.3005C404.512 33.787 404.093 34.1843 403.58 34.4924C403.072 34.8059 402.431 35.0005 401.658 35.0762L401.439 33.8681C402.023 33.7762 402.485 33.6356 402.826 33.4464C403.172 33.2573 403.442 33.0113 403.636 32.7086C403.836 32.4059 404.015 32.041 404.172 31.614H403.645L400.701 23.0681H402.363L404.691 30.4789L407.009 23.0681H408.615ZM427.089 29.6519C427.089 29.9924 427.143 30.241 427.251 30.3978C427.359 30.5492 427.529 30.6627 427.762 30.7383L427.397 31.8086C427.008 31.76 426.67 31.6437 426.383 31.46C426.097 31.2762 425.883 30.9951 425.743 30.6167C425.435 31.0113 425.045 31.3113 424.575 31.5167C424.105 31.7167 423.594 31.8167 423.043 31.8167C422.183 31.8167 421.505 31.5735 421.008 31.087C420.51 30.6005 420.262 29.96 420.262 29.1654C420.262 28.2735 420.608 27.5897 421.299 27.114C421.997 26.6384 422.997 26.4005 424.299 26.4005H425.54V25.7519C425.54 25.1627 425.364 24.7438 425.013 24.4951C424.667 24.2465 424.183 24.1221 423.562 24.1221C423.28 24.1221 422.945 24.1573 422.556 24.2276C422.167 24.2978 421.753 24.4086 421.316 24.56L420.918 23.4249C421.448 23.2249 421.953 23.0816 422.435 22.9951C422.921 22.9086 423.375 22.8654 423.797 22.8654C424.899 22.8654 425.724 23.1167 426.27 23.6194C426.816 24.1167 427.089 24.8005 427.089 25.6708V29.6519ZM423.48 30.6492C423.88 30.6492 424.264 30.5464 424.632 30.341C424.999 30.1356 425.302 29.8492 425.54 29.4816V27.414H424.405C423.502 27.414 422.862 27.5681 422.483 27.8762C422.105 28.1789 421.916 28.5951 421.916 29.1248C421.916 29.6221 422.045 30.0005 422.305 30.26C422.564 30.5194 422.956 30.6492 423.48 30.6492ZM433.504 30.5762C434.125 30.5762 434.615 30.4627 434.971 30.2356C435.334 30.0086 435.515 29.7005 435.515 29.3113C435.515 29.0627 435.466 28.8492 435.369 28.6708C435.277 28.4924 435.082 28.3302 434.785 28.1843C434.493 28.0383 434.05 27.8897 433.455 27.7384C432.877 27.5924 432.371 27.4221 431.939 27.2275C431.507 27.0329 431.171 26.7789 430.934 26.4654C430.701 26.1519 430.585 25.7465 430.585 25.2492C430.585 24.7627 430.72 24.3411 430.99 23.9843C431.266 23.6276 431.653 23.3519 432.15 23.1573C432.653 22.9627 433.236 22.8654 433.901 22.8654C434.604 22.8654 435.215 22.96 435.734 23.1492C436.258 23.333 436.701 23.56 437.063 23.8303L436.398 24.8438C436.069 24.6221 435.707 24.4411 435.312 24.3005C434.923 24.16 434.463 24.0897 433.934 24.0897C433.301 24.0897 432.85 24.187 432.58 24.3816C432.315 24.5708 432.182 24.8221 432.182 25.1357C432.182 25.3681 432.247 25.5627 432.377 25.7194C432.512 25.8708 432.742 26.0113 433.066 26.1411C433.39 26.2708 433.839 26.414 434.412 26.5708C434.969 26.7221 435.455 26.9005 435.871 27.1059C436.288 27.3113 436.609 27.5816 436.836 27.9167C437.069 28.2465 437.185 28.6816 437.185 29.2221C437.185 29.8329 437.009 30.3302 436.658 30.714C436.307 31.0924 435.85 31.3708 435.288 31.5491C434.731 31.7275 434.136 31.8167 433.504 31.8167C432.725 31.8167 432.055 31.7032 431.493 31.4762C430.936 31.2491 430.469 30.9708 430.09 30.641L430.95 29.6519C431.285 29.9275 431.669 30.1519 432.101 30.3248C432.534 30.4924 433.001 30.5762 433.504 30.5762Z" fill="#607B96"/>
<path d="M317.91 48.5728V50.9972C318.564 51.0566 319.148 51.208 319.661 51.4512C320.175 51.6891 320.61 51.9674 320.967 52.2863L319.978 53.3161C319.675 53.0458 319.348 52.8323 318.996 52.6755C318.651 52.5134 318.288 52.4134 317.91 52.3755V55.7404C318.521 55.9458 319.067 56.1917 319.548 56.4782C320.034 56.7647 320.418 57.1296 320.699 57.5728C320.986 58.0107 321.129 58.5566 321.129 59.2107C321.129 59.7566 321.007 60.2647 320.764 60.735C320.521 61.2052 320.159 61.5998 319.678 61.9188C319.202 62.2323 318.613 62.435 317.91 62.5269V64.9106H316.734V62.5755C315.956 62.5215 315.272 62.3431 314.683 62.0404C314.094 61.7377 313.61 61.4052 313.232 61.0431L314.205 59.9485C314.556 60.2782 314.937 60.5512 315.348 60.7674C315.759 60.9836 316.221 61.1106 316.734 61.1485V57.0863C315.702 56.7404 314.929 56.3161 314.415 55.8134C313.907 55.3053 313.653 54.6728 313.653 53.9161C313.653 53.4242 313.769 52.9701 314.002 52.5539C314.24 52.1377 314.588 51.7918 315.048 51.5161C315.507 51.235 316.069 51.062 316.734 50.9972V48.5728H317.91ZM317.91 57.5161V61.0836C318.845 60.889 319.313 60.3079 319.313 59.3404C319.313 58.935 319.213 58.589 319.013 58.3025C318.813 58.0107 318.445 57.7485 317.91 57.5161ZM316.734 52.3999C316.334 52.4701 316.015 52.6242 315.778 52.862C315.54 53.0999 315.421 53.408 315.421 53.7863C315.421 54.1215 315.507 54.408 315.68 54.6458C315.853 54.8782 316.205 55.108 316.734 55.335V52.3999ZM334.989 54.8323C335.286 54.4431 335.632 54.1377 336.027 53.9161C336.427 53.6945 336.865 53.5836 337.34 53.5836C338.092 53.5836 338.7 53.7701 339.165 54.1431C339.635 54.5107 339.978 55.0323 340.195 55.708C340.416 56.3782 340.527 57.1674 340.527 58.0755C340.527 58.9458 340.397 59.7215 340.138 60.4025C339.878 61.0836 339.495 61.6188 338.986 62.0079C338.484 62.3971 337.862 62.5917 337.122 62.5917C336.165 62.5917 335.413 62.2377 334.868 61.5296L334.77 62.3728H333.173V50.3728L334.989 50.1701V54.8323ZM336.668 61.2052C337.284 61.2052 337.759 60.9539 338.095 60.4512C338.435 59.9485 338.605 59.1593 338.605 58.0836C338.605 57.3539 338.538 56.762 338.403 56.308C338.268 55.8485 338.068 55.5134 337.803 55.3026C337.543 55.0917 337.224 54.9863 336.846 54.9863C336.44 54.9863 336.084 55.108 335.776 55.3512C335.468 55.5944 335.205 55.8809 334.989 56.2107V60.2161C335.189 60.5242 335.43 60.7674 335.711 60.9458C335.997 61.1188 336.316 61.2052 336.668 61.2052ZM347.575 53.8107V61.0431H349.902V62.3728H343.196V61.0431H345.758V55.1404H343.277V53.8107H347.575ZM346.31 49.6188C346.667 49.6188 346.953 49.7269 347.169 49.9431C347.391 50.1593 347.502 50.4296 347.502 50.7539C347.502 51.0782 347.391 51.3512 347.169 51.5728C346.953 51.7945 346.667 51.9053 346.31 51.9053C345.964 51.9053 345.68 51.7945 345.458 51.5728C345.237 51.3512 345.126 51.0782 345.126 50.7539C345.126 50.4296 345.237 50.1593 345.458 49.9431C345.68 49.7269 345.964 49.6188 346.31 49.6188ZM355.733 61.1971C356.301 61.1971 356.752 61.0971 357.087 60.8971C357.422 60.6917 357.59 60.4106 357.59 60.0539C357.59 59.8215 357.541 59.6242 357.444 59.462C357.347 59.2944 357.152 59.1431 356.86 59.0079C356.568 58.8674 356.125 58.7215 355.53 58.5701C354.968 58.4242 354.474 58.2512 354.047 58.0512C353.625 57.8512 353.298 57.5917 353.066 57.2728C352.833 56.9539 352.717 56.5431 352.717 56.0404C352.717 55.5485 352.855 55.1188 353.13 54.7512C353.406 54.3836 353.801 54.0972 354.314 53.8917C354.833 53.6863 355.441 53.5836 356.139 53.5836C356.857 53.5836 357.485 53.6782 358.02 53.8674C358.555 54.0566 359.012 54.2917 359.39 54.5728L358.628 55.7161C358.293 55.4944 357.925 55.3134 357.525 55.1728C357.13 55.0323 356.685 54.962 356.187 54.962C355.609 54.962 355.193 55.0485 354.939 55.2215C354.69 55.3944 354.566 55.6242 354.566 55.9107C354.566 56.1215 354.628 56.2998 354.752 56.4458C354.882 56.5863 355.103 56.7188 355.417 56.8431C355.73 56.962 356.174 57.1025 356.747 57.2647C357.303 57.4161 357.787 57.5944 358.198 57.7998C358.614 58.0052 358.936 58.2782 359.163 58.6188C359.395 58.9539 359.512 59.3917 359.512 59.9323C359.512 60.5485 359.333 61.0539 358.976 61.4485C358.625 61.8377 358.16 62.1269 357.582 62.316C357.009 62.4998 356.393 62.5917 355.733 62.5917C354.939 62.5917 354.252 62.4782 353.674 62.2512C353.095 62.0187 352.609 61.7296 352.214 61.3836L353.179 60.2809C353.514 60.5512 353.898 60.7728 354.33 60.9458C354.763 61.1133 355.23 61.1971 355.733 61.1971ZM368.246 53.5836C368.57 53.5836 368.862 53.6539 369.121 53.7945C369.381 53.935 369.584 54.1809 369.729 54.5323C369.881 54.8836 369.957 55.3755 369.957 56.008V62.3728H368.343V56.2593C368.343 55.8107 368.311 55.489 368.246 55.2944C368.186 55.0999 368.027 55.0026 367.767 55.0026C367.562 55.0026 367.354 55.0674 367.143 55.1971C366.932 55.3215 366.719 55.5377 366.502 55.8458V62.3728H365.035V56.2593C365.035 55.8107 365.002 55.489 364.938 55.2944C364.878 55.0999 364.719 55.0026 364.459 55.0026C364.248 55.0026 364.038 55.0674 363.827 55.1971C363.621 55.3215 363.411 55.5377 363.194 55.8458V62.3728H361.573V53.8107H362.943L363.065 54.735C363.308 54.3945 363.573 54.1188 363.859 53.908C364.146 53.6917 364.492 53.5836 364.897 53.5836C365.221 53.5836 365.516 53.6647 365.781 53.8269C366.046 53.989 366.24 54.2728 366.365 54.6782C366.602 54.3539 366.873 54.0917 367.175 53.8917C367.478 53.6863 367.835 53.5836 368.246 53.5836ZM373.883 53.8107V59.7944C373.883 60.3025 373.983 60.6647 374.183 60.8809C374.388 61.0971 374.696 61.2052 375.107 61.2052C375.496 61.2052 375.872 61.089 376.234 60.8566C376.596 60.6242 376.883 60.3404 377.093 60.0052V53.8107H378.91V62.3728H377.345L377.231 61.2782C376.912 61.7052 376.51 62.0323 376.023 62.2593C375.537 62.4809 375.039 62.5917 374.531 62.5917C373.704 62.5917 373.085 62.3647 372.674 61.9106C372.269 61.4512 372.066 60.8215 372.066 60.0215V53.8107H373.883ZM388.941 61.9188C388.628 62.1187 388.252 62.2809 387.814 62.4052C387.376 62.5296 386.919 62.5917 386.444 62.5917C385.449 62.5917 384.692 62.335 384.174 61.8215C383.66 61.3025 383.403 60.6215 383.403 59.7782V55.1323H381.498V53.8107H383.403V51.8972L385.219 51.6782V53.8107H388.106L387.903 55.1323H385.219V59.762C385.219 60.2215 385.333 60.5647 385.56 60.7917C385.792 61.0133 386.171 61.1242 386.695 61.1242C387.009 61.1242 387.298 61.0863 387.563 61.0106C387.828 60.935 388.068 60.8377 388.284 60.7188L388.941 61.9188ZM393.329 50.1945V54.8566C393.675 54.435 394.081 54.1188 394.546 53.908C395.01 53.6917 395.489 53.5836 395.981 53.5836C396.786 53.5836 397.386 53.808 397.781 54.2566C398.175 54.6999 398.373 55.3242 398.373 56.1296V62.3728H396.556V56.4134C396.556 55.8999 396.459 55.5323 396.264 55.3107C396.07 55.0836 395.756 54.9701 395.324 54.9701C395.054 54.9701 394.794 55.0323 394.546 55.1566C394.302 55.2755 394.075 55.4323 393.864 55.6269C393.659 55.8215 393.481 56.0296 393.329 56.2512V62.3728H391.513V50.3891L393.329 50.1945ZM317.91 69.5728V71.9972C318.564 72.0566 319.148 72.208 319.661 72.4512C320.175 72.6891 320.61 72.9674 320.967 73.2863L319.978 74.3161C319.675 74.0458 319.348 73.8323 318.996 73.6755C318.651 73.5134 318.288 73.4134 317.91 73.3755V76.7404C318.521 76.9458 319.067 77.1917 319.548 77.4782C320.034 77.7647 320.418 78.1296 320.699 78.5728C320.986 79.0107 321.129 79.5566 321.129 80.2107C321.129 80.7566 321.007 81.2647 320.764 81.735C320.521 82.2052 320.159 82.5998 319.678 82.9188C319.202 83.2323 318.613 83.435 317.91 83.5269V85.9106H316.734V83.5755C315.956 83.5215 315.272 83.3431 314.683 83.0404C314.094 82.7377 313.61 82.4052 313.232 82.0431L314.205 80.9485C314.556 81.2782 314.937 81.5512 315.348 81.7674C315.759 81.9836 316.221 82.1106 316.734 82.1485V78.0863C315.702 77.7404 314.929 77.3161 314.415 76.8134C313.907 76.3053 313.653 75.6728 313.653 74.9161C313.653 74.4242 313.769 73.9701 314.002 73.5539C314.24 73.1377 314.588 72.7918 315.048 72.5161C315.507 72.235 316.069 72.062 316.734 71.9972V69.5728H317.91ZM317.91 78.5161V82.0836C318.845 81.889 319.313 81.3079 319.313 80.3404C319.313 79.935 319.213 79.589 319.013 79.3025C318.813 79.0107 318.445 78.7485 317.91 78.5161ZM316.734 73.3999C316.334 73.4701 316.015 73.6242 315.778 73.862C315.54 74.0999 315.421 74.408 315.421 74.7863C315.421 75.1215 315.507 75.408 315.68 75.6458C315.853 75.8782 316.205 76.108 316.734 76.335V73.3999ZM334.989 75.8323C335.286 75.4431 335.632 75.1377 336.027 74.9161C336.427 74.6945 336.865 74.5836 337.34 74.5836C338.092 74.5836 338.7 74.7701 339.165 75.1431C339.635 75.5107 339.978 76.0323 340.195 76.708C340.416 77.3782 340.527 78.1674 340.527 79.0755C340.527 79.9458 340.397 80.7215 340.138 81.4025C339.878 82.0836 339.495 82.6188 338.986 83.0079C338.484 83.3971 337.862 83.5917 337.122 83.5917C336.165 83.5917 335.413 83.2377 334.868 82.5296L334.77 83.3728H333.173V71.3728L334.989 71.1701V75.8323ZM336.668 82.2052C337.284 82.2052 337.759 81.9539 338.095 81.4512C338.435 80.9485 338.605 80.1593 338.605 79.0836C338.605 78.3539 338.538 77.762 338.403 77.308C338.268 76.8485 338.068 76.5134 337.803 76.3026C337.543 76.0917 337.224 75.9863 336.846 75.9863C336.44 75.9863 336.084 76.108 335.776 76.3512C335.468 76.5944 335.205 76.8809 334.989 77.2107V81.2161C335.189 81.5242 335.43 81.7674 335.711 81.9458C335.997 82.1188 336.316 82.2052 336.668 82.2052ZM347.575 74.8107V82.0431H349.902V83.3728H343.196V82.0431H345.758V76.1404H343.277V74.8107H347.575ZM346.31 70.6188C346.667 70.6188 346.953 70.7269 347.169 70.9431C347.391 71.1593 347.502 71.4296 347.502 71.7539C347.502 72.0782 347.391 72.3512 347.169 72.5728C346.953 72.7945 346.667 72.9053 346.31 72.9053C345.964 72.9053 345.68 72.7945 345.458 72.5728C345.237 72.3512 345.126 72.0782 345.126 71.7539C345.126 71.4296 345.237 71.1593 345.458 70.9431C345.68 70.7269 345.964 70.6188 346.31 70.6188ZM355.733 82.1971C356.301 82.1971 356.752 82.0971 357.087 81.8971C357.422 81.6917 357.59 81.4106 357.59 81.0539C357.59 80.8215 357.541 80.6242 357.444 80.462C357.347 80.2944 357.152 80.1431 356.86 80.0079C356.568 79.8674 356.125 79.7215 355.53 79.5701C354.968 79.4242 354.474 79.2512 354.047 79.0512C353.625 78.8512 353.298 78.5917 353.066 78.2728C352.833 77.9539 352.717 77.5431 352.717 77.0404C352.717 76.5485 352.855 76.1188 353.13 75.7512C353.406 75.3836 353.801 75.0972 354.314 74.8917C354.833 74.6863 355.441 74.5836 356.139 74.5836C356.857 74.5836 357.485 74.6782 358.02 74.8674C358.555 75.0566 359.012 75.2917 359.39 75.5728L358.628 76.7161C358.293 76.4944 357.925 76.3134 357.525 76.1728C357.13 76.0323 356.685 75.962 356.187 75.962C355.609 75.962 355.193 76.0485 354.939 76.2215C354.69 76.3944 354.566 76.6242 354.566 76.9107C354.566 77.1215 354.628 77.2998 354.752 77.4458C354.882 77.5863 355.103 77.7188 355.417 77.8431C355.73 77.962 356.174 78.1025 356.747 78.2647C357.303 78.4161 357.787 78.5944 358.198 78.7998C358.614 79.0052 358.936 79.2782 359.163 79.6188C359.395 79.9539 359.512 80.3917 359.512 80.9323C359.512 81.5485 359.333 82.0539 358.976 82.4485C358.625 82.8377 358.16 83.1269 357.582 83.316C357.009 83.4998 356.393 83.5917 355.733 83.5917C354.939 83.5917 354.252 83.4782 353.674 83.2512C353.095 83.0187 352.609 82.7296 352.214 82.3836L353.179 81.2809C353.514 81.5512 353.898 81.7728 354.33 81.9458C354.763 82.1133 355.23 82.1971 355.733 82.1971ZM368.246 74.5836C368.57 74.5836 368.862 74.6539 369.121 74.7945C369.381 74.935 369.584 75.1809 369.729 75.5323C369.881 75.8836 369.957 76.3755 369.957 77.008V83.3728H368.343V77.2593C368.343 76.8107 368.311 76.489 368.246 76.2944C368.186 76.0999 368.027 76.0026 367.767 76.0026C367.562 76.0026 367.354 76.0674 367.143 76.1971C366.932 76.3215 366.719 76.5377 366.502 76.8458V83.3728H365.035V77.2593C365.035 76.8107 365.002 76.489 364.938 76.2944C364.878 76.0999 364.719 76.0026 364.459 76.0026C364.248 76.0026 364.038 76.0674 363.827 76.1971C363.621 76.3215 363.411 76.5377 363.194 76.8458V83.3728H361.573V74.8107H362.943L363.065 75.735C363.308 75.3945 363.573 75.1188 363.859 74.908C364.146 74.6917 364.492 74.5836 364.897 74.5836C365.221 74.5836 365.516 74.6647 365.781 74.8269C366.046 74.989 366.24 75.2728 366.365 75.6782C366.602 75.3539 366.873 75.0917 367.175 74.8917C367.478 74.6863 367.835 74.5836 368.246 74.5836ZM373.883 74.8107V80.7944C373.883 81.3025 373.983 81.6647 374.183 81.8809C374.388 82.0971 374.696 82.2052 375.107 82.2052C375.496 82.2052 375.872 82.089 376.234 81.8566C376.596 81.6242 376.883 81.3404 377.093 81.0052V74.8107H378.91V83.3728H377.345L377.231 82.2782C376.912 82.7052 376.51 83.0323 376.023 83.2593C375.537 83.4809 375.039 83.5917 374.531 83.5917C373.704 83.5917 373.085 83.3647 372.674 82.9106C372.269 82.4512 372.066 81.8215 372.066 81.0215V74.8107H373.883ZM388.941 82.9188C388.628 83.1187 388.252 83.2809 387.814 83.4052C387.376 83.5296 386.919 83.5917 386.444 83.5917C385.449 83.5917 384.692 83.335 384.174 82.8215C383.66 82.3025 383.403 81.6215 383.403 80.7782V76.1323H381.498V74.8107H383.403V72.8972L385.219 72.6782V74.8107H388.106L387.903 76.1323H385.219V80.762C385.219 81.2215 385.333 81.5647 385.56 81.7917C385.792 82.0133 386.171 82.1242 386.695 82.1242C387.009 82.1242 387.298 82.0863 387.563 82.0106C387.828 81.935 388.068 81.8377 388.284 81.7188L388.941 82.9188ZM393.329 71.1945V75.8566C393.675 75.435 394.081 75.1188 394.546 74.908C395.01 74.6917 395.489 74.5836 395.981 74.5836C396.786 74.5836 397.386 74.808 397.781 75.2566C398.175 75.6999 398.373 76.3242 398.373 77.1296V83.3728H396.556V77.4134C396.556 76.8999 396.459 76.5323 396.264 76.3107C396.07 76.0836 395.756 75.9701 395.324 75.9701C395.054 75.9701 394.794 76.0323 394.546 76.1566C394.302 76.2755 394.075 76.4323 393.864 76.6269C393.659 76.8215 393.481 77.0296 393.329 77.2512V83.3728H391.513V71.3891L393.329 71.1945ZM317.91 90.5728V92.9972C318.564 93.0566 319.148 93.208 319.661 93.4512C320.175 93.6891 320.61 93.9674 320.967 94.2863L319.978 95.3161C319.675 95.0458 319.348 94.8323 318.996 94.6755C318.651 94.5134 318.288 94.4134 317.91 94.3755V97.7404C318.521 97.9458 319.067 98.1917 319.548 98.4782C320.034 98.7647 320.418 99.1296 320.699 99.5728C320.986 100.011 321.129 100.557 321.129 101.211C321.129 101.757 321.007 102.265 320.764 102.735C320.521 103.205 320.159 103.6 319.678 103.919C319.202 104.232 318.613 104.435 317.91 104.527V106.911H316.734V104.576C315.956 104.521 315.272 104.343 314.683 104.04C314.094 103.738 313.61 103.405 313.232 103.043L314.205 101.948C314.556 102.278 314.937 102.551 315.348 102.767C315.759 102.984 316.221 103.111 316.734 103.148V99.0863C315.702 98.7404 314.929 98.3161 314.415 97.8134C313.907 97.3053 313.653 96.6728 313.653 95.9161C313.653 95.4242 313.769 94.9701 314.002 94.5539C314.24 94.1377 314.588 93.7918 315.048 93.5161C315.507 93.235 316.069 93.062 316.734 92.9972V90.5728H317.91ZM317.91 99.5161V103.084C318.845 102.889 319.313 102.308 319.313 101.34C319.313 100.935 319.213 100.589 319.013 100.303C318.813 100.011 318.445 99.7485 317.91 99.5161ZM316.734 94.3999C316.334 94.4701 316.015 94.6242 315.778 94.862C315.54 95.0999 315.421 95.408 315.421 95.7863C315.421 96.1215 315.507 96.408 315.68 96.6458C315.853 96.8782 316.205 97.108 316.734 97.335V94.3999ZM334.989 96.8323C335.286 96.4431 335.632 96.1377 336.027 95.9161C336.427 95.6945 336.865 95.5836 337.34 95.5836C338.092 95.5836 338.7 95.7701 339.165 96.1431C339.635 96.5107 339.978 97.0323 340.195 97.708C340.416 98.3782 340.527 99.1674 340.527 100.076C340.527 100.946 340.397 101.721 340.138 102.403C339.878 103.084 339.495 103.619 338.986 104.008C338.484 104.397 337.862 104.592 337.122 104.592C336.165 104.592 335.413 104.238 334.868 103.53L334.77 104.373H333.173V92.3728L334.989 92.1701V96.8323ZM336.668 103.205C337.284 103.205 337.759 102.954 338.095 102.451C338.435 101.948 338.605 101.159 338.605 100.084C338.605 99.3539 338.538 98.762 338.403 98.308C338.268 97.8485 338.068 97.5134 337.803 97.3026C337.543 97.0917 337.224 96.9863 336.846 96.9863C336.44 96.9863 336.084 97.108 335.776 97.3512C335.468 97.5944 335.205 97.8809 334.989 98.2107V102.216C335.189 102.524 335.43 102.767 335.711 102.946C335.997 103.119 336.316 103.205 336.668 103.205ZM347.575 95.8107V103.043H349.902V104.373H343.196V103.043H345.758V97.1404H343.277V95.8107H347.575ZM346.31 91.6188C346.667 91.6188 346.953 91.7269 347.169 91.9431C347.391 92.1593 347.502 92.4296 347.502 92.7539C347.502 93.0782 347.391 93.3512 347.169 93.5728C346.953 93.7945 346.667 93.9053 346.31 93.9053C345.964 93.9053 345.68 93.7945 345.458 93.5728C345.237 93.3512 345.126 93.0782 345.126 92.7539C345.126 92.4296 345.237 92.1593 345.458 91.9431C345.68 91.7269 345.964 91.6188 346.31 91.6188ZM355.733 103.197C356.301 103.197 356.752 103.097 357.087 102.897C357.422 102.692 357.59 102.411 357.59 102.054C357.59 101.821 357.541 101.624 357.444 101.462C357.347 101.294 357.152 101.143 356.86 101.008C356.568 100.867 356.125 100.721 355.53 100.57C354.968 100.424 354.474 100.251 354.047 100.051C353.625 99.8512 353.298 99.5917 353.066 99.2728C352.833 98.9539 352.717 98.5431 352.717 98.0404C352.717 97.5485 352.855 97.1188 353.13 96.7512C353.406 96.3836 353.801 96.0972 354.314 95.8917C354.833 95.6863 355.441 95.5836 356.139 95.5836C356.857 95.5836 357.485 95.6782 358.02 95.8674C358.555 96.0566 359.012 96.2917 359.39 96.5728L358.628 97.7161C358.293 97.4944 357.925 97.3134 357.525 97.1728C357.13 97.0323 356.685 96.962 356.187 96.962C355.609 96.962 355.193 97.0485 354.939 97.2215C354.69 97.3944 354.566 97.6242 354.566 97.9107C354.566 98.1215 354.628 98.2998 354.752 98.4458C354.882 98.5863 355.103 98.7188 355.417 98.8431C355.73 98.962 356.174 99.1025 356.747 99.2647C357.303 99.4161 357.787 99.5944 358.198 99.7998C358.614 100.005 358.936 100.278 359.163 100.619C359.395 100.954 359.512 101.392 359.512 101.932C359.512 102.548 359.333 103.054 358.976 103.448C358.625 103.838 358.16 104.127 357.582 104.316C357.009 104.5 356.393 104.592 355.733 104.592C354.939 104.592 354.252 104.478 353.674 104.251C353.095 104.019 352.609 103.73 352.214 103.384L353.179 102.281C353.514 102.551 353.898 102.773 354.33 102.946C354.763 103.113 355.23 103.197 355.733 103.197ZM368.246 95.5836C368.57 95.5836 368.862 95.6539 369.121 95.7945C369.381 95.935 369.584 96.1809 369.729 96.5323C369.881 96.8836 369.957 97.3755 369.957 98.008V104.373H368.343V98.2593C368.343 97.8107 368.311 97.489 368.246 97.2944C368.186 97.0999 368.027 97.0026 367.767 97.0026C367.562 97.0026 367.354 97.0674 367.143 97.1971C366.932 97.3215 366.719 97.5377 366.502 97.8458V104.373H365.035V98.2593C365.035 97.8107 365.002 97.489 364.938 97.2944C364.878 97.0999 364.719 97.0026 364.459 97.0026C364.248 97.0026 364.038 97.0674 363.827 97.1971C363.621 97.3215 363.411 97.5377 363.194 97.8458V104.373H361.573V95.8107H362.943L363.065 96.735C363.308 96.3945 363.573 96.1188 363.859 95.908C364.146 95.6917 364.492 95.5836 364.897 95.5836C365.221 95.5836 365.516 95.6647 365.781 95.8269C366.046 95.989 366.24 96.2728 366.365 96.6782C366.602 96.3539 366.873 96.0917 367.175 95.8917C367.478 95.6863 367.835 95.5836 368.246 95.5836ZM373.883 95.8107V101.794C373.883 102.303 373.983 102.665 374.183 102.881C374.388 103.097 374.696 103.205 375.107 103.205C375.496 103.205 375.872 103.089 376.234 102.857C376.596 102.624 376.883 102.34 377.093 102.005V95.8107H378.91V104.373H377.345L377.231 103.278C376.912 103.705 376.51 104.032 376.023 104.259C375.537 104.481 375.039 104.592 374.531 104.592C373.704 104.592 373.085 104.365 372.674 103.911C372.269 103.451 372.066 102.821 372.066 102.021V95.8107H373.883ZM388.941 103.919C388.628 104.119 388.252 104.281 387.814 104.405C387.376 104.53 386.919 104.592 386.444 104.592C385.449 104.592 384.692 104.335 384.174 103.821C383.66 103.303 383.403 102.621 383.403 101.778V97.1323H381.498V95.8107H383.403V93.8972L385.219 93.6782V95.8107H388.106L387.903 97.1323H385.219V101.762C385.219 102.221 385.333 102.565 385.56 102.792C385.792 103.013 386.171 103.124 386.695 103.124C387.009 103.124 387.298 103.086 387.563 103.011C387.828 102.935 388.068 102.838 388.284 102.719L388.941 103.919ZM393.329 92.1945V96.8566C393.675 96.435 394.081 96.1188 394.546 95.908C395.01 95.6917 395.489 95.5836 395.981 95.5836C396.786 95.5836 397.386 95.808 397.781 96.2566C398.175 96.6999 398.373 97.3242 398.373 98.1296V104.373H396.556V98.4134C396.556 97.8999 396.459 97.5323 396.264 97.3107C396.07 97.0836 395.756 96.9701 395.324 96.9701C395.054 96.9701 394.794 97.0323 394.546 97.1566C394.302 97.2755 394.075 97.4323 393.864 97.6269C393.659 97.8215 393.481 98.0296 393.329 98.2512V104.373H391.513V92.3891L393.329 92.1945Z" fill="#B746E8"/>
<path d="M415.136 53.5836C415.892 53.5836 416.498 53.7701 416.952 54.1431C417.406 54.5107 417.735 55.0323 417.941 55.708C418.146 56.3782 418.249 57.1674 418.249 58.0755C418.249 58.9458 418.125 59.7215 417.876 60.4025C417.627 61.0836 417.257 61.6188 416.765 62.0079C416.279 62.3971 415.673 62.5917 414.949 62.5917C414.052 62.5917 413.327 62.2755 412.776 61.6431V65.6647L410.96 65.8674V53.8107H412.541L412.654 54.9134C412.979 54.4701 413.354 54.1377 413.781 53.9161C414.214 53.6945 414.665 53.5836 415.136 53.5836ZM414.633 54.9863C414.227 54.9863 413.871 55.108 413.563 55.3512C413.254 55.5944 412.992 55.8809 412.776 56.2107V60.2161C412.981 60.5242 413.225 60.762 413.506 60.9296C413.792 61.0917 414.114 61.1728 414.471 61.1728C415.081 61.1728 415.546 60.9269 415.865 60.435C416.184 59.9431 416.344 59.1593 416.344 58.0836C416.344 57.3539 416.279 56.762 416.149 56.308C416.025 55.8485 415.836 55.5134 415.581 55.3026C415.333 55.0917 415.017 54.9863 414.633 54.9863ZM420.764 62.3728V61.0755H422.021V55.0999H420.764V53.8107H423.408L423.74 55.7971C424.059 55.0782 424.453 54.5323 424.924 54.1593C425.399 53.7809 426.01 53.5917 426.756 53.5917C427.01 53.5917 427.237 53.6134 427.437 53.6566C427.643 53.6945 427.845 53.7458 428.045 53.8107L427.502 55.3674C427.329 55.3188 427.167 55.2836 427.016 55.262C426.864 55.235 426.697 55.2215 426.513 55.2215C425.891 55.2215 425.353 55.4539 424.899 55.9188C424.451 56.3836 424.097 57.0431 423.837 57.8971V61.0755H425.564V62.3728H420.764ZM426.44 56.9647V54.8566L426.667 53.8107H428.045L427.737 56.9647H426.44ZM433.836 53.5836C434.674 53.5836 435.38 53.7701 435.952 54.1431C436.525 54.5161 436.958 55.0377 437.25 55.708C437.547 56.3782 437.696 57.1674 437.696 58.0755C437.696 58.9782 437.544 59.7701 437.242 60.4512C436.944 61.1269 436.507 61.6539 435.928 62.0323C435.355 62.4052 434.655 62.5917 433.828 62.5917C433.001 62.5917 432.298 62.4106 431.72 62.0485C431.147 61.6809 430.709 61.1593 430.407 60.4836C430.109 59.8079 429.961 59.0107 429.961 58.0917C429.961 57.1998 430.109 56.4161 430.407 55.7404C430.709 55.0647 431.15 54.5377 431.728 54.1593C432.307 53.7755 433.009 53.5836 433.836 53.5836ZM433.836 54.9944C433.182 54.9944 432.69 55.2458 432.361 55.7485C432.031 56.2458 431.866 57.0269 431.866 58.0917C431.866 59.1512 432.028 59.9323 432.353 60.435C432.682 60.9377 433.174 61.189 433.828 61.189C434.482 61.189 434.971 60.9377 435.296 60.435C435.625 59.9323 435.79 59.1458 435.79 58.0755C435.79 57.0215 435.628 56.2458 435.304 55.7485C434.98 55.2458 434.49 54.9944 433.836 54.9944ZM446.073 53.8107V60.5728C446.073 61.6377 445.852 62.5215 445.408 63.2242C444.97 63.9269 444.327 64.4863 443.479 64.9025C442.63 65.3241 441.595 65.6458 440.373 65.8674L440.081 64.4728C440.93 64.3106 441.668 64.0863 442.295 63.7998C442.922 63.5133 443.406 63.1214 443.746 62.6242C444.087 62.1269 444.257 61.4836 444.257 60.6944V55.1404H440.876V53.8107H446.073ZM444.654 49.6188C445.006 49.6188 445.292 49.7269 445.514 49.9431C445.735 50.1593 445.846 50.4296 445.846 50.7539C445.846 51.0782 445.735 51.3512 445.514 51.5728C445.292 51.7945 445.006 51.9053 444.654 51.9053C444.303 51.9053 444.016 51.7945 443.795 51.5728C443.579 51.3512 443.47 51.0782 443.47 50.7539C443.47 50.4296 443.579 50.1593 443.795 49.9431C444.016 49.7269 444.303 49.6188 444.654 49.6188ZM451.361 58.6755C451.399 59.2593 451.524 59.7377 451.734 60.1106C451.945 60.4782 452.221 60.7485 452.561 60.9215C452.907 61.0944 453.286 61.1809 453.697 61.1809C454.118 61.1809 454.507 61.1161 454.864 60.9863C455.221 60.8566 455.58 60.6728 455.942 60.435L456.729 61.5215C456.329 61.8458 455.861 62.1052 455.326 62.2998C454.791 62.4944 454.218 62.5917 453.607 62.5917C452.721 62.5917 451.969 62.4025 451.353 62.0242C450.742 61.6458 450.278 61.1188 449.959 60.4431C449.64 59.7674 449.48 58.9863 449.48 58.0998C449.48 57.2404 449.637 56.4728 449.951 55.7971C450.264 55.1161 450.713 54.5782 451.297 54.1836C451.88 53.7836 452.578 53.5836 453.388 53.5836C454.151 53.5836 454.805 53.7566 455.351 54.1026C455.902 54.4485 456.326 54.9404 456.624 55.5782C456.926 56.2107 457.078 56.9728 457.078 57.8647C457.078 58.0107 457.072 58.1566 457.061 58.3025C457.056 58.4431 457.048 58.5674 457.037 58.6755H451.361ZM453.405 54.9296C452.837 54.9296 452.367 55.1323 451.994 55.5377C451.626 55.9431 451.413 56.5755 451.353 57.435H455.318C455.302 56.6296 455.129 56.0107 454.799 55.5782C454.475 55.1458 454.01 54.9296 453.405 54.9296ZM463.704 61.0998C464.104 61.0998 464.477 61.0323 464.823 60.8971C465.169 60.7566 465.498 60.5755 465.812 60.3539L466.655 61.5215C466.282 61.8404 465.828 62.0998 465.293 62.2998C464.763 62.4944 464.214 62.5917 463.647 62.5917C462.771 62.5917 462.023 62.4079 461.401 62.0404C460.779 61.6674 460.304 61.1458 459.974 60.4755C459.644 59.8052 459.479 59.0242 459.479 58.1323C459.479 57.262 459.644 56.4863 459.974 55.8053C460.309 55.1188 460.79 54.5782 461.417 54.1836C462.044 53.7836 462.798 53.5836 463.679 53.5836C464.263 53.5836 464.801 53.6701 465.293 53.8431C465.785 54.0161 466.236 54.2728 466.647 54.6134L465.812 55.7566C465.477 55.5242 465.133 55.3485 464.782 55.2296C464.436 55.1053 464.079 55.0431 463.712 55.0431C463.036 55.0431 462.482 55.2917 462.05 55.789C461.623 56.2863 461.409 57.0674 461.409 58.1323C461.409 58.8458 461.506 59.4215 461.701 59.8593C461.901 60.2917 462.174 60.6079 462.52 60.8079C462.866 61.0025 463.26 61.0998 463.704 61.0998ZM476.451 61.9188C476.138 62.1187 475.762 62.2809 475.324 62.4052C474.886 62.5296 474.43 62.5917 473.954 62.5917C472.959 62.5917 472.203 62.335 471.684 61.8215C471.17 61.3025 470.914 60.6215 470.914 59.7782V55.1323H469.008V53.8107H470.914V51.8972L472.73 51.6782V53.8107H475.616L475.414 55.1323H472.73V59.762C472.73 60.2215 472.843 60.5647 473.07 60.7917C473.303 61.0133 473.681 61.1242 474.205 61.1242C474.519 61.1242 474.808 61.0863 475.073 61.0106C475.338 60.935 475.578 60.8377 475.795 60.7188L476.451 61.9188ZM492.874 61.0998C493.274 61.0998 493.647 61.0323 493.993 60.8971C494.339 60.7566 494.668 60.5755 494.982 60.3539L495.825 61.5215C495.452 61.8404 494.998 62.0998 494.463 62.2998C493.933 62.4944 493.385 62.5917 492.817 62.5917C491.941 62.5917 491.193 62.4079 490.571 62.0404C489.949 61.6674 489.474 61.1458 489.144 60.4755C488.814 59.8052 488.649 59.0242 488.649 58.1323C488.649 57.262 488.814 56.4863 489.144 55.8053C489.479 55.1188 489.96 54.5782 490.587 54.1836C491.214 53.7836 491.968 53.5836 492.849 53.5836C493.433 53.5836 493.971 53.6701 494.463 53.8431C494.955 54.0161 495.406 54.2728 495.817 54.6134L494.982 55.7566C494.647 55.5242 494.303 55.3485 493.952 55.2296C493.606 55.1053 493.249 55.0431 492.882 55.0431C492.206 55.0431 491.652 55.2917 491.22 55.789C490.793 56.2863 490.579 57.0674 490.579 58.1323C490.579 58.8458 490.676 59.4215 490.871 59.8593C491.071 60.2917 491.344 60.6079 491.69 60.8079C492.036 61.0025 492.431 61.0998 492.874 61.0998ZM498.551 62.3728V61.0755H499.808V55.0999H498.551V53.8107H501.194L501.527 55.7971C501.846 55.0782 502.24 54.5323 502.711 54.1593C503.186 53.7809 503.797 53.5917 504.543 53.5917C504.797 53.5917 505.024 53.6134 505.224 53.6566C505.43 53.6945 505.632 53.7458 505.832 53.8107L505.289 55.3674C505.116 55.3188 504.954 55.2836 504.803 55.262C504.651 55.235 504.484 55.2215 504.3 55.2215C503.678 55.2215 503.14 55.4539 502.686 55.9188C502.238 56.3836 501.884 57.0431 501.624 57.8971V61.0755H503.351V62.3728H498.551ZM504.227 56.9647V54.8566L504.454 53.8107H505.832L505.524 56.9647H504.227ZM509.702 58.6755C509.739 59.2593 509.864 59.7377 510.075 60.1106C510.285 60.4782 510.561 60.7485 510.902 60.9215C511.248 61.0944 511.626 61.1809 512.037 61.1809C512.458 61.1809 512.848 61.1161 513.204 60.9863C513.561 60.8566 513.92 60.6728 514.283 60.435L515.069 61.5215C514.669 61.8458 514.202 62.1052 513.666 62.2998C513.131 62.4944 512.558 62.5917 511.948 62.5917C511.061 62.5917 510.31 62.4025 509.693 62.0242C509.083 61.6458 508.618 61.1188 508.299 60.4431C507.98 59.7674 507.821 58.9863 507.821 58.0998C507.821 57.2404 507.977 56.4728 508.291 55.7971C508.604 55.1161 509.053 54.5782 509.637 54.1836C510.221 53.7836 510.918 53.5836 511.729 53.5836C512.491 53.5836 513.145 53.7566 513.691 54.1026C514.242 54.4485 514.666 54.9404 514.964 55.5782C515.266 56.2107 515.418 56.9728 515.418 57.8647C515.418 58.0107 515.412 58.1566 515.402 58.3025C515.396 58.4431 515.388 58.5674 515.377 58.6755H509.702ZM511.745 54.9296C511.177 54.9296 510.707 55.1323 510.334 55.5377C509.966 55.9431 509.753 56.5755 509.693 57.435H513.658C513.642 56.6296 513.469 56.0107 513.139 55.5782C512.815 55.1458 512.35 54.9296 511.745 54.9296ZM524.46 60.2728C524.46 60.6079 524.511 60.8539 524.614 61.0106C524.717 61.162 524.882 61.2755 525.109 61.3512L524.703 62.5836C524.282 62.535 523.92 62.4187 523.617 62.235C523.314 62.0512 523.084 61.7728 522.928 61.3998C522.614 61.7944 522.217 62.0917 521.736 62.2917C521.255 62.4917 520.741 62.5917 520.195 62.5917C519.33 62.5917 518.644 62.3485 518.136 61.862C517.633 61.3701 517.382 60.7269 517.382 59.9323C517.382 59.0296 517.733 58.335 518.436 57.8485C519.138 57.362 520.144 57.1188 521.452 57.1188H522.676V56.5593C522.676 56.008 522.509 55.6107 522.174 55.3674C521.844 55.1242 521.376 55.0026 520.771 55.0026C520.49 55.0026 520.149 55.0404 519.749 55.1161C519.349 55.1863 518.93 55.2971 518.493 55.4485L518.047 54.1674C518.582 53.9674 519.106 53.8215 519.62 53.7296C520.133 53.6323 520.609 53.5836 521.047 53.5836C522.193 53.5836 523.047 53.8377 523.609 54.3458C524.176 54.8539 524.46 55.5566 524.46 56.4539V60.2728ZM520.747 61.2539C521.114 61.2539 521.474 61.1566 521.825 60.962C522.176 60.7674 522.46 60.4944 522.676 60.1431V58.2539H521.671C520.817 58.2539 520.206 58.3971 519.838 58.6836C519.471 58.9647 519.287 59.3539 519.287 59.8512C519.287 60.3052 519.409 60.6539 519.652 60.8971C519.901 61.135 520.265 61.2539 520.747 61.2539ZM534.792 61.9188C534.478 62.1187 534.102 62.2809 533.665 62.4052C533.227 62.5296 532.77 62.5917 532.294 62.5917C531.3 62.5917 530.543 62.335 530.024 61.8215C529.51 61.3025 529.254 60.6215 529.254 59.7782V55.1323H527.348V53.8107H529.254V51.8972L531.07 51.6782V53.8107H533.956L533.754 55.1323H531.07V59.762C531.07 60.2215 531.183 60.5647 531.41 60.7917C531.643 61.0133 532.021 61.1242 532.546 61.1242C532.859 61.1242 533.148 61.0863 533.413 61.0106C533.678 60.935 533.919 60.8377 534.135 60.7188L534.792 61.9188ZM538.872 58.6755C538.91 59.2593 539.034 59.7377 539.245 60.1106C539.455 60.4782 539.731 60.7485 540.072 60.9215C540.418 61.0944 540.796 61.1809 541.207 61.1809C541.628 61.1809 542.018 61.1161 542.374 60.9863C542.731 60.8566 543.091 60.6728 543.453 60.435L544.239 61.5215C543.839 61.8458 543.372 62.1052 542.837 62.2998C542.301 62.4944 541.728 62.5917 541.118 62.5917C540.231 62.5917 539.48 62.4025 538.864 62.0242C538.253 61.6458 537.788 61.1188 537.469 60.4431C537.15 59.7674 536.991 58.9863 536.991 58.0998C536.991 57.2404 537.147 56.4728 537.461 55.7971C537.774 55.1161 538.223 54.5782 538.807 54.1836C539.391 53.7836 540.088 53.5836 540.899 53.5836C541.661 53.5836 542.315 53.7566 542.861 54.1026C543.412 54.4485 543.837 54.9404 544.134 55.5782C544.437 56.2107 544.588 56.9728 544.588 57.8647C544.588 58.0107 544.582 58.1566 544.572 58.3025C544.566 58.4431 544.558 58.5674 544.547 58.6755H538.872ZM540.915 54.9296C540.347 54.9296 539.877 55.1323 539.504 55.5377C539.137 55.9431 538.923 56.5755 538.864 57.435H542.828C542.812 56.6296 542.639 56.0107 542.31 55.5782C541.985 55.1458 541.52 54.9296 540.915 54.9296ZM415.087 82.0998C415.487 82.0998 415.86 82.0323 416.206 81.8971C416.552 81.7566 416.881 81.5755 417.195 81.3539L418.038 82.5215C417.665 82.8404 417.211 83.0998 416.676 83.2998C416.146 83.4944 415.598 83.5917 415.03 83.5917C414.154 83.5917 413.406 83.4079 412.784 83.0404C412.163 82.6674 411.687 82.1458 411.357 81.4755C411.027 80.8052 410.863 80.0242 410.863 79.1323C410.863 78.262 411.027 77.4863 411.357 76.8053C411.692 76.1188 412.173 75.5782 412.8 75.1836C413.427 74.7836 414.181 74.5836 415.063 74.5836C415.646 74.5836 416.184 74.6701 416.676 74.8431C417.168 75.0161 417.619 75.2728 418.03 75.6134L417.195 76.7566C416.86 76.5242 416.517 76.3485 416.165 76.2296C415.819 76.1053 415.463 76.0431 415.095 76.0431C414.419 76.0431 413.865 76.2917 413.433 76.789C413.006 77.2863 412.792 78.0674 412.792 79.1323C412.792 79.8458 412.89 80.4215 413.084 80.8593C413.284 81.2917 413.557 81.6079 413.903 81.8079C414.249 82.0025 414.644 82.0998 415.087 82.0998ZM422.499 71.1945V75.8566C422.845 75.435 423.251 75.1188 423.716 74.908C424.18 74.6917 424.659 74.5836 425.151 74.5836C425.956 74.5836 426.556 74.808 426.951 75.2566C427.345 75.6999 427.543 76.3242 427.543 77.1296V83.3728H425.726V77.4134C425.726 76.8999 425.629 76.5323 425.435 76.3107C425.24 76.0836 424.926 75.9701 424.494 75.9701C424.224 75.9701 423.964 76.0323 423.716 76.1566C423.472 76.2755 423.245 76.4323 423.035 76.6269C422.829 76.8215 422.651 77.0296 422.499 77.2512V83.3728H420.683V71.3891L422.499 71.1945ZM436.95 81.2728C436.95 81.6079 437.001 81.8539 437.104 82.0106C437.207 82.162 437.371 82.2755 437.598 82.3512L437.193 83.5836C436.771 83.535 436.409 83.4187 436.107 83.235C435.804 83.0512 435.574 82.7728 435.417 82.3998C435.104 82.7944 434.707 83.0917 434.225 83.2917C433.744 83.4917 433.231 83.5917 432.685 83.5917C431.82 83.5917 431.134 83.3485 430.625 82.862C430.123 82.3701 429.871 81.7269 429.871 80.9323C429.871 80.0296 430.223 79.335 430.925 78.8485C431.628 78.362 432.634 78.1188 433.942 78.1188H435.166V77.5593C435.166 77.008 434.998 76.6107 434.663 76.3674C434.334 76.1242 433.866 76.0026 433.261 76.0026C432.98 76.0026 432.639 76.0404 432.239 76.1161C431.839 76.1863 431.42 76.2971 430.982 76.4485L430.536 75.1674C431.071 74.9674 431.596 74.8215 432.109 74.7296C432.623 74.6323 433.098 74.5836 433.536 74.5836C434.682 74.5836 435.536 74.8377 436.098 75.3458C436.666 75.8539 436.95 76.5566 436.95 77.4539V81.2728ZM433.236 82.2539C433.604 82.2539 433.963 82.1566 434.315 81.962C434.666 81.7674 434.95 81.4944 435.166 81.1431V79.2539H434.161C433.307 79.2539 432.696 79.3971 432.328 79.6836C431.961 79.9647 431.777 80.3539 431.777 80.8512C431.777 81.3052 431.898 81.6539 432.142 81.8971C432.39 82.135 432.755 82.2539 433.236 82.2539ZM447.281 82.9188C446.968 83.1187 446.592 83.2809 446.154 83.4052C445.716 83.5296 445.26 83.5917 444.784 83.5917C443.789 83.5917 443.033 83.335 442.514 82.8215C442 82.3025 441.743 81.6215 441.743 80.7782V76.1323H439.838V74.8107H441.743V72.8972L443.56 72.6782V74.8107H446.446L446.243 76.1323H443.56V80.762C443.56 81.2215 443.673 81.5647 443.9 81.7917C444.133 82.0133 444.511 82.1242 445.035 82.1242C445.349 82.1242 445.638 82.0863 445.903 82.0106C446.168 81.935 446.408 81.8377 446.625 81.7188L447.281 82.9188Z" fill="#43D9AD"/>
<path d="M415.987 92.1701L417.803 92.3728V104.373H416.206L416.076 103.319C415.784 103.724 415.436 104.038 415.03 104.259C414.625 104.481 414.171 104.592 413.668 104.592C412.933 104.592 412.327 104.405 411.852 104.032C411.376 103.654 411.022 103.127 410.79 102.451C410.563 101.77 410.449 100.984 410.449 100.092C410.449 99.2215 410.584 98.4485 410.854 97.7728C411.125 97.0917 411.511 96.5566 412.014 96.1674C412.517 95.7782 413.122 95.5836 413.83 95.5836C414.279 95.5836 414.681 95.6647 415.038 95.8269C415.395 95.9836 415.711 96.2134 415.987 96.5161V92.1701ZM414.308 96.9782C413.698 96.9782 413.222 97.2323 412.881 97.7404C412.541 98.2431 412.371 99.0269 412.371 100.092C412.371 100.821 412.441 101.416 412.581 101.876C412.722 102.33 412.925 102.665 413.19 102.881C413.454 103.092 413.773 103.197 414.146 103.197C414.557 103.197 414.914 103.078 415.217 102.84C415.519 102.603 415.776 102.316 415.987 101.981V97.9269C415.776 97.6242 415.53 97.3917 415.249 97.2296C414.968 97.062 414.654 96.9782 414.308 96.9782ZM422.191 100.676C422.229 101.259 422.353 101.738 422.564 102.111C422.775 102.478 423.051 102.748 423.391 102.921C423.737 103.094 424.116 103.181 424.526 103.181C424.948 103.181 425.337 103.116 425.694 102.986C426.051 102.857 426.41 102.673 426.772 102.435L427.559 103.521C427.159 103.846 426.691 104.105 426.156 104.3C425.621 104.494 425.048 104.592 424.437 104.592C423.551 104.592 422.799 104.403 422.183 104.024C421.572 103.646 421.108 103.119 420.789 102.443C420.47 101.767 420.31 100.986 420.31 100.1C420.31 99.2404 420.467 98.4728 420.78 97.7971C421.094 97.1161 421.543 96.5782 422.126 96.1836C422.71 95.7836 423.408 95.5836 424.218 95.5836C424.98 95.5836 425.635 95.7566 426.18 96.1026C426.732 96.4485 427.156 96.9404 427.453 97.5782C427.756 98.2107 427.907 98.9728 427.907 99.8647C427.907 100.011 427.902 100.157 427.891 100.303C427.886 100.443 427.878 100.567 427.867 100.676H422.191ZM424.235 96.9296C423.667 96.9296 423.197 97.1323 422.824 97.5377C422.456 97.9431 422.243 98.5755 422.183 99.435H426.148C426.132 98.6296 425.959 98.0107 425.629 97.5782C425.305 97.1458 424.84 96.9296 424.235 96.9296ZM434.582 95.5836C435.339 95.5836 435.944 95.7701 436.398 96.1431C436.852 96.5107 437.182 97.0323 437.388 97.708C437.593 98.3782 437.696 99.1674 437.696 100.076C437.696 100.946 437.571 101.721 437.323 102.403C437.074 103.084 436.704 103.619 436.212 104.008C435.725 104.397 435.12 104.592 434.396 104.592C433.498 104.592 432.774 104.276 432.223 103.643V107.665L430.407 107.867V95.8107H431.988L432.101 96.9134C432.425 96.4701 432.801 96.1377 433.228 95.9161C433.661 95.6945 434.112 95.5836 434.582 95.5836ZM434.08 96.9863C433.674 96.9863 433.317 97.108 433.009 97.3512C432.701 97.5944 432.439 97.8809 432.223 98.2107V102.216C432.428 102.524 432.671 102.762 432.953 102.93C433.239 103.092 433.561 103.173 433.917 103.173C434.528 103.173 434.993 102.927 435.312 102.435C435.631 101.943 435.79 101.159 435.79 100.084C435.79 99.3539 435.725 98.762 435.596 98.308C435.471 97.8485 435.282 97.5134 435.028 97.3026C434.78 97.0917 434.463 96.9863 434.08 96.9863ZM443.892 92.3728V102.038C443.892 102.432 444.011 102.713 444.249 102.881C444.492 103.043 444.806 103.124 445.189 103.124C445.438 103.124 445.673 103.097 445.895 103.043C446.116 102.989 446.333 102.921 446.543 102.84L447.006 104.105C446.752 104.235 446.438 104.348 446.065 104.446C445.697 104.543 445.276 104.592 444.8 104.592C443.941 104.592 443.27 104.351 442.789 103.87C442.314 103.384 442.076 102.719 442.076 101.876V93.7107H439.489V92.3728H443.892ZM453.283 95.5836C454.121 95.5836 454.826 95.7701 455.399 96.1431C455.972 96.5161 456.405 97.0377 456.697 97.708C456.994 98.3782 457.142 99.1674 457.142 100.076C457.142 100.978 456.991 101.77 456.688 102.451C456.391 103.127 455.953 103.654 455.375 104.032C454.802 104.405 454.102 104.592 453.275 104.592C452.448 104.592 451.745 104.411 451.167 104.048C450.594 103.681 450.156 103.159 449.853 102.484C449.556 101.808 449.407 101.011 449.407 100.092C449.407 99.1998 449.556 98.4161 449.853 97.7404C450.156 97.0647 450.597 96.5377 451.175 96.1593C451.753 95.7755 452.456 95.5836 453.283 95.5836ZM453.283 96.9944C452.629 96.9944 452.137 97.2458 451.807 97.7485C451.478 98.2458 451.313 99.0269 451.313 100.092C451.313 101.151 451.475 101.932 451.799 102.435C452.129 102.938 452.621 103.189 453.275 103.189C453.929 103.189 454.418 102.938 454.742 102.435C455.072 101.932 455.237 101.146 455.237 100.076C455.237 99.0215 455.075 98.2458 454.751 97.7485C454.426 97.2458 453.937 96.9944 453.283 96.9944ZM467.069 95.8107L464.117 104.405C463.896 105.054 463.612 105.624 463.266 106.116C462.92 106.613 462.477 107.013 461.936 107.316C461.396 107.619 460.725 107.805 459.925 107.875L459.69 106.513C460.269 106.421 460.728 106.286 461.069 106.108C461.414 105.935 461.687 105.705 461.887 105.419C462.093 105.132 462.274 104.784 462.431 104.373H461.814L458.928 95.8107H460.858L463.014 103.108L465.204 95.8107H467.069Z" fill="#FEA55F"/>
<path d="M0 35.1317C0 26.5083 6.99069 19.5176 15.6141 19.5176H188.87C197.494 19.5176 204.484 26.5083 204.484 35.1317V91.733C204.484 100.356 197.494 107.347 188.87 107.347H15.6142C6.99071 107.347 0 100.356 0 91.733V35.1317Z" fill="white" fill-opacity="0.1"/>
<path d="M34.8278 47.1318L29.2765 41.5805L30.8622 39.9947L37.9993 47.1318L30.8622 54.2688L29.2765 52.683L34.8278 47.1318Z" fill="#607B96"/>
<path d="M65.9088 43.892V53.6114C65.9088 53.8262 65.8235 54.0323 65.6716 54.1841C65.5197 54.336 65.3137 54.4214 65.0989 54.4214H50.5198C50.305 54.4214 50.099 54.336 49.9471 54.1841C49.7952 54.0323 49.7098 53.8262 49.7098 53.6114V43.0821H65.0989C65.3137 43.0821 65.5197 43.1674 65.6716 43.3193C65.8235 43.4712 65.9088 43.6772 65.9088 43.892ZM58.1447 41.4622H49.7098V40.6522C49.7098 40.4374 49.7952 40.2314 49.9471 40.0795C50.099 39.9276 50.305 39.8423 50.5198 39.8423H56.5248L58.1447 41.4622Z" fill="#B746E8"/>
<path d="M85.6581 49.6598C85.6581 49.0377 85.5355 48.5592 85.2902 48.2243C85.051 47.8834 84.731 47.6471 84.3303 47.5155C83.9295 47.3839 83.4899 47.3181 83.0114 47.3181H80.903V51.8489H82.9396C83.2447 51.8489 83.5557 51.819 83.8727 51.7592C84.1897 51.6993 84.4828 51.5917 84.7519 51.4362C85.0271 51.2807 85.2454 51.0624 85.4069 50.7812C85.5743 50.4941 85.6581 50.1203 85.6581 49.6598ZM85.1646 43.9717C85.1646 43.2719 84.9463 42.7754 84.5097 42.4824C84.079 42.1833 83.4899 42.0338 82.7423 42.0338H80.903V46.0352H82.8948C83.6245 46.0352 84.1837 45.8737 84.5725 45.5507C84.9672 45.2217 85.1646 44.6954 85.1646 43.9717ZM87.2999 49.6059C87.2999 50.2758 87.1653 50.8381 86.8962 51.2926C86.633 51.7472 86.2771 52.1091 85.8285 52.3782C85.3859 52.6474 84.8895 52.8417 84.3392 52.9614C83.7949 53.075 83.2387 53.1318 82.6705 53.1318H79.3509V40.7777H82.3924C82.9366 40.7777 83.466 40.8286 83.9804 40.9303C84.5007 41.026 84.9672 41.1934 85.3799 41.4327C85.7986 41.6659 86.1336 41.9829 86.3848 42.3837C86.636 42.7844 86.7616 43.2868 86.7616 43.8909C86.7616 44.4233 86.6509 44.8748 86.4296 45.2457C86.2143 45.6105 85.9302 45.9036 85.5773 46.1249C85.2304 46.3462 84.8596 46.5017 84.4648 46.5914C84.9254 46.6632 85.371 46.8038 85.8016 47.0131C86.2382 47.2165 86.5971 47.5275 86.8782 47.9462C87.1593 48.3589 87.2999 48.9121 87.2999 49.6059ZM94.9637 43.6846V51.9386H97.6283V53.1318H90.5407V51.9386H93.4565V44.8778H90.6304V43.6846H94.9637ZM93.7615 39.2615C94.0965 39.2615 94.3626 39.3632 94.56 39.5666C94.7634 39.7699 94.865 40.0181 94.865 40.3112C94.865 40.6162 94.7634 40.8734 94.56 41.0828C94.3626 41.2861 94.0965 41.3878 93.7615 41.3878C93.4445 41.3878 93.1843 41.2861 92.981 41.0828C92.7776 40.8734 92.6759 40.6162 92.6759 40.3112C92.6759 40.0181 92.7776 39.7699 92.981 39.5666C93.1843 39.3632 93.4445 39.2615 93.7615 39.2615ZM104.153 52.0911C104.876 52.0911 105.448 51.9565 105.866 51.6874C106.291 51.4123 106.503 51.0474 106.503 50.5928C106.503 50.3057 106.45 50.0575 106.342 49.8482C106.24 49.6388 106.028 49.4504 105.705 49.283C105.382 49.1155 104.885 48.948 104.216 48.7805C103.564 48.619 102.995 48.4336 102.511 48.2243C102.032 48.009 101.659 47.7308 101.389 47.3899C101.126 47.049 100.995 46.6064 100.995 46.0621C100.995 45.5298 101.144 45.0722 101.443 44.6894C101.748 44.3006 102.17 44.0046 102.708 43.8012C103.247 43.5919 103.872 43.4872 104.583 43.4872C105.343 43.4872 106.004 43.5889 106.566 43.7922C107.134 43.9896 107.616 44.2349 108.011 44.5279L107.347 45.5507C106.988 45.3055 106.593 45.1051 106.162 44.9496C105.732 44.7881 105.211 44.7074 104.601 44.7074C103.86 44.7074 103.333 44.824 103.022 45.0573C102.711 45.2845 102.556 45.5806 102.556 45.9455C102.556 46.2206 102.631 46.4509 102.78 46.6363C102.936 46.8157 103.196 46.9802 103.561 47.1297C103.925 47.2733 104.428 47.4318 105.068 47.6052C105.684 47.7667 106.219 47.9611 106.674 48.1884C107.134 48.4157 107.493 48.7147 107.75 49.0856C108.008 49.4564 108.136 49.9349 108.136 50.5211C108.136 51.1909 107.945 51.7352 107.562 52.1539C107.179 52.5666 106.683 52.8687 106.073 53.0601C105.469 53.2455 104.829 53.3382 104.153 53.3382C103.297 53.3382 102.568 53.2156 101.964 52.9703C101.366 52.7191 100.863 52.4171 100.456 52.0642L101.318 51.0683C101.689 51.3734 102.113 51.6216 102.592 51.813C103.076 51.9984 103.597 52.0911 104.153 52.0911ZM117.926 43.4872C118.231 43.4872 118.521 43.553 118.797 43.6846C119.078 43.8162 119.308 44.0704 119.487 44.4472C119.667 44.824 119.757 45.3743 119.757 46.098V53.1318H118.357V46.3402C118.357 45.7481 118.321 45.3204 118.249 45.0573C118.178 44.7941 117.971 44.6625 117.63 44.6625C117.349 44.6625 117.068 44.7522 116.787 44.9317C116.512 45.1051 116.243 45.3922 115.979 45.7929V53.1318H114.571V46.3402C114.571 45.7481 114.535 45.3204 114.463 45.0573C114.391 44.7941 114.185 44.6625 113.844 44.6625C113.551 44.6625 113.267 44.7522 112.992 44.9317C112.723 45.1051 112.457 45.3922 112.193 45.7929V53.1318H110.803V43.6846H111.987L112.077 44.7791C112.334 44.4143 112.621 44.1092 112.938 43.864C113.261 43.6128 113.659 43.4872 114.131 43.4872C114.49 43.4872 114.828 43.5739 115.145 43.7474C115.462 43.9149 115.695 44.2438 115.845 44.7343C116.102 44.3634 116.392 44.0644 116.715 43.8371C117.038 43.6038 117.442 43.4872 117.926 43.4872ZM123.966 43.6846V50.3775C123.966 50.9996 124.095 51.4481 124.352 51.7233C124.609 51.9984 125.01 52.136 125.554 52.136C126.075 52.136 126.565 51.9894 127.026 51.6964C127.492 51.3973 127.854 51.0444 128.111 50.6377V43.6846H129.619V53.1318H128.336L128.21 51.8578C127.839 52.3363 127.382 52.7042 126.837 52.9614C126.293 53.2126 125.743 53.3382 125.186 53.3382C124.271 53.3382 123.587 53.0959 123.132 52.6115C122.683 52.121 122.459 51.4362 122.459 50.5569V43.6846H123.966ZM140.719 52.6563C140.396 52.8717 140.004 53.0391 139.543 53.1588C139.083 53.2784 138.631 53.3382 138.188 53.3382C137.172 53.3382 136.388 53.072 135.838 52.5397C135.288 52.0074 135.012 51.3225 135.012 50.4852V44.8509H132.841V43.6846H135.012V41.5403L136.52 41.3609V43.6846H139.785L139.606 44.8509H136.52V50.4672C136.52 50.9936 136.657 51.3943 136.932 51.6694C137.214 51.9446 137.677 52.0821 138.323 52.0821C138.676 52.0821 139.002 52.0403 139.301 51.9565C139.6 51.8728 139.878 51.7651 140.135 51.6336L140.719 52.6563ZM145.484 39.737V44.9765C145.855 44.4801 146.31 44.1092 146.848 43.864C147.392 43.6128 147.943 43.4872 148.499 43.4872C149.42 43.4872 150.093 43.7324 150.518 44.2229C150.942 44.7133 151.155 45.3952 151.155 46.2684V53.1318H149.647V46.3043C149.647 45.7361 149.516 45.3234 149.253 45.0662C148.989 44.8031 148.577 44.6715 148.015 44.6715C147.656 44.6715 147.315 44.7522 146.992 44.9137C146.669 45.0752 146.379 45.2756 146.121 45.5148C145.864 45.7541 145.652 45.9993 145.484 46.2505V53.1318H143.977V39.8985L145.484 39.737Z" fill="white"/>
<path d="M34.8278 80.8906L29.2765 75.3393L30.8622 73.7535L37.9993 80.8906L30.8622 88.0276L29.2765 86.4418L34.8278 80.8906Z" fill="#607B96"/>
<path d="M65.9088 77.6508V87.3702C65.9088 87.585 65.8235 87.791 65.6716 87.9429C65.5197 88.0948 65.3137 88.1802 65.0989 88.1802H50.5198C50.305 88.1802 50.099 88.0948 49.9471 87.9429C49.7952 87.791 49.7098 87.585 49.7098 87.3702V76.8409H65.0989C65.3137 76.8409 65.5197 76.9262 65.6716 77.0781C65.8235 77.23 65.9088 77.436 65.9088 77.6508ZM58.1447 75.221H49.7098V74.411C49.7098 74.1962 49.7952 73.9902 49.9471 73.8383C50.099 73.6864 50.305 73.6011 50.5198 73.6011H56.5248L58.1447 75.221Z" fill="#43D9AD"/>
<path d="M85.8734 80.6553C85.8734 79.5787 85.7598 78.7174 85.5325 78.0714C85.3052 77.4254 85.0061 76.941 84.6353 76.618C84.2645 76.295 83.8577 76.0797 83.4151 75.972C82.9785 75.8643 82.5479 75.8105 82.1232 75.8105H80.6698V85.6436H82.1411C82.5838 85.6436 83.0234 85.5748 83.46 85.4372C83.9026 85.2937 84.3063 85.0424 84.6712 84.6836C85.036 84.3187 85.3261 83.8133 85.5414 83.1673C85.7627 82.5154 85.8734 81.678 85.8734 80.6553ZM87.5332 80.6553C87.5332 81.684 87.4225 82.5633 87.2012 83.293C86.9859 84.0167 86.6898 84.6148 86.313 85.0873C85.9362 85.5598 85.5056 85.9277 85.0211 86.1908C84.5426 86.448 84.0372 86.6304 83.5049 86.7381C82.9785 86.8398 82.4611 86.8906 81.9527 86.8906H79.1177V74.5365H81.7554C82.4791 74.5365 83.1819 74.6173 83.8637 74.7788C84.5516 74.9403 85.1706 75.2393 85.7209 75.6759C86.2771 76.1066 86.7167 76.7226 87.0397 77.5241C87.3687 78.3256 87.5332 79.3693 87.5332 80.6553ZM93.7795 77.246C94.6707 77.246 95.4153 77.4494 96.0134 77.8561C96.6175 78.2568 97.0691 78.825 97.3682 79.5607C97.6732 80.2964 97.8257 81.1637 97.8257 82.1625C97.8257 83.1255 97.6702 83.9778 97.3592 84.7195C97.0482 85.4611 96.5906 86.0443 95.9865 86.469C95.3884 86.8876 94.6467 87.097 93.7615 87.097C92.8763 87.097 92.1317 86.8936 91.5276 86.4869C90.9235 86.0802 90.4659 85.509 90.1549 84.7733C89.8498 84.0316 89.6973 83.1673 89.6973 82.1805C89.6973 81.2055 89.8528 80.3472 90.1639 79.6056C90.4749 78.8639 90.9324 78.2867 91.5365 77.874C92.1466 77.4553 92.8943 77.246 93.7795 77.246ZM93.7795 78.4751C92.966 78.4751 92.35 78.7772 91.9313 79.3813C91.5186 79.9794 91.3122 80.9125 91.3122 82.1805C91.3122 83.4245 91.5156 84.3486 91.9223 84.9527C92.335 85.5568 92.9481 85.8589 93.7615 85.8589C94.575 85.8589 95.185 85.5568 95.5918 84.9527C96.0045 84.3486 96.2108 83.4186 96.2108 82.1625C96.2108 80.9065 96.0074 79.9794 95.6007 79.3813C95.194 78.7772 94.5869 78.4751 93.7795 78.4751ZM105.211 85.7961C105.684 85.7961 106.124 85.7183 106.53 85.5628C106.943 85.4073 107.323 85.2099 107.67 84.9707L108.405 85.9576C107.993 86.3105 107.496 86.5886 106.916 86.7919C106.336 86.9953 105.768 87.097 105.211 87.097C104.272 87.097 103.471 86.8966 102.807 86.4959C102.149 86.0891 101.647 85.5209 101.3 84.7912C100.953 84.0556 100.779 83.1943 100.779 82.2074C100.779 81.2623 100.953 80.416 101.3 79.6684C101.653 78.9147 102.158 78.3226 102.816 77.892C103.48 77.4613 104.284 77.246 105.229 77.246C105.833 77.246 106.399 77.3387 106.925 77.5241C107.457 77.7036 107.945 77.9757 108.387 78.3405L107.652 79.3454C107.251 79.0643 106.847 78.8549 106.441 78.7174C106.04 78.5738 105.63 78.502 105.211 78.502C104.398 78.502 103.728 78.8071 103.202 79.4172C102.675 80.0272 102.412 80.9573 102.412 82.2074C102.412 83.0447 102.532 83.7296 102.771 84.2619C103.016 84.7882 103.348 85.177 103.767 85.4282C104.192 85.6735 104.673 85.7961 105.211 85.7961ZM113.207 77.4434V84.1363C113.207 84.7583 113.336 85.2069 113.593 85.4821C113.85 85.7572 114.251 85.8948 114.795 85.8948C115.316 85.8948 115.806 85.7482 116.267 85.4551C116.733 85.1561 117.095 84.8032 117.352 84.3965V77.4434H118.859V86.8906H117.576L117.451 85.6166C117.08 86.0951 116.622 86.463 116.078 86.7202C115.534 86.9714 114.984 87.097 114.427 87.097C113.512 87.097 112.827 86.8547 112.373 86.3703C111.924 85.8798 111.7 85.195 111.7 84.3157V77.4434H113.207ZM128.685 77.246C128.99 77.246 129.281 77.3118 129.556 77.4434C129.837 77.575 130.067 77.8292 130.247 78.206C130.426 78.5828 130.516 79.1331 130.516 79.8568V86.8906H129.116V80.099C129.116 79.5069 129.08 79.0792 129.008 78.8161C128.937 78.5529 128.73 78.4213 128.389 78.4213C128.108 78.4213 127.827 78.511 127.546 78.6904C127.271 78.8639 127.002 79.151 126.739 79.5517V86.8906H125.33V80.099C125.33 79.5069 125.294 79.0792 125.222 78.8161C125.151 78.5529 124.944 78.4213 124.603 78.4213C124.31 78.4213 124.026 78.511 123.751 78.6904C123.482 78.8639 123.216 79.151 122.953 79.5517V86.8906H121.562V77.4434H122.746L122.836 78.5379C123.093 78.1731 123.38 77.868 123.697 77.6228C124.02 77.3716 124.418 77.246 124.89 77.246C125.249 77.246 125.587 77.3327 125.904 77.5062C126.221 77.6736 126.454 78.0026 126.604 78.4931C126.861 78.1222 127.151 77.8232 127.474 77.5959C127.797 77.3626 128.201 77.246 128.685 77.246ZM134.402 82.7008C134.432 83.4305 134.573 84.0286 134.824 84.4952C135.075 84.9557 135.407 85.2966 135.82 85.5179C136.233 85.7333 136.681 85.8409 137.166 85.8409C137.65 85.8409 138.087 85.7692 138.476 85.6256C138.87 85.4821 139.274 85.2697 139.687 84.9886L140.396 85.9845C139.953 86.3314 139.448 86.6035 138.879 86.8009C138.317 86.9983 137.74 87.097 137.148 87.097C136.233 87.097 135.452 86.8906 134.806 86.4779C134.16 86.0652 133.667 85.491 133.326 84.7553C132.991 84.0137 132.823 83.1554 132.823 82.1805C132.823 81.2235 132.994 80.3741 133.335 79.6325C133.676 78.8908 134.154 78.3077 134.77 77.883C135.386 77.4583 136.113 77.246 136.95 77.246C137.746 77.246 138.431 77.4344 139.005 77.8112C139.579 78.182 140.019 78.7144 140.324 79.4082C140.635 80.096 140.79 80.9184 140.79 81.8754C140.79 82.0369 140.787 82.1894 140.781 82.333C140.775 82.4705 140.766 82.5932 140.754 82.7008H134.402ZM136.968 78.4841C136.269 78.4841 135.682 78.7323 135.21 79.2288C134.743 79.7252 134.477 80.4938 134.411 81.5345H139.337C139.319 80.5237 139.098 79.7641 138.673 79.2557C138.248 78.7413 137.68 78.4841 136.968 78.4841ZM143.977 86.8906V77.4434H145.26L145.377 78.7532C145.76 78.2688 146.238 77.8979 146.812 77.6408C147.392 77.3776 147.955 77.246 148.499 77.246C149.426 77.246 150.099 77.4912 150.518 77.9817C150.942 78.4721 151.155 79.154 151.155 80.0272V86.8906H149.647V81.1397C149.647 80.4938 149.611 79.9734 149.54 79.5787C149.468 79.1779 149.318 78.8878 149.091 78.7084C148.864 78.523 148.511 78.4303 148.032 78.4303C147.662 78.4303 147.312 78.511 146.983 78.6725C146.66 78.834 146.37 79.0374 146.113 79.2826C145.861 79.5218 145.652 79.7641 145.484 80.0093V86.8906H143.977ZM162.237 86.4151C161.914 86.6304 161.522 86.7979 161.061 86.9175C160.601 87.0372 160.149 87.097 159.707 87.097C158.69 87.097 157.906 86.8308 157.356 86.2985C156.806 85.7662 156.531 85.0813 156.531 84.244V78.6097H154.36V77.4434H156.531V75.2991L158.038 75.1197V77.4434H161.304L161.124 78.6097H158.038V84.226C158.038 84.7524 158.175 85.1531 158.451 85.4282C158.732 85.7034 159.195 85.8409 159.841 85.8409C160.194 85.8409 160.52 85.7991 160.819 85.7153C161.118 85.6316 161.396 85.5239 161.654 85.3923L162.237 86.4151ZM168.707 85.8499C169.431 85.8499 170.002 85.7153 170.421 85.4462C170.846 85.171 171.058 84.8062 171.058 84.3516C171.058 84.0645 171.004 83.8163 170.896 83.607C170.795 83.3976 170.582 83.2092 170.259 83.0417C169.936 82.8743 169.44 82.7068 168.77 82.5393C168.118 82.3778 167.55 82.1924 167.065 81.9831C166.587 81.7678 166.213 81.4896 165.944 81.1487C165.681 80.8078 165.549 80.3652 165.549 79.8209C165.549 79.2886 165.699 78.831 165.998 78.4482C166.303 78.0594 166.725 77.7634 167.263 77.56C167.801 77.3507 168.426 77.246 169.138 77.246C169.898 77.246 170.558 77.3477 171.121 77.551C171.689 77.7484 172.17 77.9936 172.565 78.2867L171.901 79.3095C171.542 79.0643 171.148 78.8639 170.717 78.7084C170.286 78.5469 169.766 78.4662 169.156 78.4662C168.414 78.4662 167.888 78.5828 167.577 78.8161C167.266 79.0433 167.11 79.3394 167.11 79.7043C167.11 79.9794 167.185 80.2097 167.335 80.3951C167.49 80.5745 167.75 80.739 168.115 80.8885C168.48 81.0321 168.982 81.1906 169.622 81.364C170.238 81.5255 170.774 81.7199 171.228 81.9472C171.689 82.1745 172.048 82.4735 172.305 82.8444C172.562 83.2152 172.691 83.6937 172.691 84.2798C172.691 84.9497 172.499 85.494 172.117 85.9127C171.734 86.3254 171.237 86.6275 170.627 86.8189C170.023 87.0043 169.383 87.097 168.707 87.097C167.852 87.097 167.122 86.9744 166.518 86.7291C165.92 86.4779 165.418 86.1759 165.011 85.823L165.872 84.8271C166.243 85.1322 166.668 85.3804 167.146 85.5718C167.631 85.7572 168.151 85.8499 168.707 85.8499Z" fill="#607B96"/>
<rect x="213.719" y="63.4324" width="68.3119" height="1.95177" stroke="white" stroke-opacity="0.2" stroke-width="1.95177"/>
<g filter="url(#filter0_b_11545_272)">
<circle cx="283.006" cy="64.4082" r="17.5659" fill="#387299"/>
<circle cx="283.006" cy="64.4082" r="16.59" stroke="white" stroke-opacity="0.2" stroke-width="1.95177"/>
</g>
<g filter="url(#filter1_b_11545_272)">
<circle cx="204.936" cy="64.4082" r="17.5659" fill="#387299"/>
<circle cx="204.936" cy="64.4082" r="16.59" stroke="white" stroke-opacity="0.2" stroke-width="1.95177"/>
</g>
<defs>
<filter id="filter0_b_11545_272" x="165.441" y="-53.1577" width="235.132" height="235.132" filterUnits="userSpaceOnUse" color-interpolation-filters="sRGB">
<feFlood flood-opacity="0" result="BackgroundImageFix"/>
<feGaussianBlur in="BackgroundImageFix" stdDeviation="50"/>
<feComposite in2="SourceAlpha" operator="in" result="effect1_backgroundBlur_11545_272"/>
<feBlend mode="normal" in="SourceGraphic" in2="effect1_backgroundBlur_11545_272" result="shape"/>
</filter>
<filter id="filter1_b_11545_272" x="87.3698" y="-53.1577" width="235.132" height="235.132" filterUnits="userSpaceOnUse" color-interpolation-filters="sRGB">
<feFlood flood-opacity="0" result="BackgroundImageFix"/>
<feGaussianBlur in="BackgroundImageFix" stdDeviation="50"/>
<feComposite in2="SourceAlpha" operator="in" result="effect1_backgroundBlur_11545_272"/>
<feBlend mode="normal" in="SourceGraphic" in2="effect1_backgroundBlur_11545_272" result="shape"/>
</filter>
</defs>
</svg>
