<svg width="41" height="40" viewBox="0 0 41 40" fill="none" xmlns="http://www.w3.org/2000/svg">
<rect x="0.666626" width="40" height="40" rx="20" fill="#ECEEF2" fill-opacity="0.1"/>
<rect x="0.916626" y="0.25" width="39.5" height="39.5" rx="19.75" stroke="#D5D9E2" stroke-opacity="0.5" stroke-width="0.5"/>
<path d="M22.6666 20H18.6666V18H22.6666M22.6666 24H18.6666V22H22.6666M28.6666 16H25.8566C25.4052 15.218 24.783 14.5481 24.0366 14.04L25.6666 12.41L24.2566 11L22.0866 13.17C21.1568 12.9443 20.1865 12.9443 19.2566 13.17L17.0766 11L15.6666 12.41L17.2866 14.04C16.5466 14.55 15.9266 15.22 15.4766 16H12.6666V18H14.7566C14.7066 18.33 14.6666 18.66 14.6666 19V20H12.6666V22H14.6666V23C14.6666 23.34 14.7066 23.67 14.7566 24H12.6666V26H15.4766C16.5166 27.79 18.4466 29 20.6666 29C22.8866 29 24.8166 27.79 25.8566 26H28.6666V24H26.5766C26.6266 23.67 26.6666 23.34 26.6666 23V22H28.6666V20H26.6666V19C26.6666 18.66 26.6266 18.33 26.5766 18H28.6666V16Z" fill="#63ECFF"/>
</svg>
