<svg width="427" height="542" viewBox="0 0 427 542" fill="none" xmlns="http://www.w3.org/2000/svg">
<g opacity="0.5">
<path d="M264.72 0.00443109C242.626 0.107093 221.526 1.9914 202.961 5.27653C148.27 14.9386 138.34 35.1623 138.34 72.4581V121.715H267.582V138.133H138.34H89.8367C52.2755 138.133 19.3858 160.71 9.0983 203.658C-2.76817 252.887 -3.29451 283.606 9.0983 335.009C18.2853 373.271 40.225 400.533 77.7862 400.533H122.222V341.486C122.222 298.827 159.131 261.199 202.961 261.199H332.052C367.986 261.199 396.673 231.612 396.673 195.524V72.4581C396.673 37.4329 367.125 11.1221 332.052 5.27653C309.85 1.58076 286.814 -0.0982311 264.72 0.00443109ZM194.827 39.6205C208.177 39.6205 219.078 50.7004 219.078 64.324C219.078 77.8993 208.177 88.8769 194.827 88.8769C181.429 88.8769 170.575 77.8993 170.575 64.324C170.575 50.7004 181.429 39.6205 194.827 39.6205Z" fill="#A449F2" fill-opacity="0.3"/>
<path d="M412.79 138.134V195.524C412.79 240.018 375.068 277.468 332.052 277.468H202.961C167.601 277.468 138.34 307.731 138.34 343.143V466.209C138.34 501.234 168.797 521.836 202.961 531.884C243.871 543.914 283.103 546.088 332.052 531.884C364.589 522.464 396.673 503.505 396.673 466.209V416.952H267.582V400.534H396.673H461.294C498.855 400.534 512.852 374.334 525.914 335.009C539.408 294.525 538.834 255.592 525.914 203.658C516.632 166.266 498.903 138.134 461.294 138.134H412.79ZM340.186 449.79C353.584 449.79 364.438 460.768 364.438 474.343C364.438 487.967 353.584 499.047 340.186 499.047C326.836 499.047 315.934 487.967 315.934 474.343C315.934 460.768 326.836 449.79 340.186 449.79Z" fill="#A449F2" fill-opacity="0.3"/>
</g>
</svg>
