<svg width="24" height="24" viewBox="0 0 24 24" fill="none" xmlns="http://www.w3.org/2000/svg">
<path d="M12.0049 2L3.00988 9.18917V12.4125C5.79901 10.735 12.2512 8.1375 15.1705 7.4C15.2611 7.38 15.3023 7.40417 15.3575 7.465C15.6639 7.82083 16.6639 9.0475 16.9358 9.3825C16.9461 9.39423 16.9537 9.40813 16.9581 9.42319C16.9625 9.43825 16.9636 9.45411 16.9612 9.46963C16.9588 9.48516 16.9531 9.49996 16.9444 9.51299C16.9358 9.52602 16.9244 9.53695 16.911 9.545C14.8926 11.154 13.0506 12.9775 11.4168 14.9842C11.3921 15.015 11.4119 15.02 11.4267 15.0092C13.603 14.0642 18.6985 12.5592 21 12.1325V9.18917L12.0049 2ZM11.6096 11.3142C9.85008 11.9042 4.85914 14.07 3 15.1275V22H21V15.3867C18.5371 15.8083 11.196 18.02 7.8542 19.7583C7.82422 19.7768 7.78873 19.784 7.75403 19.7785C7.71934 19.773 7.6877 19.7552 7.66474 19.7283L5.98105 17.7042C5.93575 17.6533 5.92998 17.6225 5.99012 17.5308C7.28666 15.6142 9.93493 12.615 11.6186 11.3492C11.6532 11.3242 11.6442 11.2992 11.6087 11.3142H11.6096Z" fill="#C9C9C9"/>
</svg>
