<svg width="416" height="312" viewBox="0 0 416 312" fill="none" xmlns="http://www.w3.org/2000/svg">
<path d="M0.5 24C0.5 11.0213 11.0213 0.5 24 0.5H392C404.979 0.5 415.5 11.0213 415.5 24V288C415.5 300.979 404.979 311.5 392 311.5H24C11.0213 311.5 0.5 300.979 0.5 288V24Z" fill="#A449F2" fill-opacity="0.1"/>
<path d="M0.5 24C0.5 11.0213 11.0213 0.5 24 0.5H392C404.979 0.5 415.5 11.0213 415.5 24V288C415.5 300.979 404.979 311.5 392 311.5H24C11.0213 311.5 0.5 300.979 0.5 288V24Z" stroke="#4E4D5D"/>
<rect x="203" y="76" width="24" height="25" fill="#2972FF"/>
<path d="M0 8C0 3.58172 3.58172 0 8 0H408C412.418 0 416 3.58172 416 8V61H0V8Z" fill="white" fill-opacity="0.2"/>
<circle cx="21.6268" cy="29.4998" r="5.62676" fill="#F44336"/>
<circle cx="39.5" cy="29.4998" r="5.62676" fill="#FFC107"/>
<circle cx="57.3732" cy="29.4998" r="5.62676" fill="#4CAF50"/>
<path d="M124.486 29.3089V34.7271H121.887V25.3551H124.364V27.0087H124.474C124.681 26.4636 125.029 26.0324 125.517 25.7151C126.005 25.3938 126.597 25.2331 127.292 25.2331C127.943 25.2331 128.511 25.3755 128.995 25.6602C129.479 25.945 129.855 26.3517 130.124 26.8805C130.392 27.4053 130.526 28.0317 130.526 28.7598V34.7271H127.927V29.2235C127.931 28.65 127.785 28.2025 127.488 27.8812C127.191 27.5558 126.782 27.3931 126.261 27.3931C125.911 27.3931 125.602 27.4683 125.334 27.6188C125.069 27.7693 124.862 27.989 124.712 28.2778C124.565 28.5625 124.49 28.9062 124.486 29.3089ZM132.575 34.7271V25.3551H135.174V34.7271H132.575ZM133.881 24.1471C133.494 24.1471 133.163 24.0189 132.886 23.7627C132.613 23.5023 132.477 23.1912 132.477 22.8291C132.477 22.4712 132.613 22.1641 132.886 21.9078C133.163 21.6475 133.494 21.5173 133.881 21.5173C134.267 21.5173 134.596 21.6475 134.869 21.9078C135.146 22.1641 135.284 22.4712 135.284 22.8291C135.284 23.1912 135.146 23.5023 134.869 23.7627C134.596 24.0189 134.267 24.1471 133.881 24.1471ZM141.491 34.9101C140.531 34.9101 139.705 34.7067 139.013 34.2999C138.326 33.8891 137.797 33.3196 137.427 32.5915C137.061 31.8634 136.878 31.0255 136.878 30.0777C136.878 29.1177 137.063 28.2757 137.433 27.5517C137.807 26.8236 138.338 26.2561 139.026 25.8494C139.713 25.4385 140.531 25.2331 141.478 25.2331C142.296 25.2331 143.012 25.3816 143.626 25.6785C144.24 25.9755 144.726 26.3924 145.084 26.9293C145.442 27.4663 145.64 28.0968 145.676 28.8208H143.223C143.154 28.353 142.971 27.9768 142.674 27.692C142.381 27.4032 141.997 27.2588 141.521 27.2588C141.118 27.2588 140.767 27.3686 140.466 27.5883C140.169 27.8039 139.937 28.1191 139.77 28.534C139.603 28.9489 139.52 29.4513 139.52 30.0411C139.52 30.639 139.601 31.1475 139.764 31.5665C139.931 31.9854 140.165 32.3048 140.466 32.5244C140.767 32.7441 141.118 32.8539 141.521 32.8539C141.818 32.8539 142.085 32.7929 142.32 32.6708C142.56 32.5488 142.758 32.3719 142.912 32.14C143.071 31.9041 143.175 31.6214 143.223 31.2919H145.676C145.636 32.0078 145.44 32.6383 145.091 33.1834C144.745 33.7244 144.267 34.1474 143.657 34.4525C143.047 34.7576 142.324 34.9101 141.491 34.9101ZM149.696 32.0302L149.702 28.9123H150.08L153.082 25.3551H156.066L152.032 30.0655H151.416L149.696 32.0302ZM147.34 34.7271V22.2312H149.94V34.7271H147.34ZM153.198 34.7271L150.44 30.6451L152.173 28.8086L156.243 34.7271H153.198ZM161.177 38.4368C160.335 38.4368 159.613 38.3208 159.011 38.089C158.413 37.8612 157.937 37.55 157.583 37.1554C157.229 36.7609 157 36.3175 156.894 35.8253L159.298 35.5019C159.371 35.6891 159.487 35.864 159.646 36.0267C159.804 36.1894 160.014 36.3195 160.274 36.4172C160.538 36.5189 160.86 36.5697 161.238 36.5697C161.804 36.5697 162.269 36.4314 162.635 36.1548C163.006 35.8823 163.191 35.4247 163.191 34.782V33.0674H163.081C162.967 33.3278 162.796 33.5739 162.568 33.8057C162.34 34.0376 162.048 34.2267 161.69 34.3732C161.332 34.5196 160.905 34.5928 160.408 34.5928C159.705 34.5928 159.064 34.4301 158.486 34.1047C157.913 33.7752 157.455 33.2729 157.114 32.5976C156.776 31.9183 156.607 31.0601 156.607 30.0228C156.607 28.9611 156.78 28.0744 157.126 27.3625C157.471 26.6507 157.931 26.1178 158.505 25.764C159.082 25.4101 159.715 25.2331 160.402 25.2331C160.927 25.2331 161.366 25.3226 161.72 25.5016C162.074 25.6765 162.359 25.8961 162.574 26.1605C162.794 26.4209 162.963 26.6771 163.081 26.9293H163.178V25.3551H165.759V34.8186C165.759 35.6158 165.564 36.2829 165.174 36.8199C164.783 37.3568 164.242 37.7595 163.551 38.028C162.863 38.3005 162.072 38.4368 161.177 38.4368ZM161.232 32.6403C161.651 32.6403 162.005 32.5366 162.294 32.3292C162.587 32.1176 162.81 31.8166 162.965 31.4261C163.123 31.0316 163.203 30.5597 163.203 30.0106C163.203 29.4615 163.126 28.9855 162.971 28.5828C162.816 28.1761 162.593 27.8608 162.3 27.6371C162.007 27.4134 161.651 27.3015 161.232 27.3015C160.805 27.3015 160.445 27.4175 160.152 27.6493C159.859 27.8771 159.637 28.1944 159.487 28.6011C159.336 29.0079 159.261 29.4777 159.261 30.0106C159.261 30.5516 159.336 31.0194 159.487 31.4139C159.642 31.8044 159.863 32.1075 160.152 32.3231C160.445 32.5346 160.805 32.6403 161.232 32.6403ZM167.828 34.7271V25.3551H170.348V26.9904H170.445C170.616 26.4087 170.903 25.9694 171.306 25.6724C171.708 25.3714 172.172 25.2209 172.697 25.2209C172.827 25.2209 172.967 25.2291 173.118 25.2453C173.268 25.2616 173.4 25.284 173.514 25.3124V27.6188C173.392 27.5822 173.223 27.5497 173.008 27.5212C172.792 27.4927 172.595 27.4785 172.416 27.4785C172.034 27.4785 171.692 27.5619 171.391 27.7286C171.094 27.8913 170.858 28.1191 170.683 28.412C170.512 28.7049 170.427 29.0425 170.427 29.4248V34.7271H167.828ZM178.693 34.9101C177.729 34.9101 176.899 34.7148 176.204 34.3244C175.512 33.9298 174.979 33.3725 174.605 32.6525C174.231 31.9285 174.044 31.0723 174.044 30.0838C174.044 29.1198 174.231 28.2737 174.605 27.5456C174.979 26.8175 175.506 26.25 176.185 25.8433C176.869 25.4365 177.67 25.2331 178.589 25.2331C179.208 25.2331 179.783 25.3328 180.316 25.5321C180.853 25.7273 181.321 26.0222 181.719 26.4168C182.122 26.8114 182.435 27.3076 182.659 27.9056C182.883 28.4995 182.995 29.195 182.995 29.9923V30.7062H175.081V29.0954H180.548C180.548 28.7211 180.466 28.3896 180.304 28.1008C180.141 27.812 179.915 27.5863 179.627 27.4236C179.342 27.2568 179.01 27.1734 178.632 27.1734C178.237 27.1734 177.888 27.2649 177.583 27.448C177.282 27.6269 177.046 27.869 176.875 28.174C176.704 28.475 176.616 28.8106 176.612 29.1808V30.7123C176.612 31.176 176.698 31.5766 176.869 31.9143C177.044 32.2519 177.29 32.5122 177.607 32.6953C177.924 32.8783 178.3 32.9698 178.736 32.9698C179.024 32.9698 179.289 32.9291 179.529 32.8478C179.769 32.7664 179.974 32.6444 180.145 32.4817C180.316 32.319 180.446 32.1197 180.536 31.8838L182.94 32.0424C182.818 32.62 182.567 33.1244 182.189 33.5556C181.815 33.9827 181.331 34.3162 180.737 34.5562C180.147 34.7921 179.466 34.9101 178.693 34.9101ZM188.913 38.4368C188.071 38.4368 187.349 38.3208 186.747 38.089C186.149 37.8612 185.673 37.55 185.319 37.1554C184.965 36.7609 184.736 36.3175 184.63 35.8253L187.034 35.5019C187.107 35.6891 187.223 35.864 187.382 36.0267C187.54 36.1894 187.75 36.3195 188.01 36.4172C188.274 36.5189 188.596 36.5697 188.974 36.5697C189.539 36.5697 190.005 36.4314 190.371 36.1548C190.741 35.8823 190.926 35.4247 190.926 34.782V33.0674H190.817C190.703 33.3278 190.532 33.5739 190.304 33.8057C190.076 34.0376 189.783 34.2267 189.426 34.3732C189.068 34.5196 188.64 34.5928 188.144 34.5928C187.44 34.5928 186.8 34.4301 186.222 34.1047C185.649 33.7752 185.191 33.2729 184.849 32.5976C184.512 31.9183 184.343 31.0601 184.343 30.0228C184.343 28.9611 184.516 28.0744 184.862 27.3625C185.207 26.6507 185.667 26.1178 186.241 25.764C186.818 25.4101 187.451 25.2331 188.138 25.2331C188.663 25.2331 189.102 25.3226 189.456 25.5016C189.81 25.6765 190.095 25.8961 190.31 26.1605C190.53 26.4209 190.699 26.6771 190.817 26.9293H190.914V25.3551H193.495V34.8186C193.495 35.6158 193.3 36.2829 192.909 36.8199C192.519 37.3568 191.978 37.7595 191.286 38.028C190.599 38.3005 189.808 38.4368 188.913 38.4368ZM188.968 32.6403C189.387 32.6403 189.741 32.5366 190.03 32.3292C190.322 32.1176 190.546 31.8166 190.701 31.4261C190.859 31.0316 190.939 30.5597 190.939 30.0106C190.939 29.4615 190.861 28.9855 190.707 28.5828C190.552 28.1761 190.329 27.8608 190.036 27.6371C189.743 27.4134 189.387 27.3015 188.968 27.3015C188.541 27.3015 188.181 27.4175 187.888 27.6493C187.595 27.8771 187.373 28.1944 187.223 28.6011C187.072 29.0079 186.997 29.4777 186.997 30.0106C186.997 30.5516 187.072 31.0194 187.223 31.4139C187.377 31.8044 187.599 32.1075 187.888 32.3231C188.181 32.5346 188.541 32.6403 188.968 32.6403ZM199.798 34.9101C198.85 34.9101 198.031 34.7087 197.339 34.306C196.652 33.8993 196.121 33.3339 195.747 32.6098C195.372 31.8817 195.185 31.0377 195.185 30.0777C195.185 29.1096 195.372 28.2635 195.747 27.5395C196.121 26.8114 196.652 26.246 197.339 25.8433C198.031 25.4365 198.85 25.2331 199.798 25.2331C200.746 25.2331 201.563 25.4365 202.251 25.8433C202.942 26.246 203.475 26.8114 203.849 27.5395C204.224 28.2635 204.411 29.1096 204.411 30.0777C204.411 31.0377 204.224 31.8817 203.849 32.6098C203.475 33.3339 202.942 33.8993 202.251 34.306C201.563 34.7087 200.746 34.9101 199.798 34.9101ZM199.81 32.8966C200.241 32.8966 200.601 32.7746 200.89 32.5305C201.179 32.2824 201.397 31.9448 201.543 31.5177C201.694 31.0906 201.769 30.6045 201.769 30.0594C201.769 29.5143 201.694 29.0283 201.543 28.6011C201.397 28.174 201.179 27.8364 200.89 27.5883C200.601 27.3402 200.241 27.2161 199.81 27.2161C199.375 27.2161 199.009 27.3402 198.712 27.5883C198.419 27.8364 198.197 28.174 198.047 28.6011C197.9 29.0283 197.827 29.5143 197.827 30.0594C197.827 30.6045 197.9 31.0906 198.047 31.5177C198.197 31.9448 198.419 32.2824 198.712 32.5305C199.009 32.7746 199.375 32.8966 199.81 32.8966ZM206.101 34.7271V25.3551H208.621V26.9904H208.718C208.889 26.4087 209.176 25.9694 209.579 25.6724C209.981 25.3714 210.445 25.2209 210.97 25.2209C211.1 25.2209 211.24 25.2291 211.391 25.2453C211.541 25.2616 211.674 25.284 211.788 25.3124V27.6188C211.665 27.5822 211.497 27.5497 211.281 27.5212C211.065 27.4927 210.868 27.4785 210.689 27.4785C210.307 27.4785 209.965 27.5619 209.664 27.7286C209.367 27.8913 209.131 28.1191 208.956 28.412C208.786 28.7049 208.7 29.0425 208.7 29.4248V34.7271H206.101ZM215.021 38.2415C214.692 38.2415 214.383 38.2151 214.094 38.1622C213.809 38.1134 213.573 38.0503 213.386 37.973L213.972 36.0328C214.277 36.1263 214.551 36.1772 214.796 36.1853C215.044 36.1934 215.257 36.1365 215.436 36.0145C215.619 35.8924 215.768 35.685 215.882 35.3921L216.034 34.9955L212.672 25.3551H215.406L217.346 32.2376H217.444L219.402 25.3551H222.154L218.511 35.7399C218.336 36.2443 218.098 36.6836 217.797 37.0578C217.501 37.4361 217.124 37.727 216.669 37.9303C216.213 38.1378 215.664 38.2415 215.021 38.2415ZM231.666 38.3269C230.369 38.3269 229.213 38.15 228.201 37.7961C227.188 37.4463 226.331 36.9317 225.632 36.2524C224.932 35.5772 224.399 34.7515 224.033 33.7752C223.667 32.799 223.484 31.6885 223.484 30.4438C223.484 29.2154 223.667 28.1008 224.033 27.1002C224.403 26.0995 224.942 25.2413 225.65 24.5253C226.358 23.8054 227.222 23.2522 228.243 22.8657C229.268 22.4793 230.436 22.2861 231.746 22.2861C232.958 22.2861 234.04 22.463 234.992 22.8169C235.947 23.1708 236.757 23.6752 237.42 24.3301C238.087 24.9809 238.593 25.7558 238.939 26.6548C239.289 27.5497 239.462 28.5401 239.458 29.6262C239.462 30.3746 239.397 31.0621 239.263 31.6885C239.128 32.3149 238.917 32.862 238.628 33.3298C238.343 33.7935 237.969 34.1616 237.505 34.4342C237.042 34.7026 236.48 34.8552 235.821 34.8918C235.349 34.9284 234.967 34.8938 234.674 34.7881C234.381 34.6823 234.158 34.5257 234.003 34.3183C233.853 34.1067 233.755 33.8606 233.71 33.58H233.637C233.539 33.824 233.348 34.0457 233.063 34.245C232.779 34.4403 232.431 34.5928 232.02 34.7026C231.613 34.8084 231.18 34.847 230.72 34.8186C230.24 34.7901 229.785 34.6782 229.354 34.483C228.927 34.2877 228.546 34.005 228.213 33.6349C227.883 33.2647 227.623 32.8071 227.432 32.262C227.245 31.717 227.149 31.0865 227.145 30.3706C227.149 29.6628 227.249 29.0466 227.444 28.5218C227.643 27.9971 227.906 27.5558 228.231 27.1978C228.561 26.8398 228.927 26.5592 229.329 26.3558C229.732 26.1524 230.137 26.0222 230.544 25.9653C231.003 25.8961 231.438 25.8961 231.849 25.9653C232.26 26.0345 232.606 26.1463 232.886 26.3009C233.171 26.4555 233.348 26.6222 233.417 26.8012H233.503V26.1178H235.413V32.0729C235.417 32.3536 235.48 32.5712 235.602 32.7258C235.724 32.8803 235.888 32.9576 236.096 32.9576C236.377 32.9576 236.61 32.8336 236.798 32.5854C236.989 32.3373 237.131 31.957 237.225 31.4444C237.322 30.9319 237.371 30.2791 237.371 29.4859C237.371 28.7211 237.269 28.05 237.066 27.4724C236.867 26.8907 236.586 26.3965 236.224 25.9897C235.866 25.5789 235.449 25.2453 234.973 24.9891C234.497 24.7328 233.981 24.5457 233.423 24.4277C232.87 24.3098 232.301 24.2508 231.715 24.2508C230.702 24.2508 229.817 24.4053 229.061 24.7145C228.304 25.0196 227.674 25.4487 227.169 26.0019C226.665 26.5551 226.287 27.2039 226.035 27.9483C225.786 28.6886 225.66 29.496 225.656 30.3706C225.66 31.3346 225.795 32.1888 226.059 32.9332C226.327 33.6735 226.722 34.2959 227.243 34.8003C227.763 35.3047 228.406 35.687 229.171 35.9474C229.935 36.2077 230.814 36.3378 231.807 36.3378C232.274 36.3378 232.732 36.3033 233.179 36.2341C233.627 36.169 234.032 36.0877 234.394 35.9901C234.756 35.8965 235.046 35.805 235.266 35.7155L235.87 37.4849C235.614 37.6314 235.266 37.7676 234.827 37.8937C234.392 38.0239 233.899 38.1276 233.35 38.2049C232.805 38.2863 232.244 38.3269 231.666 38.3269ZM231.386 32.8112C231.882 32.8112 232.276 32.7156 232.569 32.5244C232.866 32.3332 233.078 32.0505 233.204 31.6763C233.334 31.298 233.395 30.8323 233.387 30.2791C233.383 29.7909 233.32 29.3781 233.198 29.0405C233.08 28.6988 232.874 28.4405 232.581 28.2656C232.293 28.0866 231.89 27.9971 231.373 27.9971C230.922 27.9971 230.537 28.0927 230.22 28.2839C229.907 28.475 229.667 28.7435 229.5 29.0893C229.337 29.431 229.254 29.8336 229.25 30.2974C229.254 30.7285 229.323 31.1373 229.457 31.5238C229.592 31.9061 229.813 32.2173 230.123 32.4573C230.432 32.6932 230.853 32.8112 231.386 32.8112ZM241.235 22.2312H244.493L247.934 30.6268H248.081L251.522 22.2312H254.78V34.7271H252.218V26.5938H252.114L248.88 34.666H247.135L243.901 26.5632H243.797V34.7271H241.235V22.2312ZM256.957 34.7271V22.2312H261.96C262.879 22.2312 263.646 22.3674 264.26 22.64C264.875 22.9125 265.336 23.2908 265.645 23.7749C265.955 24.2548 266.109 24.808 266.109 25.4345C266.109 25.9226 266.012 26.3517 265.816 26.7219C265.621 27.088 265.353 27.389 265.011 27.6249C264.673 27.8568 264.287 28.0215 263.852 28.1191V28.2412C264.328 28.2615 264.773 28.3957 265.188 28.6439C265.607 28.892 265.946 29.2398 266.207 29.6872C266.467 30.1306 266.597 30.6594 266.597 31.2736C266.597 31.9366 266.433 32.5285 266.103 33.0491C265.778 33.5657 265.296 33.9745 264.657 34.2755C264.018 34.5765 263.231 34.7271 262.296 34.7271H256.957ZM259.599 32.5671H261.753C262.489 32.5671 263.026 32.4268 263.363 32.1461C263.701 31.8614 263.87 31.4831 263.87 31.0112C263.87 30.6655 263.787 30.3604 263.62 30.096C263.453 29.8316 263.215 29.6242 262.906 29.4737C262.601 29.3232 262.237 29.2479 261.814 29.2479H259.599V32.5671ZM259.599 27.4602H261.557C261.919 27.4602 262.241 27.3971 262.521 27.271C262.806 27.1409 263.03 26.9578 263.193 26.7219C263.359 26.486 263.443 26.2033 263.443 25.8738C263.443 25.4223 263.282 25.0582 262.961 24.7816C262.643 24.505 262.192 24.3667 261.606 24.3667H259.599V27.4602ZM268.316 34.7271V22.2312H273.246C274.194 22.2312 275.002 22.4122 275.669 22.7742C276.336 23.1322 276.844 23.6305 277.194 24.2691C277.548 24.9036 277.725 25.6358 277.725 26.4656C277.725 27.2954 277.546 28.0276 277.188 28.6622C276.83 29.2967 276.311 29.7909 275.632 30.1448C274.957 30.4987 274.139 30.6757 273.179 30.6757H270.037V28.5584H272.752C273.261 28.5584 273.68 28.471 274.009 28.2961C274.343 28.1171 274.591 27.871 274.753 27.5578C274.92 27.2405 275.004 26.8765 275.004 26.4656C275.004 26.0507 274.92 25.6887 274.753 25.3796C274.591 25.0663 274.343 24.8243 274.009 24.6535C273.676 24.4786 273.252 24.3911 272.74 24.3911H270.958V34.7271H268.316ZM280.911 33.2749C280.509 33.2749 280.163 33.1325 279.874 32.8478C279.589 32.5631 279.447 32.2173 279.447 31.8105C279.447 31.4119 279.589 31.0702 279.874 30.7855C280.163 30.5007 280.509 30.3584 280.911 30.3584C281.302 30.3584 281.644 30.5007 281.936 30.7855C282.229 31.0702 282.376 31.4119 282.376 31.8105C282.376 32.079 282.307 32.3251 282.168 32.5488C282.034 32.7685 281.857 32.9454 281.637 33.0796C281.418 33.2098 281.176 33.2749 280.911 33.2749ZM280.911 27.1429C280.509 27.1429 280.163 27.0005 279.874 26.7158C279.589 26.431 279.447 26.0853 279.447 25.6785C279.447 25.2799 279.589 24.9402 279.874 24.6596C280.163 24.3748 280.509 24.2325 280.911 24.2325C281.302 24.2325 281.644 24.3748 281.936 24.6596C282.229 24.9402 282.376 25.2799 282.376 25.6785C282.376 25.9511 282.307 26.1992 282.168 26.4229C282.034 26.6426 281.857 26.8175 281.637 26.9476C281.418 27.0778 281.176 27.1429 280.911 27.1429ZM284.784 30.1326C284.76 29.3638 284.853 28.713 285.065 28.1801C285.276 27.6473 285.584 27.2425 285.986 26.9659C286.393 26.6893 286.871 26.551 287.42 26.551C287.803 26.551 288.169 26.6304 288.518 26.789C288.868 26.9476 289.265 27.2222 289.708 27.6127C289.944 27.8202 290.143 27.9788 290.306 28.0886C290.469 28.1944 290.656 28.2473 290.868 28.2473C291.156 28.2473 291.394 28.1354 291.581 27.9117C291.768 27.6839 291.856 27.3239 291.844 26.8317H293.833C293.861 27.6046 293.768 28.2574 293.552 28.7903C293.337 29.3232 293.025 29.7279 292.619 30.0045C292.212 30.2811 291.738 30.4194 291.197 30.4194C290.794 30.4194 290.416 30.336 290.062 30.1692C289.712 29.9984 289.324 29.7259 288.897 29.3516C288.645 29.1279 288.443 28.9672 288.293 28.8696C288.142 28.7679 287.963 28.7171 287.756 28.7171C287.467 28.7171 287.229 28.8269 287.042 29.0466C286.855 29.2621 286.767 29.6242 286.78 30.1326H284.784Z" fill="white" fill-opacity="0.786"/>
<path d="M21.9808 95V84.6231H23.39L23.5181 86.0619C23.9386 85.5297 24.4641 85.1224 25.0948 84.8399C25.7321 84.5508 26.3496 84.4063 26.9475 84.4063C27.9658 84.4063 28.7049 84.6757 29.1648 85.2144C29.6312 85.7531 29.8645 86.5021 29.8645 87.4612V95H28.2089V88.6832C28.2089 87.9737 28.1695 87.4021 28.0906 86.9685C28.0118 86.5283 27.8475 86.2097 27.5979 86.0126C27.3482 85.8089 26.9606 85.7071 26.4351 85.7071C26.0277 85.7071 25.6434 85.7958 25.2821 85.9732C24.9273 86.1506 24.6087 86.3739 24.3262 86.6433C24.0502 86.9061 23.8203 87.1722 23.6363 87.4415V95H21.9808ZM39.0511 84.6231V93.6893H41.9779V95H34.1928V93.6893H37.3955V85.9338H34.2913V84.6231H39.0511ZM37.7306 79.7648C38.0985 79.7648 38.3908 79.8765 38.6076 80.0998C38.831 80.3232 38.9427 80.5959 38.9427 80.9178C38.9427 81.2528 38.831 81.5353 38.6076 81.7653C38.3908 81.9886 38.0985 82.1003 37.7306 82.1003C37.3824 82.1003 37.0966 81.9886 36.8732 81.7653C36.6499 81.5353 36.5382 81.2528 36.5382 80.9178C36.5382 80.5959 36.6499 80.3232 36.8732 80.0998C37.0966 79.8765 37.3824 79.7648 37.7306 79.7648ZM50.3072 93.7977C50.8262 93.7977 51.3091 93.7123 51.7558 93.5415C52.2091 93.3707 52.6263 93.1539 53.0074 92.8911L53.8154 93.9751C53.3621 94.3627 52.8168 94.6682 52.1796 94.8916C51.5423 95.115 50.9182 95.2267 50.3072 95.2267C49.2758 95.2267 48.3954 95.0066 47.6662 94.5664C46.9435 94.1197 46.3916 93.4955 46.0106 92.694C45.6296 91.8859 45.439 90.9399 45.439 89.8559C45.439 88.8179 45.6296 87.8883 46.0106 87.067C46.3982 86.2393 46.9534 85.5889 47.676 85.1158C48.4053 84.6428 49.2889 84.4063 50.3269 84.4063C50.9905 84.4063 51.6113 84.5081 52.1894 84.7118C52.7741 84.9089 53.3096 85.2078 53.7957 85.6086L52.9877 86.7123C52.5475 86.4035 52.104 86.1736 51.6573 86.0225C51.2171 85.8648 50.7671 85.786 50.3072 85.786C49.4137 85.786 48.6779 86.121 48.0998 86.7911C47.5216 87.4612 47.2326 88.4828 47.2326 89.8559C47.2326 90.7757 47.364 91.5279 47.6267 92.1126C47.8961 92.6907 48.2607 93.1178 48.7206 93.3937C49.1871 93.6631 49.7159 93.7977 50.3072 93.7977ZM66.126 84.6231L61.4549 89.2942L66.668 95H64.4901L59.3854 89.3336L63.9777 84.6231H66.126ZM59.1982 80.2378V95H57.5426V80.4448L59.1982 80.2378ZM77.6876 83.5194L78.2 85.0764C77.7599 85.2144 77.2901 85.2998 76.7908 85.3326C76.2915 85.3655 75.7495 85.3819 75.1648 85.3819C75.7627 85.6578 76.2127 86.0159 76.5149 86.4561C76.8171 86.8897 76.9682 87.4021 76.9682 87.9934C76.9682 88.6766 76.8138 89.2843 76.505 89.8165C76.1963 90.3486 75.7495 90.7658 75.1648 91.068C74.5867 91.3702 73.887 91.5213 73.0658 91.5213C72.7176 91.5213 72.4252 91.5049 72.1887 91.4721C71.9588 91.4392 71.7354 91.3899 71.5186 91.3242C71.3609 91.4294 71.2295 91.5739 71.1244 91.7578C71.0259 91.9418 70.9766 92.1323 70.9766 92.3294C70.9766 92.5791 71.0751 92.786 71.2722 92.9502C71.4693 93.1145 71.834 93.1966 72.3661 93.1966H74.2385C74.9349 93.1966 75.559 93.3214 76.1108 93.5711C76.6693 93.8207 77.1062 94.1558 77.4215 94.5763C77.7434 94.9967 77.9044 95.4763 77.9044 96.015C77.9044 97.0333 77.4708 97.8151 76.6036 98.3604C75.7429 98.9057 74.5243 99.1783 72.9475 99.1783C71.8438 99.1783 70.9733 99.0634 70.3361 98.8334C69.6988 98.6101 69.2422 98.2652 68.9663 97.7987C68.6969 97.3388 68.5622 96.7574 68.5622 96.0544H70.0601C70.0601 96.4552 70.139 96.787 70.2966 97.0498C70.4543 97.3125 70.7401 97.5064 71.154 97.6312C71.5679 97.7626 72.1624 97.8283 72.9377 97.8283C73.6998 97.8283 74.3206 97.7626 74.8002 97.6312C75.2863 97.5064 75.6444 97.3158 75.8743 97.0596C76.1108 96.81 76.2291 96.4979 76.2291 96.1234C76.2291 95.6307 76.0057 95.2595 75.559 95.0099C75.1123 94.7602 74.5538 94.6354 73.8837 94.6354H72.031C71.1376 94.6354 70.4773 94.4383 70.0503 94.0441C69.6298 93.6499 69.4196 93.1966 69.4196 92.6842C69.4196 92.3491 69.5148 92.0239 69.7054 91.7086C69.9025 91.3932 70.1882 91.114 70.5627 90.8709C69.9649 90.5556 69.5247 90.1647 69.2422 89.6982C68.9597 89.2318 68.8184 88.6668 68.8184 88.0032C68.8184 87.3003 68.9925 86.6794 69.3407 86.1407C69.6889 85.5954 70.1751 85.1684 70.7992 84.8596C71.4233 84.5508 72.1427 84.3965 72.9574 84.3965C73.8312 84.3899 74.5407 84.3537 75.086 84.2881C75.6313 84.2158 76.0977 84.114 76.4853 83.9826C76.8795 83.8512 77.2803 83.6968 77.6876 83.5194ZM72.9574 85.6086C72.123 85.6086 71.5055 85.8352 71.1047 86.2885C70.7105 86.7353 70.5134 87.3068 70.5134 88.0032C70.5134 88.7062 70.7171 89.2843 71.1244 89.7376C71.5317 90.191 72.1559 90.4176 72.9968 90.4176C73.7326 90.4176 74.291 90.2041 74.6721 89.7771C75.0597 89.35 75.2535 88.7555 75.2535 87.9934C75.2535 87.2116 75.0597 86.6203 74.6721 86.2196C74.291 85.8122 73.7195 85.6086 72.9574 85.6086ZM81.1684 95V93.7288H82.7846V85.8944H81.1684V84.6231H84.046L84.3514 87.0769C84.7522 86.2228 85.2384 85.5626 85.8099 85.0961C86.3815 84.6297 87.137 84.3965 88.0765 84.3965C88.3656 84.3965 88.6218 84.4194 88.8451 84.4654C89.0751 84.5049 89.3083 84.5574 89.5448 84.6231L89.0619 86.1013C88.8451 86.0422 88.6481 85.9995 88.4707 85.9732C88.2933 85.9403 88.0896 85.9239 87.8597 85.9239C87.0647 85.9239 86.3815 86.2064 85.8099 86.7714C85.2384 87.3364 84.7818 88.1905 84.4401 89.3336V93.7288H86.549V95H81.1684ZM87.9484 88.1313V85.8746L88.1159 84.6231H89.5448L89.3083 88.1313H87.9484ZM94.1885 90.3979C94.2213 91.1994 94.3757 91.8564 94.6517 92.3688C94.9276 92.8747 95.2922 93.2492 95.7455 93.4922C96.1988 93.7288 96.6916 93.847 97.2237 93.847C97.7559 93.847 98.2355 93.7682 98.6625 93.6105C99.0961 93.4528 99.5395 93.2196 99.9929 92.9108L100.771 94.0047C100.285 94.3857 99.7301 94.6847 99.1059 94.9015C98.4884 95.1183 97.8544 95.2267 97.204 95.2267C96.1988 95.2267 95.3415 95 94.632 94.5467C93.9224 94.0934 93.3804 93.4627 93.0059 92.6546C92.638 91.84 92.4541 90.8972 92.4541 89.8263C92.4541 88.7752 92.6413 87.8423 93.0158 87.0276C93.3903 86.213 93.9159 85.5724 94.5925 85.106C95.2692 84.6395 96.0674 84.4063 96.9872 84.4063C97.861 84.4063 98.6132 84.6133 99.2439 85.0271C99.8746 85.4345 100.357 86.0192 100.693 86.7813C101.034 87.5368 101.205 88.4401 101.205 89.4913C101.205 89.6687 101.202 89.8362 101.195 89.9939C101.189 90.145 101.179 90.2796 101.166 90.3979H94.1885ZM97.0069 85.7662C96.2383 85.7662 95.5944 86.0389 95.0754 86.5842C94.563 87.1295 94.2706 87.9737 94.1983 89.1168H99.6085C99.5888 88.0065 99.3457 87.1722 98.8793 86.6137C98.4128 86.0487 97.7887 85.7662 97.0069 85.7662ZM113.141 83.5194L113.653 85.0764C113.213 85.2144 112.744 85.2998 112.244 85.3326C111.745 85.3655 111.203 85.3819 110.618 85.3819C111.216 85.6578 111.666 86.0159 111.968 86.4561C112.271 86.8897 112.422 87.4021 112.422 87.9934C112.422 88.6766 112.267 89.2843 111.958 89.8165C111.65 90.3486 111.203 90.7658 110.618 91.068C110.04 91.3702 109.34 91.5213 108.519 91.5213C108.171 91.5213 107.879 91.5049 107.642 91.4721C107.412 91.4392 107.189 91.3899 106.972 91.3242C106.814 91.4294 106.683 91.5739 106.578 91.7578C106.479 91.9418 106.43 92.1323 106.43 92.3294C106.43 92.5791 106.529 92.786 106.726 92.9502C106.923 93.1145 107.287 93.1966 107.82 93.1966H109.692C110.388 93.1966 111.012 93.3214 111.564 93.5711C112.123 93.8207 112.56 94.1558 112.875 94.5763C113.197 94.9967 113.358 95.4763 113.358 96.015C113.358 97.0333 112.924 97.8151 112.057 98.3604C111.196 98.9057 109.978 99.1783 108.401 99.1783C107.297 99.1783 106.427 99.0634 105.79 98.8334C105.152 98.6101 104.696 98.2652 104.42 97.7987C104.15 97.3388 104.016 96.7574 104.016 96.0544H105.514C105.514 96.4552 105.592 96.787 105.75 97.0498C105.908 97.3125 106.194 97.5064 106.607 97.6312C107.021 97.7626 107.616 97.8283 108.391 97.8283C109.153 97.8283 109.774 97.7626 110.254 97.6312C110.74 97.5064 111.098 97.3158 111.328 97.0596C111.564 96.81 111.683 96.4979 111.683 96.1234C111.683 95.6307 111.459 95.2595 111.012 95.0099C110.566 94.7602 110.007 94.6354 109.337 94.6354H107.485C106.591 94.6354 105.931 94.4383 105.504 94.0441C105.083 93.6499 104.873 93.1966 104.873 92.6842C104.873 92.3491 104.968 92.0239 105.159 91.7086C105.356 91.3932 105.642 91.114 106.016 90.8709C105.418 90.5556 104.978 90.1647 104.696 89.6982C104.413 89.2318 104.272 88.6668 104.272 88.0032C104.272 87.3003 104.446 86.6794 104.794 86.1407C105.142 85.5954 105.629 85.1684 106.253 84.8596C106.877 84.5508 107.596 84.3965 108.411 84.3965C109.285 84.3899 109.994 84.3537 110.539 84.2881C111.085 84.2158 111.551 84.114 111.939 83.9826C112.333 83.8512 112.734 83.6968 113.141 83.5194ZM108.411 85.6086C107.576 85.6086 106.959 85.8352 106.558 86.2885C106.164 86.7353 105.967 87.3068 105.967 88.0032C105.967 88.7062 106.171 89.2843 106.578 89.7376C106.985 90.191 107.609 90.4176 108.45 90.4176C109.186 90.4176 109.744 90.2041 110.126 89.7771C110.513 89.35 110.707 88.7555 110.707 87.9934C110.707 87.2116 110.513 86.6203 110.126 86.2196C109.744 85.8122 109.173 85.6086 108.411 85.6086ZM120.475 84.4063C121.454 84.4063 122.272 84.6297 122.929 85.0764C123.592 85.5166 124.088 86.1407 124.417 86.9488C124.752 87.7569 124.919 88.7095 124.919 89.8066C124.919 90.8644 124.749 91.8005 124.407 92.6152C124.065 93.4298 123.563 94.0704 122.899 94.5368C122.242 94.9967 121.428 95.2267 120.455 95.2267C119.483 95.2267 118.665 95.0033 118.002 94.5565C117.338 94.1098 116.835 93.4824 116.494 92.6743C116.159 91.8597 115.991 90.9103 115.991 89.8263C115.991 88.7555 116.162 87.8127 116.504 86.9981C116.845 86.1834 117.348 85.5494 118.011 85.0961C118.681 84.6362 119.503 84.4063 120.475 84.4063ZM120.475 85.7564C119.582 85.7564 118.905 86.0882 118.445 86.7517C117.992 87.4087 117.765 88.4336 117.765 89.8263C117.765 91.1928 117.988 92.2079 118.435 92.8714C118.888 93.5349 119.562 93.8667 120.455 93.8667C121.349 93.8667 122.019 93.5349 122.466 92.8714C122.919 92.2079 123.146 91.1863 123.146 89.8066C123.146 88.427 122.922 87.4087 122.476 86.7517C122.029 86.0882 121.362 85.7564 120.475 85.7564ZM128.44 95V93.7288H130.056V85.8944H128.44V84.6231H131.317L131.623 87.0769C132.023 86.2228 132.51 85.5626 133.081 85.0961C133.653 84.6297 134.408 84.3965 135.348 84.3965C135.637 84.3965 135.893 84.4194 136.116 84.4654C136.346 84.5049 136.58 84.5574 136.816 84.6231L136.333 86.1013C136.116 86.0422 135.919 85.9995 135.742 85.9732C135.565 85.9403 135.361 85.9239 135.131 85.9239C134.336 85.9239 133.653 86.2064 133.081 86.7714C132.51 87.3364 132.053 88.1905 131.711 89.3336V93.7288H133.82V95H128.44ZM135.22 88.1313V85.8746L135.387 84.6231H136.816L136.58 88.1313H135.22ZM148.792 84.6231L145.145 95.069C144.902 95.7719 144.594 96.4158 144.219 97.0005C143.851 97.5852 143.368 98.0681 142.77 98.4491C142.179 98.8367 141.427 99.0765 140.514 99.1685L140.258 97.848C140.974 97.7297 141.539 97.5491 141.952 97.306C142.366 97.0629 142.692 96.7508 142.928 96.3698C143.171 95.9887 143.385 95.5321 143.569 95H143.017L139.39 84.6231H141.164L144.14 93.7386L147.077 84.6231H148.792ZM155.584 81.2134C156.602 81.2134 157.459 81.3678 158.156 81.6766C158.859 81.9788 159.43 82.396 159.87 82.9281C160.317 83.4603 160.659 84.0778 160.895 84.7808C161.138 85.4772 161.306 86.2196 161.398 87.0079C161.49 87.7897 161.536 88.5847 161.536 89.3927C161.536 91.0483 161.457 92.4247 161.299 93.5218C161.148 94.6124 160.866 95.427 160.452 95.9658C160.038 96.511 159.433 96.7837 158.638 96.7837C158.231 96.7837 157.88 96.6851 157.584 96.488C157.288 96.291 157.045 96.0413 156.855 95.7391C156.664 95.4435 156.526 95.138 156.441 94.8226C156.356 94.5007 156.316 94.2215 156.323 93.985H156.244C156.126 94.2872 155.955 94.5861 155.731 94.8817C155.515 95.1708 155.229 95.4106 154.874 95.6011C154.519 95.7982 154.079 95.8968 153.554 95.8968C152.837 95.8968 152.259 95.703 151.819 95.3153C151.386 94.9277 151.07 94.3923 150.873 93.709C150.676 93.0258 150.577 92.2506 150.577 91.3834C150.577 89.6687 150.919 88.3941 151.602 87.5598C152.286 86.7189 153.232 86.2984 154.44 86.2984C154.9 86.2984 155.34 86.3477 155.761 86.4462C156.181 86.5448 156.668 86.7418 157.219 87.0375V92.8616C157.219 93.5711 157.282 94.1131 157.407 94.4876C157.531 94.8555 157.699 95.1084 157.909 95.2464C158.119 95.3843 158.353 95.4533 158.609 95.4533C158.918 95.4533 159.157 95.2989 159.328 94.9901C159.499 94.6814 159.621 94.2511 159.693 93.6992C159.765 93.1473 159.808 92.5068 159.821 91.7775C159.834 91.0417 159.841 90.2534 159.841 89.4124C159.841 88.473 159.788 87.5959 159.683 86.7813C159.578 85.96 159.378 85.2407 159.082 84.6231C158.786 84.0056 158.359 83.5227 157.801 83.1745C157.242 82.8263 156.51 82.6522 155.603 82.6522C154.966 82.6522 154.27 82.7704 153.514 83.007C152.765 83.2369 151.97 83.7231 151.129 84.4654L150.183 83.3617C151.064 82.5931 151.964 82.0445 152.883 81.716C153.81 81.3809 154.71 81.2134 155.584 81.2134ZM154.519 87.5204C153.619 87.5204 153.005 87.8456 152.676 88.496C152.348 89.1464 152.184 90.1088 152.184 91.3834C152.184 92.0272 152.23 92.5955 152.322 93.0882C152.42 93.5744 152.584 93.9587 152.814 94.2412C153.044 94.5171 153.356 94.6551 153.751 94.6551C154.21 94.6551 154.572 94.55 154.835 94.3397C155.104 94.1295 155.308 93.8897 155.446 93.6204C155.59 93.3444 155.702 93.1112 155.781 92.9207V87.816C155.577 87.7109 155.373 87.6353 155.17 87.5893C154.973 87.5434 154.756 87.5204 154.519 87.5204ZM172.27 81.4302L173.038 95H171.392L170.969 87.9145C170.949 87.435 170.929 86.9488 170.91 86.4561C170.89 85.9633 170.877 85.4903 170.87 85.037C170.864 84.5837 170.86 84.1797 170.86 83.8249C170.86 83.4701 170.86 83.1942 170.86 82.9971L168.574 92.5659H166.859L164.406 82.9971C164.412 83.1876 164.419 83.4701 164.425 83.8446C164.432 84.2125 164.435 84.6297 164.435 85.0961C164.442 85.5626 164.438 86.0422 164.425 86.5349C164.419 87.0211 164.406 87.4744 164.386 87.8948L164.021 95H162.415L163.184 81.4302H165.568L167.766 90.7231L169.865 81.4302H172.27ZM182.461 91.1863C182.461 90.503 182.327 89.9774 182.057 89.6095C181.795 89.2351 181.443 88.9756 181.003 88.831C180.563 88.6865 180.08 88.6142 179.554 88.6142H177.238V93.5908H179.475C179.81 93.5908 180.152 93.5579 180.5 93.4922C180.848 93.4265 181.17 93.3083 181.466 93.1375C181.768 92.9667 182.008 92.7269 182.185 92.4181C182.369 92.1027 182.461 91.6921 182.461 91.1863ZM181.919 84.9385C181.919 84.1698 181.68 83.6245 181.2 83.3026C180.727 82.9741 180.08 82.8099 179.259 82.8099H177.238V87.205H179.426C180.228 87.205 180.842 87.0276 181.269 86.6729C181.703 86.3115 181.919 85.7334 181.919 84.9385ZM184.265 91.1271C184.265 91.863 184.117 92.4805 183.821 92.9798C183.532 93.4791 183.141 93.8766 182.649 94.1722C182.162 94.4679 181.617 94.6814 181.013 94.8128C180.415 94.9376 179.804 95 179.18 95H175.534V81.4302H178.874C179.472 81.4302 180.054 81.4861 180.619 81.5977C181.19 81.7029 181.703 81.8868 182.156 82.1496C182.616 82.4058 182.984 82.754 183.26 83.1942C183.536 83.6344 183.673 84.1862 183.673 84.8498C183.673 85.4345 183.552 85.9305 183.309 86.3378C183.072 86.7386 182.76 87.0605 182.373 87.3036C181.992 87.5466 181.584 87.7175 181.151 87.816C181.657 87.8948 182.146 88.0492 182.619 88.2792C183.099 88.5025 183.493 88.8442 183.802 89.304C184.11 89.7574 184.265 90.3651 184.265 91.1271ZM194.595 85.6184C194.595 84.9155 194.457 84.3603 194.181 83.953C193.905 83.5391 193.527 83.2435 193.047 83.0661C192.568 82.8821 192.019 82.7902 191.402 82.7902H189.441V88.5847H191.333C191.97 88.5847 192.532 88.4992 193.018 88.3284C193.504 88.1511 193.888 87.8488 194.171 87.4218C194.453 86.9882 194.595 86.3871 194.595 85.6184ZM196.427 85.5987C196.427 86.6564 196.201 87.5039 195.748 88.1412C195.301 88.7785 194.683 89.2416 193.895 89.5307C193.106 89.8198 192.2 89.9643 191.175 89.9643H189.441V95H187.726V81.4302H191.195C192.811 81.4302 194.085 81.7718 195.018 82.4551C195.958 83.1318 196.427 84.1797 196.427 85.5987ZM239.343 84.4063C240.263 84.4063 240.995 84.6297 241.541 85.0764C242.092 85.5232 242.49 86.1539 242.733 86.9685C242.976 87.7766 243.098 88.7226 243.098 89.8066C243.098 90.8512 242.95 91.7841 242.654 92.6053C242.365 93.42 241.925 94.0605 241.334 94.527C240.742 94.9934 239.997 95.2267 239.097 95.2267C237.96 95.2267 237.047 94.8259 236.357 94.0244V98.9714L234.702 99.1783V84.6231H236.111L236.249 86.0717C236.63 85.5396 237.083 85.129 237.609 84.8399C238.141 84.5508 238.719 84.4063 239.343 84.4063ZM238.949 85.7367C238.377 85.7367 237.871 85.9108 237.431 86.259C236.998 86.6006 236.64 86.9816 236.357 87.4021V92.5462C236.626 92.947 236.965 93.2656 237.372 93.5021C237.786 93.732 238.239 93.847 238.732 93.847C239.593 93.847 240.24 93.5185 240.673 92.8616C241.107 92.2046 241.324 91.183 241.324 89.7968C241.324 88.8901 241.238 88.1379 241.068 87.5401C240.897 86.9357 240.637 86.4856 240.289 86.19C239.941 85.8878 239.494 85.7367 238.949 85.7367ZM255.152 84.6231L251.506 95.069C251.263 95.7719 250.954 96.4158 250.579 97.0005C250.212 97.5852 249.729 98.0681 249.131 98.4491C248.54 98.8367 247.787 99.0765 246.874 99.1685L246.618 97.848C247.334 97.7297 247.899 97.5491 248.313 97.306C248.727 97.0629 249.052 96.7508 249.288 96.3698C249.532 95.9887 249.745 95.5321 249.929 95H249.377L245.751 84.6231H247.525L250.501 93.7386L253.437 84.6231H255.152ZM266.576 94.4777C266.221 94.7142 265.791 94.8982 265.285 95.0296C264.779 95.161 264.283 95.2267 263.797 95.2267C262.68 95.2267 261.819 94.9343 261.215 94.3496C260.61 93.7649 260.308 93.0127 260.308 92.0929V85.9042H257.923V84.6231H260.308V82.2679L261.964 82.0708V84.6231H265.551L265.354 85.9042H261.964V92.0732C261.964 92.6513 262.115 93.0915 262.417 93.3937C262.726 93.6959 263.235 93.847 263.944 93.847C264.332 93.847 264.69 93.801 265.019 93.709C265.347 93.6171 265.653 93.4988 265.935 93.3543L266.576 94.4777ZM271.811 80.2871V86.0422C272.218 85.4969 272.717 85.0896 273.308 84.8202C273.906 84.5443 274.511 84.4063 275.122 84.4063C276.133 84.4063 276.873 84.6757 277.339 85.2144C277.805 85.7531 278.039 86.5021 278.039 87.4612V95H276.383V87.5007C276.383 86.8765 276.239 86.4232 275.949 86.1407C275.66 85.8516 275.207 85.7071 274.59 85.7071C274.195 85.7071 273.821 85.7958 273.466 85.9732C273.111 86.1506 272.793 86.3707 272.51 86.6334C272.228 86.8962 271.994 87.1656 271.811 87.4415V95H270.155V80.4645L271.811 80.2871ZM285.924 84.4063C286.903 84.4063 287.721 84.6297 288.378 85.0764C289.042 85.5166 289.538 86.1407 289.866 86.9488C290.201 87.7569 290.369 88.7095 290.369 89.8066C290.369 90.8644 290.198 91.8005 289.856 92.6152C289.515 93.4298 289.012 94.0704 288.349 94.5368C287.692 94.9967 286.877 95.2267 285.905 95.2267C284.932 95.2267 284.115 95.0033 283.451 94.5565C282.787 94.1098 282.285 93.4824 281.943 92.6743C281.608 91.8597 281.441 90.9103 281.441 89.8263C281.441 88.7555 281.611 87.8127 281.953 86.9981C282.295 86.1834 282.797 85.5494 283.461 85.0961C284.131 84.6362 284.952 84.4063 285.924 84.4063ZM285.924 85.7564C285.031 85.7564 284.354 86.0882 283.894 86.7517C283.441 87.4087 283.214 88.4336 283.214 89.8263C283.214 91.1928 283.438 92.2079 283.885 92.8714C284.338 93.5349 285.011 93.8667 285.905 93.8667C286.798 93.8667 287.468 93.5349 287.915 92.8714C288.368 92.2079 288.595 91.1863 288.595 89.8066C288.595 88.427 288.372 87.4087 287.925 86.7517C287.478 86.0882 286.811 85.7564 285.924 85.7564ZM293.791 95V84.6231H295.2L295.328 86.0619C295.748 85.5297 296.274 85.1224 296.905 84.8399C297.542 84.5508 298.159 84.4063 298.757 84.4063C299.776 84.4063 300.515 84.6757 300.975 85.2144C301.441 85.7531 301.674 86.5021 301.674 87.4612V95H300.019V88.6832C300.019 87.9737 299.979 87.4021 299.9 86.9685C299.822 86.5283 299.657 86.2097 299.408 86.0126C299.158 85.8089 298.77 85.7071 298.245 85.7071C297.838 85.7071 297.453 85.7958 297.092 85.9732C296.737 86.1506 296.418 86.3739 296.136 86.6433C295.86 86.9061 295.63 87.1722 295.446 87.4415V95H293.791ZM308.92 81.2134C309.774 81.2134 310.509 81.3678 311.127 81.6766C311.751 81.9788 312.234 82.3894 312.576 82.9084C312.917 83.4208 313.088 83.9858 313.088 84.6034C313.088 85.1487 312.967 85.6447 312.723 86.0914C312.48 86.5382 312.158 86.9061 311.758 87.1952C311.357 87.4842 310.917 87.6747 310.437 87.7667C310.969 87.8061 311.469 87.9572 311.935 88.22C312.402 88.4763 312.783 88.8442 313.078 89.3238C313.374 89.7968 313.522 90.3848 313.522 91.0877C313.522 91.8695 313.325 92.5758 312.93 93.2065C312.536 93.8306 311.984 94.3233 311.275 94.6847C310.572 95.046 309.751 95.2267 308.811 95.2267C308.056 95.2267 307.3 95.0821 306.545 94.7931C305.796 94.504 305.162 94.0441 304.643 93.4134L305.756 92.5068C306.144 92.9601 306.604 93.2984 307.136 93.5218C307.675 93.7452 308.22 93.8569 308.772 93.8569C309.718 93.8569 310.457 93.6105 310.989 93.1178C311.521 92.6185 311.787 91.9418 311.787 91.0877C311.787 90.4439 311.662 89.9347 311.413 89.5603C311.17 89.1858 310.838 88.9197 310.417 88.762C309.997 88.5978 309.517 88.5157 308.979 88.5157H307.836L308.043 87.205H308.841C309.281 87.205 309.695 87.1229 310.082 86.9586C310.477 86.7878 310.799 86.525 311.048 86.1703C311.298 85.8155 311.423 85.3721 311.423 84.8399C311.423 84.091 311.173 83.5194 310.674 83.1252C310.174 82.731 309.57 82.5339 308.86 82.5339C308.269 82.5339 307.753 82.639 307.313 82.8493C306.873 83.0529 306.43 83.365 305.983 83.7855L305.066 82.7704C305.645 82.2252 306.259 81.831 306.909 81.5879C307.56 81.3382 308.23 81.2134 308.92 81.2134ZM329.224 90.3388V88.9H337.128V90.3388H329.224ZM347.901 84.4063C348.236 84.4063 348.555 84.4786 348.857 84.6231C349.166 84.7676 349.419 85.0469 349.616 85.4607C349.813 85.8746 349.911 86.4791 349.911 87.274V95H348.374V87.5401C348.374 86.8897 348.335 86.4199 348.256 86.1309C348.177 85.8418 347.95 85.6973 347.576 85.6973C347.267 85.6973 346.958 85.7958 346.649 85.9929C346.347 86.1834 346.052 86.4988 345.763 86.9389V95H344.215V87.5401C344.215 86.8897 344.176 86.4199 344.097 86.1309C344.018 85.8418 343.792 85.6973 343.417 85.6973C343.095 85.6973 342.783 85.7958 342.481 85.9929C342.185 86.1834 341.893 86.4988 341.604 86.9389V95H340.076V84.6231H341.377L341.476 85.8254C341.758 85.4246 342.074 85.0896 342.422 84.8202C342.777 84.5443 343.213 84.4063 343.732 84.4063C344.127 84.4063 344.498 84.5016 344.846 84.6921C345.194 84.876 345.45 85.2374 345.615 85.7761C345.897 85.3688 346.216 85.0403 346.571 84.7906C346.925 84.5344 347.369 84.4063 347.901 84.4063ZM26.6223 111.406C27.5421 111.406 28.2746 111.63 28.8199 112.076C29.3717 112.523 29.7692 113.154 30.0123 113.969C30.2554 114.777 30.3769 115.723 30.3769 116.807C30.3769 117.851 30.2291 118.784 29.9334 119.605C29.6444 120.42 29.2042 121.061 28.6129 121.527C28.0216 121.993 27.276 122.227 26.3759 122.227C25.2394 122.227 24.3262 121.826 23.6363 121.024V125.971L21.9808 126.178V111.623H23.39L23.5279 113.072C23.909 112.54 24.3623 112.129 24.8879 111.84C25.42 111.551 25.9982 111.406 26.6223 111.406ZM26.2281 112.737C25.6565 112.737 25.1507 112.911 24.7105 113.259C24.2769 113.601 23.9188 113.982 23.6363 114.402V119.546C23.9057 119.947 24.244 120.266 24.6514 120.502C25.0653 120.732 25.5186 120.847 26.0113 120.847C26.8719 120.847 27.5191 120.519 27.9527 119.862C28.3863 119.205 28.6031 118.183 28.6031 116.797C28.6031 115.89 28.5177 115.138 28.3468 114.54C28.176 113.936 27.9165 113.486 27.5683 113.19C27.2201 112.888 26.7734 112.737 26.2281 112.737ZM39.0511 111.623V120.689H41.9779V122H34.1928V120.689H37.3955V112.934H34.2913V111.623H39.0511ZM37.7306 106.765C38.0985 106.765 38.3908 106.876 38.6076 107.1C38.831 107.323 38.9427 107.596 38.9427 107.918C38.9427 108.253 38.831 108.535 38.6076 108.765C38.3908 108.989 38.0985 109.1 37.7306 109.1C37.3824 109.1 37.0966 108.989 36.8732 108.765C36.6499 108.535 36.5382 108.253 36.5382 107.918C36.5382 107.596 36.6499 107.323 36.8732 107.1C37.0966 106.876 37.3824 106.765 37.7306 106.765ZM50.2579 111.406C51.1777 111.406 51.9102 111.63 52.4555 112.076C53.0074 112.523 53.4048 113.154 53.6479 113.969C53.891 114.777 54.0125 115.723 54.0125 116.807C54.0125 117.851 53.8647 118.784 53.5691 119.605C53.28 120.42 52.8398 121.061 52.2486 121.527C51.6573 121.993 50.9116 122.227 50.0116 122.227C48.875 122.227 47.9618 121.826 47.272 121.024V125.971L45.6164 126.178V111.623H47.0256L47.1636 113.072C47.5446 112.54 47.9979 112.129 48.5235 111.84C49.0557 111.551 49.6338 111.406 50.2579 111.406ZM49.8637 112.737C49.2922 112.737 48.7863 112.911 48.3461 113.259C47.9125 113.601 47.5545 113.982 47.272 114.402V119.546C47.5413 119.947 47.8797 120.266 48.287 120.502C48.7009 120.732 49.1542 120.847 49.6469 120.847C50.5076 120.847 51.1547 120.519 51.5883 119.862C52.0219 119.205 52.2387 118.183 52.2387 116.797C52.2387 115.89 52.1533 115.138 51.9825 114.54C51.8117 113.936 51.5522 113.486 51.204 113.19C50.8558 112.888 50.409 112.737 49.8637 112.737ZM74.5045 111.623V120.689H77.4314V122H69.6462V120.689H72.849V112.934H69.7448V111.623H74.5045ZM73.184 106.765C73.5519 106.765 73.8443 106.876 74.0611 107.1C74.2845 107.323 74.3961 107.596 74.3961 107.918C74.3961 108.253 74.2845 108.535 74.0611 108.765C73.8443 108.989 73.5519 109.1 73.184 109.1C72.8358 109.1 72.5501 108.989 72.3267 108.765C72.1033 108.535 71.9916 108.253 71.9916 107.918C71.9916 107.596 72.1033 107.323 72.3267 107.1C72.5501 106.876 72.8358 106.765 73.184 106.765ZM81.0699 122V111.623H82.4791L82.6072 113.062C83.0276 112.53 83.5532 112.122 84.1839 111.84C84.8212 111.551 85.4387 111.406 86.0366 111.406C87.0549 111.406 87.794 111.676 88.2539 112.214C88.7203 112.753 88.9535 113.502 88.9535 114.461V122H87.298V115.683C87.298 114.974 87.2586 114.402 87.1797 113.969C87.1009 113.528 86.9366 113.21 86.687 113.013C86.4373 112.809 86.0497 112.707 85.5241 112.707C85.1168 112.707 84.7325 112.796 84.3712 112.973C84.0164 113.151 83.6978 113.374 83.4153 113.643C83.1393 113.906 82.9094 114.172 82.7254 114.442V122H81.0699ZM96.4156 120.857C97.2106 120.857 97.838 120.709 98.2979 120.413C98.7643 120.111 98.9975 119.71 98.9975 119.211C98.9975 118.896 98.9384 118.623 98.8202 118.393C98.7085 118.163 98.4752 117.956 98.1205 117.772C97.7657 117.588 97.2204 117.404 96.4846 117.221C95.7685 117.043 95.1444 116.839 94.6122 116.61C94.0867 116.373 93.6761 116.068 93.3804 115.693C93.0913 115.319 92.9468 114.832 92.9468 114.235C92.9468 113.65 93.1111 113.147 93.4395 112.727C93.7746 112.3 94.2378 111.975 94.829 111.751C95.4203 111.521 96.1069 111.406 96.8887 111.406C97.723 111.406 98.449 111.518 99.0665 111.741C99.6906 111.958 100.22 112.228 100.653 112.549L99.9239 113.673C99.5297 113.404 99.0961 113.183 98.6231 113.013C98.15 112.835 97.5785 112.747 96.9084 112.747C96.0937 112.747 95.5156 112.875 95.174 113.131C94.8323 113.381 94.6615 113.706 94.6615 114.106C94.6615 114.409 94.7436 114.662 94.9079 114.865C95.0787 115.062 95.3645 115.243 95.7652 115.407C96.166 115.565 96.7178 115.739 97.4208 115.93C98.0975 116.107 98.6855 116.32 99.1848 116.57C99.6906 116.82 100.085 117.148 100.367 117.556C100.65 117.963 100.791 118.488 100.791 119.132C100.791 119.868 100.581 120.466 100.16 120.926C99.7399 121.379 99.1946 121.711 98.5245 121.921C97.861 122.125 97.158 122.227 96.4156 122.227C95.4762 122.227 94.6747 122.092 94.0111 121.823C93.3541 121.547 92.8023 121.215 92.3555 120.827L93.3016 119.733C93.7089 120.068 94.1754 120.341 94.7009 120.551C95.2331 120.755 95.8046 120.857 96.4156 120.857ZM112.944 121.478C112.589 121.714 112.159 121.898 111.653 122.03C111.147 122.161 110.651 122.227 110.165 122.227C109.048 122.227 108.187 121.934 107.583 121.35C106.979 120.765 106.676 120.013 106.676 119.093V112.904H104.292V111.623H106.676V109.268L108.332 109.071V111.623H111.919L111.722 112.904H108.332V119.073C108.332 119.651 108.483 120.091 108.785 120.394C109.094 120.696 109.603 120.847 110.313 120.847C110.7 120.847 111.058 120.801 111.387 120.709C111.715 120.617 112.021 120.499 112.303 120.354L112.944 121.478ZM123.954 119.733C123.954 120.147 124.023 120.45 124.161 120.64C124.299 120.831 124.512 120.972 124.801 121.064L124.397 122.227C123.95 122.168 123.56 122.026 123.224 121.803C122.889 121.573 122.646 121.228 122.495 120.768C122.121 121.248 121.654 121.612 121.096 121.862C120.537 122.105 119.92 122.227 119.243 122.227C118.205 122.227 117.387 121.934 116.789 121.35C116.192 120.765 115.893 119.99 115.893 119.024C115.893 117.953 116.31 117.132 117.144 116.56C117.979 115.989 119.184 115.703 120.761 115.703H122.288V114.836C122.288 114.087 122.068 113.558 121.628 113.249C121.194 112.934 120.59 112.776 119.815 112.776C119.473 112.776 119.072 112.819 118.612 112.904C118.153 112.983 117.653 113.118 117.115 113.308L116.681 112.057C117.318 111.82 117.916 111.653 118.475 111.554C119.033 111.456 119.565 111.406 120.071 111.406C121.365 111.406 122.334 111.709 122.978 112.313C123.628 112.911 123.954 113.725 123.954 114.757V119.733ZM119.667 120.965C120.179 120.965 120.669 120.837 121.135 120.581C121.602 120.318 121.986 119.957 122.288 119.497V116.826H120.79C119.647 116.826 118.839 117.023 118.366 117.418C117.9 117.812 117.666 118.341 117.666 119.004C117.666 119.648 117.831 120.137 118.159 120.473C118.494 120.801 118.997 120.965 119.667 120.965ZM132.382 107.445V119.438C132.382 119.95 132.539 120.315 132.855 120.532C133.176 120.742 133.59 120.847 134.096 120.847C134.412 120.847 134.71 120.814 134.993 120.748C135.275 120.683 135.558 120.594 135.84 120.482L136.284 121.695C136.001 121.832 135.65 121.954 135.23 122.059C134.816 122.171 134.346 122.227 133.82 122.227C132.901 122.227 132.155 121.974 131.583 121.468C131.012 120.955 130.726 120.249 130.726 119.349V108.755H127.543V107.445H132.382ZM144.199 107.445V119.438C144.199 119.95 144.357 120.315 144.672 120.532C144.994 120.742 145.408 120.847 145.914 120.847C146.229 120.847 146.528 120.814 146.811 120.748C147.093 120.683 147.376 120.594 147.658 120.482L148.102 121.695C147.819 121.832 147.468 121.954 147.047 122.059C146.633 122.171 146.164 122.227 145.638 122.227C144.718 122.227 143.973 121.974 143.401 121.468C142.83 120.955 142.544 120.249 142.544 119.349V108.755H139.361V107.445H144.199ZM165.45 112.973C165.831 112.474 166.268 112.09 166.761 111.82C167.26 111.544 167.809 111.406 168.407 111.406C169.333 111.406 170.082 111.63 170.653 112.076C171.225 112.523 171.642 113.154 171.905 113.969C172.168 114.777 172.299 115.723 172.299 116.807C172.299 117.851 172.141 118.784 171.826 119.605C171.511 120.42 171.048 121.061 170.437 121.527C169.832 121.993 169.083 122.227 168.19 122.227C166.987 122.227 166.045 121.793 165.361 120.926L165.243 122H163.795V107.445L165.45 107.238V112.973ZM167.796 120.886C168.663 120.886 169.33 120.551 169.796 119.881C170.263 119.211 170.496 118.183 170.496 116.797C170.496 115.89 170.404 115.138 170.22 114.54C170.036 113.936 169.76 113.486 169.392 113.19C169.031 112.888 168.584 112.737 168.052 112.737C167.474 112.737 166.964 112.911 166.524 113.259C166.091 113.601 165.733 113.982 165.45 114.402V119.546C165.72 119.954 166.058 120.279 166.465 120.522C166.879 120.765 167.323 120.886 167.796 120.886ZM180.865 111.623V120.689H183.792V122H176.007V120.689H179.209V112.934H176.105V111.623H180.865ZM179.544 106.765C179.912 106.765 180.205 106.876 180.421 107.1C180.645 107.323 180.757 107.596 180.757 107.918C180.757 108.253 180.645 108.535 180.421 108.765C180.205 108.989 179.912 109.1 179.544 109.1C179.196 109.1 178.91 108.989 178.687 108.765C178.464 108.535 178.352 108.253 178.352 107.918C178.352 107.596 178.464 107.323 178.687 107.1C178.91 106.876 179.196 106.765 179.544 106.765ZM190.958 120.857C191.753 120.857 192.381 120.709 192.84 120.413C193.307 120.111 193.54 119.71 193.54 119.211C193.54 118.896 193.481 118.623 193.363 118.393C193.251 118.163 193.018 117.956 192.663 117.772C192.308 117.588 191.763 117.404 191.027 117.221C190.311 117.043 189.687 116.839 189.155 116.61C188.629 116.373 188.219 116.068 187.923 115.693C187.634 115.319 187.489 114.832 187.489 114.235C187.489 113.65 187.654 113.147 187.982 112.727C188.317 112.3 188.78 111.975 189.372 111.751C189.963 111.521 190.649 111.406 191.431 111.406C192.266 111.406 192.992 111.518 193.609 111.741C194.233 111.958 194.762 112.228 195.196 112.549L194.466 113.673C194.072 113.404 193.639 113.183 193.166 113.013C192.693 112.835 192.121 112.747 191.451 112.747C190.636 112.747 190.058 112.875 189.717 113.131C189.375 113.381 189.204 113.706 189.204 114.106C189.204 114.409 189.286 114.662 189.45 114.865C189.621 115.062 189.907 115.243 190.308 115.407C190.709 115.565 191.26 115.739 191.963 115.93C192.64 116.107 193.228 116.32 193.727 116.57C194.233 116.82 194.627 117.148 194.91 117.556C195.192 117.963 195.334 118.488 195.334 119.132C195.334 119.868 195.123 120.466 194.703 120.926C194.282 121.379 193.737 121.711 193.067 121.921C192.404 122.125 191.701 122.227 190.958 122.227C190.019 122.227 189.217 122.092 188.554 121.823C187.897 121.547 187.345 121.215 186.898 120.827L187.844 119.733C188.251 120.068 188.718 120.341 189.243 120.551C189.776 120.755 190.347 120.857 190.958 120.857ZM206.087 111.406C206.422 111.406 206.741 111.479 207.043 111.623C207.352 111.768 207.605 112.047 207.802 112.461C207.999 112.875 208.097 113.479 208.097 114.274V122H206.56V114.54C206.56 113.89 206.521 113.42 206.442 113.131C206.363 112.842 206.136 112.697 205.762 112.697C205.453 112.697 205.144 112.796 204.836 112.993C204.533 113.183 204.238 113.499 203.949 113.939V122H202.402V114.54C202.402 113.89 202.362 113.42 202.283 113.131C202.204 112.842 201.978 112.697 201.603 112.697C201.281 112.697 200.969 112.796 200.667 112.993C200.371 113.183 200.079 113.499 199.79 113.939V122H198.263V111.623H199.563L199.662 112.825C199.944 112.425 200.26 112.09 200.608 111.82C200.963 111.544 201.4 111.406 201.919 111.406C202.313 111.406 202.684 111.502 203.032 111.692C203.38 111.876 203.637 112.237 203.801 112.776C204.083 112.369 204.402 112.04 204.757 111.791C205.112 111.534 205.555 111.406 206.087 111.406ZM212.721 111.623V118.975C212.721 119.658 212.863 120.151 213.145 120.453C213.428 120.755 213.868 120.906 214.466 120.906C215.037 120.906 215.576 120.745 216.082 120.423C216.594 120.095 216.992 119.707 217.274 119.26V111.623H218.93V122H217.521L217.383 120.601C216.975 121.126 216.473 121.53 215.875 121.813C215.277 122.089 214.673 122.227 214.062 122.227C213.057 122.227 212.304 121.961 211.805 121.428C211.312 120.89 211.066 120.137 211.066 119.172V111.623H212.721ZM231.122 121.478C230.767 121.714 230.337 121.898 229.831 122.03C229.325 122.161 228.829 122.227 228.343 122.227C227.226 122.227 226.366 121.934 225.761 121.35C225.157 120.765 224.855 120.013 224.855 119.093V112.904H222.47V111.623H224.855V109.268L226.51 109.071V111.623H230.097L229.9 112.904H226.51V119.073C226.51 119.651 226.661 120.091 226.964 120.394C227.272 120.696 227.781 120.847 228.491 120.847C228.879 120.847 229.237 120.801 229.565 120.709C229.894 120.617 230.199 120.499 230.482 120.354L231.122 121.478ZM236.357 107.287V113.042C236.764 112.497 237.264 112.09 237.855 111.82C238.453 111.544 239.057 111.406 239.668 111.406C240.68 111.406 241.419 111.676 241.886 112.214C242.352 112.753 242.585 113.502 242.585 114.461V122H240.93V114.501C240.93 113.877 240.785 113.423 240.496 113.141C240.207 112.852 239.754 112.707 239.136 112.707C238.742 112.707 238.367 112.796 238.013 112.973C237.658 113.151 237.339 113.371 237.057 113.633C236.774 113.896 236.541 114.166 236.357 114.442V122H234.702V107.464L236.357 107.287ZM250.047 120.857C250.842 120.857 251.47 120.709 251.93 120.413C252.396 120.111 252.629 119.71 252.629 119.211C252.629 118.896 252.57 118.623 252.452 118.393C252.34 118.163 252.107 117.956 251.752 117.772C251.397 117.588 250.852 117.404 250.116 117.221C249.4 117.043 248.776 116.839 248.244 116.61C247.718 116.373 247.308 116.068 247.012 115.693C246.723 115.319 246.578 114.832 246.578 114.235C246.578 113.65 246.743 113.147 247.071 112.727C247.406 112.3 247.869 111.975 248.461 111.751C249.052 111.521 249.739 111.406 250.52 111.406C251.355 111.406 252.081 111.518 252.698 111.741C253.322 111.958 253.851 112.228 254.285 112.549L253.556 113.673C253.161 113.404 252.728 113.183 252.255 113.013C251.782 112.835 251.21 112.747 250.54 112.747C249.725 112.747 249.147 112.875 248.806 113.131C248.464 113.381 248.293 113.706 248.293 114.106C248.293 114.409 248.375 114.662 248.54 114.865C248.71 115.062 248.996 115.243 249.397 115.407C249.798 115.565 250.349 115.739 251.052 115.93C251.729 116.107 252.317 116.32 252.816 116.57C253.322 116.82 253.716 117.148 253.999 117.556C254.281 117.963 254.423 118.488 254.423 119.132C254.423 119.868 254.212 120.466 253.792 120.926C253.372 121.379 252.826 121.711 252.156 121.921C251.493 122.125 250.79 122.227 250.047 122.227C249.108 122.227 248.306 122.092 247.643 121.823C246.986 121.547 246.434 121.215 245.987 120.827L246.933 119.733C247.341 120.068 247.807 120.341 248.333 120.551C248.865 120.755 249.436 120.857 250.047 120.857ZM264.546 107.238L266.201 107.445V122H264.752L264.595 120.63C264.207 121.182 263.76 121.586 263.255 121.842C262.755 122.099 262.22 122.227 261.648 122.227C260.748 122.227 260.006 122 259.421 121.547C258.836 121.093 258.403 120.463 258.12 119.655C257.838 118.84 257.697 117.897 257.697 116.826C257.697 115.788 257.858 114.862 258.179 114.047C258.501 113.226 258.965 112.582 259.569 112.116C260.18 111.643 260.912 111.406 261.767 111.406C262.364 111.406 262.89 111.511 263.343 111.722C263.797 111.925 264.197 112.228 264.546 112.628V107.238ZM262.2 112.737C261.333 112.737 260.666 113.075 260.2 113.752C259.733 114.428 259.5 115.453 259.5 116.826C259.5 117.72 259.595 118.469 259.786 119.073C259.976 119.678 260.256 120.131 260.623 120.433C260.998 120.735 261.454 120.886 261.993 120.886C262.584 120.886 263.087 120.719 263.501 120.384C263.921 120.049 264.27 119.671 264.546 119.251V114.067C264.263 113.647 263.921 113.321 263.521 113.091C263.12 112.855 262.68 112.737 262.2 112.737ZM278.847 111.623L274.176 116.294L279.389 122H277.211L272.106 116.334L276.698 111.623H278.847ZM271.919 107.238V122H270.263V107.445L271.919 107.238ZM298.286 108.233C298.878 108.233 299.439 108.328 299.972 108.519C300.504 108.709 301.039 109.1 301.578 109.692L300.583 110.598C300.248 110.217 299.903 109.935 299.548 109.751C299.187 109.567 298.759 109.475 298.267 109.475C297.577 109.475 297.058 109.662 296.71 110.037C296.362 110.404 296.187 110.881 296.187 111.465C296.187 111.866 296.296 112.241 296.513 112.589C296.729 112.93 297.022 113.206 297.39 113.417C297.758 113.627 298.165 113.732 298.612 113.732H307.008V115.033H302.327V120.394C302.13 120.65 301.86 120.919 301.519 121.202C301.171 121.484 300.727 121.727 300.188 121.931C299.65 122.128 298.999 122.227 298.237 122.227C297.212 122.227 296.378 122.03 295.734 121.635C295.084 121.241 294.607 120.735 294.305 120.118C293.996 119.494 293.842 118.843 293.842 118.167C293.842 117.148 294.111 116.314 294.65 115.663C295.182 115.013 295.944 114.586 296.936 114.382V114.323C296.339 114.185 295.869 113.972 295.527 113.683C295.179 113.387 294.933 113.049 294.788 112.668C294.637 112.28 294.561 111.883 294.561 111.475C294.561 110.891 294.713 110.355 295.015 109.869C295.317 109.376 295.747 108.982 296.306 108.686C296.864 108.384 297.524 108.233 298.286 108.233ZM300.819 115.033H298.375C297.692 115.033 297.137 115.194 296.71 115.516C296.283 115.831 295.971 116.225 295.774 116.698C295.57 117.165 295.468 117.634 295.468 118.107C295.468 118.58 295.567 119.03 295.764 119.458C295.954 119.885 296.256 120.229 296.67 120.492C297.078 120.755 297.613 120.886 298.277 120.886C298.828 120.886 299.324 120.798 299.765 120.62C300.198 120.436 300.55 120.177 300.819 119.842V115.033ZM308.141 108.233C308.732 108.233 309.294 108.328 309.826 108.519C310.358 108.709 310.894 109.1 311.432 109.692L310.437 110.598C310.102 110.217 309.754 109.935 309.393 109.751C309.038 109.567 308.614 109.475 308.121 109.475C307.432 109.475 306.913 109.662 306.564 110.037C306.216 110.404 306.042 110.881 306.042 111.465C306.042 111.866 306.15 112.241 306.367 112.589C306.584 112.93 306.876 113.206 307.244 113.417C307.612 113.627 308.02 113.732 308.466 113.732H313.945V115.033H312.181V120.394C311.984 120.65 311.712 120.919 311.364 121.202C311.022 121.484 310.582 121.727 310.043 121.931C309.504 122.128 308.854 122.227 308.092 122.227C307.067 122.227 306.229 122.03 305.579 121.635C304.935 121.241 304.459 120.735 304.15 120.118C303.848 119.494 303.697 118.843 303.697 118.167C303.697 117.148 303.963 116.314 304.495 115.663C305.034 115.013 305.799 114.586 306.791 114.382V114.323C306.193 114.185 305.72 113.972 305.372 113.683C305.03 113.387 304.784 113.049 304.633 112.668C304.488 112.28 304.416 111.883 304.416 111.475C304.416 110.891 304.567 110.355 304.869 109.869C305.172 109.376 305.602 108.982 306.16 108.686C306.719 108.384 307.379 108.233 308.141 108.233ZM310.674 115.033H308.23C307.547 115.033 306.991 115.194 306.564 115.516C306.137 115.831 305.822 116.225 305.618 116.698C305.421 117.165 305.323 117.634 305.323 118.107C305.323 118.58 305.418 119.03 305.608 119.458C305.806 119.885 306.108 120.229 306.515 120.492C306.929 120.755 307.468 120.886 308.131 120.886C308.683 120.886 309.176 120.798 309.609 120.62C310.05 120.436 310.404 120.177 310.674 119.842V115.033ZM38.4401 138.406C39.3599 138.406 40.0924 138.63 40.6377 139.076C41.1895 139.523 41.587 140.154 41.8301 140.969C42.0732 141.777 42.1947 142.723 42.1947 143.807C42.1947 144.851 42.0469 145.784 41.7513 146.605C41.4622 147.42 41.022 148.061 40.4307 148.527C39.8395 148.993 39.0938 149.227 38.1937 149.227C37.0572 149.227 36.144 148.826 35.4542 148.024V152.971L33.7986 153.178V138.623H35.2078L35.3458 140.072C35.7268 139.54 36.1801 139.129 36.7057 138.84C37.2378 138.551 37.816 138.406 38.4401 138.406ZM38.0459 139.737C37.4744 139.737 36.9685 139.911 36.5283 140.259C36.0947 140.601 35.7367 140.982 35.4542 141.402V146.546C35.7235 146.947 36.0619 147.266 36.4692 147.502C36.8831 147.732 37.3364 147.847 37.8291 147.847C38.6898 147.847 39.3369 147.519 39.7705 146.862C40.2041 146.205 40.4209 145.183 40.4209 143.797C40.4209 142.89 40.3355 142.138 40.1647 141.54C39.9939 140.936 39.7343 140.486 39.3862 140.19C39.038 139.888 38.5912 139.737 38.0459 139.737ZM54.249 138.623L50.6028 149.069C50.3598 149.772 50.051 150.416 49.6765 151C49.3086 151.585 48.8257 152.068 48.2279 152.449C47.6366 152.837 46.8844 153.077 45.9712 153.168L45.715 151.848C46.4311 151.73 46.9961 151.549 47.4099 151.306C47.8238 151.063 48.149 150.751 48.3856 150.37C48.6286 149.989 48.8422 149.532 49.0261 149H48.4742L44.8478 138.623H46.6216L49.5977 147.739L52.5343 138.623H54.249ZM65.6727 148.478C65.3179 148.714 64.8876 148.898 64.3817 149.03C63.8759 149.161 63.3798 149.227 62.8937 149.227C61.7768 149.227 60.9162 148.934 60.3118 148.35C59.7074 147.765 59.4052 147.013 59.4052 146.093V139.904H57.0203V138.623H59.4052V136.268L61.0607 136.071V138.623H64.6478L64.4507 139.904H61.0607V146.073C61.0607 146.651 61.2118 147.091 61.514 147.394C61.8228 147.696 62.332 147.847 63.0415 147.847C63.4291 147.847 63.7872 147.801 64.1156 147.709C64.4441 147.617 64.7496 147.499 65.0321 147.354L65.6727 148.478ZM70.9076 134.287V140.042C71.3149 139.497 71.8142 139.09 72.4055 138.82C73.0034 138.544 73.6078 138.406 74.2188 138.406C75.2305 138.406 75.9696 138.676 76.4361 139.214C76.9025 139.753 77.1357 140.502 77.1357 141.461V149H75.4802V141.501C75.4802 140.877 75.3356 140.423 75.0466 140.141C74.7575 139.852 74.3042 139.707 73.6866 139.707C73.2924 139.707 72.918 139.796 72.5632 139.973C72.2084 140.151 71.8898 140.371 71.6073 140.633C71.3248 140.896 71.0916 141.166 70.9076 141.442V149H69.252V134.464L70.9076 134.287ZM85.0216 138.406C86.0005 138.406 86.8184 138.63 87.4754 139.076C88.1389 139.517 88.6349 140.141 88.9634 140.949C89.2985 141.757 89.466 142.709 89.466 143.807C89.466 144.864 89.2952 145.801 88.9535 146.615C88.6119 147.43 88.1093 148.07 87.4458 148.537C86.7888 148.997 85.9742 149.227 85.0019 149.227C84.0295 149.227 83.2116 149.003 82.5481 148.557C81.8845 148.11 81.3819 147.482 81.0403 146.674C80.7052 145.86 80.5377 144.91 80.5377 143.826C80.5377 142.755 80.7085 141.813 81.0502 140.998C81.3918 140.183 81.8944 139.549 82.5579 139.096C83.228 138.636 84.0492 138.406 85.0216 138.406ZM85.0216 139.756C84.1281 139.756 83.4514 140.088 82.9915 140.752C82.5382 141.409 82.3115 142.434 82.3115 143.826C82.3115 145.193 82.5349 146.208 82.9817 146.871C83.435 147.535 84.1084 147.867 85.0019 147.867C85.8953 147.867 86.5654 147.535 87.0122 146.871C87.4655 146.208 87.6922 145.186 87.6922 143.807C87.6922 142.427 87.4688 141.409 87.022 140.752C86.5753 140.088 85.9085 139.756 85.0216 139.756ZM92.8877 149V138.623H94.2969L94.425 140.062C94.8455 139.53 95.371 139.122 96.0017 138.84C96.639 138.551 97.2566 138.406 97.8544 138.406C98.8727 138.406 99.6118 138.676 100.072 139.214C100.538 139.753 100.771 140.502 100.771 141.461V149H99.1158V142.683C99.1158 141.974 99.0764 141.402 98.9975 140.969C98.9187 140.528 98.7545 140.21 98.5048 140.013C98.2552 139.809 97.8675 139.707 97.342 139.707C96.9346 139.707 96.5503 139.796 96.189 139.973C95.8342 140.151 95.5156 140.374 95.2331 140.643C94.9572 140.906 94.7272 141.172 94.5433 141.442V149H92.8877ZM108.017 135.213C108.871 135.213 109.607 135.368 110.224 135.677C110.848 135.979 111.331 136.389 111.673 136.908C112.014 137.421 112.185 137.986 112.185 138.603C112.185 139.149 112.064 139.645 111.821 140.091C111.577 140.538 111.256 140.906 110.855 141.195C110.454 141.484 110.014 141.675 109.534 141.767C110.066 141.806 110.566 141.957 111.032 142.22C111.499 142.476 111.88 142.844 112.175 143.324C112.471 143.797 112.619 144.385 112.619 145.088C112.619 145.87 112.422 146.576 112.027 147.206C111.633 147.831 111.081 148.323 110.372 148.685C109.669 149.046 108.848 149.227 107.908 149.227C107.153 149.227 106.397 149.082 105.642 148.793C104.893 148.504 104.259 148.044 103.74 147.413L104.853 146.507C105.241 146.96 105.701 147.298 106.233 147.522C106.772 147.745 107.317 147.857 107.869 147.857C108.815 147.857 109.554 147.611 110.086 147.118C110.618 146.618 110.884 145.942 110.884 145.088C110.884 144.444 110.76 143.935 110.51 143.56C110.267 143.186 109.935 142.92 109.515 142.762C109.094 142.598 108.614 142.516 108.076 142.516H106.933L107.14 141.205H107.938C108.378 141.205 108.792 141.123 109.179 140.959C109.574 140.788 109.896 140.525 110.145 140.17C110.395 139.816 110.52 139.372 110.52 138.84C110.52 138.091 110.27 137.519 109.771 137.125C109.271 136.731 108.667 136.534 107.958 136.534C107.366 136.534 106.851 136.639 106.41 136.849C105.97 137.053 105.527 137.365 105.08 137.785L104.164 136.77C104.742 136.225 105.356 135.831 106.006 135.588C106.657 135.338 107.327 135.213 108.017 135.213ZM128.321 144.339V142.9H136.225V144.339H128.321ZM146.998 138.406C147.333 138.406 147.652 138.479 147.954 138.623C148.263 138.768 148.516 139.047 148.713 139.461C148.91 139.875 149.008 140.479 149.008 141.274V149H147.471V141.54C147.471 140.89 147.432 140.42 147.353 140.131C147.274 139.842 147.047 139.697 146.673 139.697C146.364 139.697 146.055 139.796 145.747 139.993C145.444 140.183 145.149 140.499 144.86 140.939V149H143.312V141.54C143.312 140.89 143.273 140.42 143.194 140.131C143.115 139.842 142.889 139.697 142.514 139.697C142.192 139.697 141.88 139.796 141.578 139.993C141.282 140.183 140.99 140.499 140.701 140.939V149H139.173V138.623H140.474L140.573 139.825C140.855 139.425 141.171 139.09 141.519 138.82C141.874 138.544 142.311 138.406 142.83 138.406C143.224 138.406 143.595 138.502 143.943 138.692C144.291 138.876 144.548 139.237 144.712 139.776C144.994 139.369 145.313 139.04 145.668 138.791C146.022 138.534 146.466 138.406 146.998 138.406ZM165.45 139.973C165.831 139.474 166.268 139.09 166.761 138.82C167.26 138.544 167.809 138.406 168.407 138.406C169.333 138.406 170.082 138.63 170.653 139.076C171.225 139.523 171.642 140.154 171.905 140.969C172.168 141.777 172.299 142.723 172.299 143.807C172.299 144.851 172.141 145.784 171.826 146.605C171.511 147.42 171.048 148.061 170.437 148.527C169.832 148.993 169.083 149.227 168.19 149.227C166.987 149.227 166.045 148.793 165.361 147.926L165.243 149H163.795V134.445L165.45 134.238V139.973ZM167.796 147.886C168.663 147.886 169.33 147.551 169.796 146.881C170.263 146.211 170.496 145.183 170.496 143.797C170.496 142.89 170.404 142.138 170.22 141.54C170.036 140.936 169.76 140.486 169.392 140.19C169.031 139.888 168.584 139.737 168.052 139.737C167.474 139.737 166.964 139.911 166.524 140.259C166.091 140.601 165.733 140.982 165.45 141.402V146.546C165.72 146.954 166.058 147.279 166.465 147.522C166.879 147.765 167.323 147.886 167.796 147.886ZM180.865 138.623V147.689H183.792V149H176.007V147.689H179.209V139.934H176.105V138.623H180.865ZM179.544 133.765C179.912 133.765 180.205 133.876 180.421 134.1C180.645 134.323 180.757 134.596 180.757 134.918C180.757 135.253 180.645 135.535 180.421 135.765C180.205 135.989 179.912 136.1 179.544 136.1C179.196 136.1 178.91 135.989 178.687 135.765C178.464 135.535 178.352 135.253 178.352 134.918C178.352 134.596 178.464 134.323 178.687 134.1C178.91 133.876 179.196 133.765 179.544 133.765ZM190.958 147.857C191.753 147.857 192.381 147.709 192.84 147.413C193.307 147.111 193.54 146.71 193.54 146.211C193.54 145.896 193.481 145.623 193.363 145.393C193.251 145.163 193.018 144.956 192.663 144.772C192.308 144.588 191.763 144.404 191.027 144.221C190.311 144.043 189.687 143.839 189.155 143.61C188.629 143.373 188.219 143.068 187.923 142.693C187.634 142.319 187.489 141.832 187.489 141.235C187.489 140.65 187.654 140.147 187.982 139.727C188.317 139.3 188.78 138.975 189.372 138.751C189.963 138.521 190.649 138.406 191.431 138.406C192.266 138.406 192.992 138.518 193.609 138.741C194.233 138.958 194.762 139.228 195.196 139.549L194.466 140.673C194.072 140.404 193.639 140.183 193.166 140.013C192.693 139.835 192.121 139.747 191.451 139.747C190.636 139.747 190.058 139.875 189.717 140.131C189.375 140.381 189.204 140.706 189.204 141.106C189.204 141.409 189.286 141.662 189.45 141.865C189.621 142.062 189.907 142.243 190.308 142.407C190.709 142.565 191.26 142.739 191.963 142.93C192.64 143.107 193.228 143.32 193.727 143.57C194.233 143.82 194.627 144.148 194.91 144.556C195.192 144.963 195.334 145.488 195.334 146.132C195.334 146.868 195.123 147.466 194.703 147.926C194.282 148.379 193.737 148.711 193.067 148.921C192.404 149.125 191.701 149.227 190.958 149.227C190.019 149.227 189.217 149.092 188.554 148.823C187.897 148.547 187.345 148.215 186.898 147.827L187.844 146.733C188.251 147.068 188.718 147.341 189.243 147.551C189.776 147.755 190.347 147.857 190.958 147.857ZM206.087 138.406C206.422 138.406 206.741 138.479 207.043 138.623C207.352 138.768 207.605 139.047 207.802 139.461C207.999 139.875 208.097 140.479 208.097 141.274V149H206.56V141.54C206.56 140.89 206.521 140.42 206.442 140.131C206.363 139.842 206.136 139.697 205.762 139.697C205.453 139.697 205.144 139.796 204.836 139.993C204.533 140.183 204.238 140.499 203.949 140.939V149H202.402V141.54C202.402 140.89 202.362 140.42 202.283 140.131C202.204 139.842 201.978 139.697 201.603 139.697C201.281 139.697 200.969 139.796 200.667 139.993C200.371 140.183 200.079 140.499 199.79 140.939V149H198.263V138.623H199.563L199.662 139.825C199.944 139.425 200.26 139.09 200.608 138.82C200.963 138.544 201.4 138.406 201.919 138.406C202.313 138.406 202.684 138.502 203.032 138.692C203.38 138.876 203.637 139.237 203.801 139.776C204.083 139.369 204.402 139.04 204.757 138.791C205.112 138.534 205.555 138.406 206.087 138.406ZM212.721 138.623V145.975C212.721 146.658 212.863 147.151 213.145 147.453C213.428 147.755 213.868 147.906 214.466 147.906C215.037 147.906 215.576 147.745 216.082 147.423C216.594 147.095 216.992 146.707 217.274 146.26V138.623H218.93V149H217.521L217.383 147.601C216.975 148.126 216.473 148.53 215.875 148.813C215.277 149.089 214.673 149.227 214.062 149.227C213.057 149.227 212.304 148.961 211.805 148.428C211.312 147.89 211.066 147.137 211.066 146.172V138.623H212.721ZM231.122 148.478C230.767 148.714 230.337 148.898 229.831 149.03C229.325 149.161 228.829 149.227 228.343 149.227C227.226 149.227 226.366 148.934 225.761 148.35C225.157 147.765 224.855 147.013 224.855 146.093V139.904H222.47V138.623H224.855V136.268L226.51 136.071V138.623H230.097L229.9 139.904H226.51V146.073C226.51 146.651 226.661 147.091 226.964 147.394C227.272 147.696 227.781 147.847 228.491 147.847C228.879 147.847 229.237 147.801 229.565 147.709C229.894 147.617 230.199 147.499 230.482 147.354L231.122 148.478ZM236.357 134.287V140.042C236.764 139.497 237.264 139.09 237.855 138.82C238.453 138.544 239.057 138.406 239.668 138.406C240.68 138.406 241.419 138.676 241.886 139.214C242.352 139.753 242.585 140.502 242.585 141.461V149H240.93V141.501C240.93 140.877 240.785 140.423 240.496 140.141C240.207 139.852 239.754 139.707 239.136 139.707C238.742 139.707 238.367 139.796 238.013 139.973C237.658 140.151 237.339 140.371 237.057 140.633C236.774 140.896 236.541 141.166 236.357 141.442V149H234.702V134.464L236.357 134.287ZM263.59 138.623V147.689H266.516V149H258.731V147.689H261.934V139.934H258.83V138.623H263.59ZM262.269 133.765C262.637 133.765 262.929 133.876 263.146 134.1C263.37 134.323 263.481 134.596 263.481 134.918C263.481 135.253 263.37 135.535 263.146 135.765C262.929 135.989 262.637 136.1 262.269 136.1C261.921 136.1 261.635 135.989 261.412 135.765C261.188 135.535 261.077 135.253 261.077 134.918C261.077 134.596 261.188 134.323 261.412 134.1C261.635 133.876 261.921 133.765 262.269 133.765ZM270.155 149V138.623H271.564L271.692 140.062C272.113 139.53 272.638 139.122 273.269 138.84C273.906 138.551 274.524 138.406 275.122 138.406C276.14 138.406 276.879 138.676 277.339 139.214C277.805 139.753 278.039 140.502 278.039 141.461V149H276.383V142.683C276.383 141.974 276.344 141.402 276.265 140.969C276.186 140.528 276.022 140.21 275.772 140.013C275.522 139.809 275.135 139.707 274.609 139.707C274.202 139.707 273.818 139.796 273.456 139.973C273.101 140.151 272.783 140.374 272.5 140.643C272.224 140.906 271.994 141.172 271.811 141.442V149H270.155ZM285.501 147.857C286.296 147.857 286.923 147.709 287.383 147.413C287.849 147.111 288.083 146.71 288.083 146.211C288.083 145.896 288.024 145.623 287.905 145.393C287.794 145.163 287.56 144.956 287.206 144.772C286.851 144.588 286.306 144.404 285.57 144.221C284.854 144.043 284.229 143.839 283.697 143.61C283.172 143.373 282.761 143.068 282.466 142.693C282.176 142.319 282.032 141.832 282.032 141.235C282.032 140.65 282.196 140.147 282.525 139.727C282.86 139.3 283.323 138.975 283.914 138.751C284.505 138.521 285.192 138.406 285.974 138.406C286.808 138.406 287.534 138.518 288.152 138.741C288.776 138.958 289.305 139.228 289.738 139.549L289.009 140.673C288.615 140.404 288.181 140.183 287.708 140.013C287.235 139.835 286.664 139.747 285.993 139.747C285.179 139.747 284.601 139.875 284.259 140.131C283.917 140.381 283.747 140.706 283.747 141.106C283.747 141.409 283.829 141.662 283.993 141.865C284.164 142.062 284.45 142.243 284.85 142.407C285.251 142.565 285.803 142.739 286.506 142.93C287.183 143.107 287.771 143.32 288.27 143.57C288.776 143.82 289.17 144.148 289.452 144.556C289.735 144.963 289.876 145.488 289.876 146.132C289.876 146.868 289.666 147.466 289.245 147.926C288.825 148.379 288.28 148.711 287.61 148.921C286.946 149.125 286.243 149.227 285.501 149.227C284.561 149.227 283.76 149.092 283.096 148.823C282.439 148.547 281.887 148.215 281.441 147.827L282.387 146.733C282.794 147.068 283.26 147.341 283.786 147.551C284.318 147.755 284.89 147.857 285.501 147.857ZM302.029 148.478C301.674 148.714 301.244 148.898 300.738 149.03C300.232 149.161 299.736 149.227 299.25 149.227C298.133 149.227 297.273 148.934 296.668 148.35C296.064 147.765 295.762 147.013 295.762 146.093V139.904H293.377V138.623H295.762V136.268L297.417 136.071V138.623H301.004L300.807 139.904H297.417V146.073C297.417 146.651 297.568 147.091 297.87 147.394C298.179 147.696 298.688 147.847 299.398 147.847C299.785 147.847 300.144 147.801 300.472 147.709C300.8 147.617 301.106 147.499 301.388 147.354L302.029 148.478ZM313.039 146.733C313.039 147.147 313.108 147.45 313.246 147.64C313.384 147.831 313.597 147.972 313.886 148.064L313.482 149.227C313.036 149.168 312.645 149.026 312.31 148.803C311.974 148.573 311.731 148.228 311.58 147.768C311.206 148.248 310.739 148.612 310.181 148.862C309.623 149.105 309.005 149.227 308.328 149.227C307.29 149.227 306.472 148.934 305.875 148.35C305.277 147.765 304.978 146.99 304.978 146.024C304.978 144.953 305.395 144.132 306.229 143.56C307.064 142.989 308.269 142.703 309.846 142.703H311.373V141.836C311.373 141.087 311.153 140.558 310.713 140.249C310.28 139.934 309.675 139.776 308.9 139.776C308.558 139.776 308.157 139.819 307.698 139.904C307.238 139.983 306.738 140.118 306.2 140.308L305.766 139.057C306.403 138.82 307.001 138.653 307.56 138.554C308.118 138.456 308.65 138.406 309.156 138.406C310.45 138.406 311.419 138.709 312.063 139.313C312.714 139.911 313.039 140.725 313.039 141.757V146.733ZM308.752 147.965C309.264 147.965 309.754 147.837 310.22 147.581C310.687 147.318 311.071 146.957 311.373 146.497V143.826H309.875C308.732 143.826 307.924 144.023 307.451 144.418C306.985 144.812 306.752 145.341 306.752 146.004C306.752 146.648 306.916 147.137 307.244 147.473C307.579 147.801 308.082 147.965 308.752 147.965ZM321.467 134.445V146.438C321.467 146.95 321.624 147.315 321.94 147.532C322.262 147.742 322.675 147.847 323.181 147.847C323.497 147.847 323.796 147.814 324.078 147.748C324.361 147.683 324.643 147.594 324.926 147.482L325.369 148.695C325.087 148.832 324.735 148.954 324.315 149.059C323.901 149.171 323.431 149.227 322.905 149.227C321.986 149.227 321.24 148.974 320.668 148.468C320.097 147.955 319.811 147.249 319.811 146.349V135.755H316.628V134.445H321.467ZM333.284 134.445V146.438C333.284 146.95 333.442 147.315 333.757 147.532C334.079 147.742 334.493 147.847 334.999 147.847C335.314 147.847 335.613 147.814 335.896 147.748C336.178 147.683 336.461 147.594 336.743 147.482L337.187 148.695C336.904 148.832 336.553 148.954 336.132 149.059C335.719 149.171 335.249 149.227 334.723 149.227C333.803 149.227 333.058 148.974 332.486 148.468C331.915 147.955 331.629 147.249 331.629 146.349V135.755H328.446V134.445H333.284ZM341.042 144.339V142.9H348.946V144.339H341.042ZM357.57 147.798C358.089 147.798 358.572 147.712 359.019 147.542C359.472 147.371 359.89 147.154 360.271 146.891L361.079 147.975C360.625 148.363 360.08 148.668 359.443 148.892C358.806 149.115 358.181 149.227 357.57 149.227C356.539 149.227 355.659 149.007 354.929 148.566C354.207 148.12 353.655 147.496 353.274 146.694C352.893 145.886 352.702 144.94 352.702 143.856C352.702 142.818 352.893 141.888 353.274 141.067C353.661 140.239 354.217 139.589 354.939 139.116C355.669 138.643 356.552 138.406 357.59 138.406C358.254 138.406 358.875 138.508 359.453 138.712C360.037 138.909 360.573 139.208 361.059 139.609L360.251 140.712C359.811 140.404 359.367 140.174 358.921 140.022C358.48 139.865 358.03 139.786 357.57 139.786C356.677 139.786 355.941 140.121 355.363 140.791C354.785 141.461 354.496 142.483 354.496 143.856C354.496 144.776 354.627 145.528 354.89 146.113C355.159 146.691 355.524 147.118 355.984 147.394C356.45 147.663 356.979 147.798 357.57 147.798ZM368.738 134.445V146.438C368.738 146.95 368.896 147.315 369.211 147.532C369.533 147.742 369.947 147.847 370.453 147.847C370.768 147.847 371.067 147.814 371.349 147.748C371.632 147.683 371.914 147.594 372.197 147.482L372.64 148.695C372.358 148.832 372.006 148.954 371.586 149.059C371.172 149.171 370.702 149.227 370.177 149.227C369.257 149.227 368.511 148.974 367.94 148.468C367.368 147.955 367.082 147.249 367.082 146.349V135.755H363.899V134.445H368.738ZM381.768 138.623V147.689H384.695V149H376.91V147.689H380.112V139.934H377.008V138.623H381.768ZM380.447 133.765C380.815 133.765 381.108 133.876 381.324 134.1C381.548 134.323 381.659 134.596 381.659 134.918C381.659 135.253 381.548 135.535 381.324 135.765C381.108 135.989 380.815 136.1 380.447 136.1C380.099 136.1 379.813 135.989 379.59 135.765C379.367 135.535 379.255 135.253 379.255 134.918C379.255 134.596 379.367 134.323 379.59 134.1C379.813 133.876 380.099 133.765 380.447 133.765Z" fill="#D9D6DC"/>
<path d="M217.452 89.2154L214.791 85.1454L215.786 84.5049L219.265 88.6241V89.8263L215.786 93.916L214.791 93.2754L217.452 89.2154ZM213.372 89.2154L210.711 85.1454L211.706 84.5049L215.165 88.6241V89.8263L211.706 93.916L210.711 93.2754L213.372 89.2154Z" fill="#230F37"/>
<rect x="388" y="128" width="10" height="25" fill="#D9D6DC"/>
</svg>
