<svg width="24" height="24" viewBox="0 0 24 24" fill="none" xmlns="http://www.w3.org/2000/svg">
<path opacity="0.7" d="M12.2219 5.97702C13.6435 5.95296 15.0172 6.49051 16.0449 7.47302L18.9129 4.60502C17.1035 2.9039 14.7052 1.97019 12.2219 2.00002C10.3679 1.99971 8.55031 2.51482 6.97214 3.48782C5.39397 4.46083 4.11736 5.85341 3.28491 7.51002L6.62591 10.1C7.01014 8.91377 7.75676 7.87791 8.76063 7.13828C9.76451 6.39865 10.9751 5.9925 12.2219 5.97702Z" fill="#C9C9C9"/>
<path d="M3.28493 7.51001C2.58561 8.90343 2.22144 10.4409 2.22144 12C2.22144 13.5591 2.58561 15.0966 3.28493 16.49L6.62593 13.9C6.20686 12.668 6.20686 11.332 6.62593 10.1L3.28493 7.51001Z" fill="#C9C9C9"/>
<path opacity="0.5" d="M15.6079 17.068C14.8347 17.5643 13.9585 17.8775 13.0459 17.9836C12.1333 18.0898 11.2086 17.9861 10.3422 17.6805C9.47577 17.3749 8.6906 16.8755 8.04655 16.2203C7.40251 15.5651 6.9166 14.7715 6.62589 13.9L3.28589 16.49C4.11819 18.1463 5.39448 19.5387 6.97226 20.5117C8.55005 21.4847 10.3672 22 12.2209 22C14.6551 22.0656 17.0225 21.1989 18.8389 19.577L15.6079 17.068Z" fill="#C9C9C9"/>
<path opacity="0.25" d="M21.6399 10.182H12.2219V14.05H17.6039C17.4925 14.6619 17.2582 15.2448 16.9151 15.7635C16.5721 16.2822 16.1274 16.726 15.6079 17.068L18.8399 19.578C19.8243 18.6302 20.5984 17.4862 21.1121 16.22C21.6258 14.9537 21.8677 13.5937 21.8219 12.228C21.8219 11.54 21.7613 10.858 21.6399 10.182Z" fill="#C9C9C9"/>
</svg>
