<?xml version="1.0" encoding="UTF-8" standalone="no"?>
<svg
   width="41"
   height="40"
   viewBox="0 0 41 40"
   fill="none"
   version="1.1"
   id="svg183"
   sodipodi:docname="favicon.svg"
   inkscape:version="1.4 (e7c3feb1, 2024-10-09)"
   inkscape:export-filename="/Users/crow/Desktop/logo.png"
   inkscape:export-xdpi="2809.7561"
   inkscape:export-ydpi="2809.7561"
   xmlns:inkscape="http://www.inkscape.org/namespaces/inkscape"
   xmlns:sodipodi="http://sodipodi.sourceforge.net/DTD/sodipodi-0.dtd"
   xmlns="http://www.w3.org/2000/svg"
   xmlns:svg="http://www.w3.org/2000/svg">
  <sodipodi:namedview
     id="namedview183"
     pagecolor="#ffffff"
     bordercolor="#000000"
     borderopacity="0.25"
     inkscape:showpageshadow="2"
     inkscape:pageopacity="0.0"
     inkscape:pagecheckerboard="0"
     inkscape:deskcolor="#d1d1d1"
     inkscape:zoom="20.8"
     inkscape:cx="19.447115"
     inkscape:cy="17.019231"
     inkscape:window-width="1512"
     inkscape:window-height="945"
     inkscape:window-x="0"
     inkscape:window-y="37"
     inkscape:window-maximized="0"
     inkscape:current-layer="svg183" />
  <rect
     x="0.333374"
     width="40"
     height="40"
     rx="20"
     fill="#ECEEF2"
     fill-opacity="0.1"
     id="rect1"
     style="fill:#0a0a1e;fill-opacity:1" />
  <rect
     x="0.583374"
     y="0.25"
     width="39.5"
     height="39.5"
     rx="19.75"
     stroke="#D5D9E2"
     stroke-opacity="0.5"
     stroke-width="0.5"
     id="rect2" />
  <g
     clip-path="url(#clip0_11645_11507)"
     id="g183">
    <path
       d="M25.8667 30.0996L25.9783 30.0066V30.0252L25.6063 30.2112L25.6807 30.174L25.8667 30.0996Z"
       fill="#B2B1A8"
       id="path2" />
    <path
       d="M5.85339 19.7209H5.87199V19.7395H5.85339V19.7209Z"
       fill="#EFE7F3"
       id="path3" />
    <path
       d="M9.03394 14.3085L9.51753 13.7319L9.66633 13.8993L9.03394 14.5131V14.3085Z"
       fill="#9E86A4"
       id="path4" />
    <path
       d="M27.9127 10.4026H27.9313V10.4212H27.9127V10.4026Z"
       fill="#D44728"
       id="path5" />
    <path
       d="M15.3392 9.65845H15.3578V9.67705H15.3392V9.65845Z"
       fill="#CAD6E8"
       id="path6" />
    <path
       d="M23.9695 7.83569H23.9881V7.85429H23.9695V7.83569Z"
       fill="#B2B1A8"
       id="path7" />
    <path
       d="M15.953 8.95176L21.4585 5.58521L21.9421 5.9944V6.0502L21.4399 5.6596L18.5942 8.20777L18.5384 8.22637L15.9716 9.93755L15.953 8.95176Z"
       fill="#CAD6E8"
       id="path8" />
    <path
       d="M18.5942 8.20784L21.44 5.65967L21.9422 6.05026L22.9466 7.03605L23.486 7.59404L21.812 7.53824L20.4356 7.40805H19.7288L20.4914 7.59404L24.8066 8.63563L24.8438 8.67283L19.952 8.33803L18.5942 8.20784Z"
       fill="#886AB3"
       id="path9" />
    <path
       d="M21.9421 6.05018V5.99438L23.0395 6.99877L22.9465 7.03597L21.9421 6.05018Z"
       fill="#EFE7F3"
       id="path10" />
    <path
       d="M22.9465 7.03598L23.0395 6.99878L24.0253 7.89157H24.0067L23.9881 7.85437L23.9695 7.83577L23.8207 7.77997L23.4859 7.59397L22.9465 7.03598Z"
       fill="#CAD6E8"
       id="path11" />
    <path
       d="M20.4914 7.59396L19.7288 7.40796H20.4356L20.4914 7.59396Z"
       fill="#30223D"
       id="path12" />
    <path
       d="M20.4913 7.59396L20.4355 7.40796L21.8119 7.53816L23.8951 7.91015L24.0625 7.98455L24.9367 8.52394L24.8065 8.63554L20.4913 7.59396Z"
       fill="#020101"
       id="path13" />
    <path
       d="M21.812 7.53809L23.486 7.59389L23.8208 7.77988L23.8952 7.91008L21.812 7.53809Z"
       fill="#231DF0"
       id="path14" />
    <path
       d="M23.8952 7.91023L23.8208 7.78003L23.9696 7.83583L23.9882 7.85443L24.0068 7.89163L24.0626 7.98463L23.8952 7.91023Z"
       fill="#30223D"
       id="path15" />
    <path
       d="M24.0625 7.9846L24.0067 7.8916H24.0253L25.2343 8.69139L25.1599 8.67279L24.9367 8.52399L24.0625 7.9846Z"
       fill="#B2B1A8"
       id="path16" />
    <path
       d="M15.9717 9.9375L18.5384 8.22632L17.9433 10.5885L17.5713 11.4999L17.4969 11.4441L15.9717 9.9375Z"
       fill="#EFE7F3"
       id="path17" />
    <path
       d="M18.5384 8.22636L18.5942 8.20776L19.952 8.33796L24.23 9.67715L25.2529 9.26795L25.3459 8.80296V8.74716L27.4663 10.1235V10.1421L26.0899 9.23075L27.4477 10.6443L23.1326 10.7559L23.7092 10.3839L23.7278 10.3653L23.6906 10.2351L19.3196 11.2023L18.464 11.3883L17.9432 10.5885L18.5384 8.22636Z"
       fill="#B2B1A8"
       id="path18" />
    <path
       d="M25.253 9.26788L24.23 9.67707L19.952 8.33789L24.8438 8.67269L25.1228 8.72849L25.2716 8.85868L25.253 9.26788Z"
       fill="#B399C7"
       id="path19" />
    <path
       d="M24.8065 8.63552L24.9367 8.52393L25.1599 8.67272L25.1227 8.72852L24.8437 8.67272L24.8065 8.63552Z"
       fill="#30223D"
       id="path20" />
    <path
       d="M25.1227 8.72841L25.1599 8.67261L25.2343 8.69121L25.3459 8.74701V8.80281L25.2715 8.85861L25.1227 8.72841Z"
       fill="#9E86A4"
       id="path21" />
    <path
       d="M25.2715 8.85878L25.3459 8.80298L25.2529 9.26797L25.2715 8.85878Z"
       fill="#74657D"
       id="path22" />
    <path
       d="M15.953 8.95166L15.9716 9.93745L17.4968 11.444V11.4626L15.9716 10.049L15.953 9.00746V8.97026V8.95166Z"
       fill="#74657D"
       id="path23" />
    <path
       d="M15.9531 9.00757L15.9717 10.0492L17.4969 11.4627L14.0001 9.93756L14.0187 9.11917L15.4881 9.77016L15.9531 9.00757Z"
       fill="#020101"
       id="path24" />
    <path
       d="M15.3579 9.67701L15.9531 8.97021V9.00741L15.4881 9.77L14.0187 9.11901L14.0001 9.9374V9.9932L12.6237 11.3324L12.1401 11.4068L12.1959 10.5512L13.9629 9.06321L15.3393 9.65841L15.3579 9.67701Z"
       fill="#B2B1A8"
       id="path25" />
    <path
       d="M27.4477 10.6443L26.09 9.23071L27.4663 10.1421L27.9313 10.4583L28.5823 10.9233L28.9915 11.2209L29.0101 11.2395L27.5035 10.6815L27.4477 10.6443Z"
       fill="#D44728"
       id="path26" />
    <path
       d="M14.0001 9.9933V9.9375L17.4969 11.4627V11.4441L17.5713 11.4999L17.5899 11.7603L14.4465 13.5459L14.4279 13.3785L14.2419 12.0393L14.0001 9.9933Z"
       fill="#9E86A4"
       id="path27" />
    <path
       d="M12.6237 11.3323L14 9.99316L14.2418 12.0391L12.6237 11.3323Z"
       fill="#EFE7F3"
       id="path28" />
    <path
       d="M27.4663 10.1421V10.1235L27.9127 10.4025L27.9313 10.4211V10.4583L27.4663 10.1421Z"
       fill="#EFE7F3"
       id="path29" />
    <path
       d="M19.3196 11.2023L23.6905 10.2351L23.7277 10.3653L23.7091 10.3839L23.1325 10.7559L22.8349 10.9047L22.6117 10.9233L21.9607 11.0163L21.4028 11.0907L21.1982 11.1279H21.1238L20.9192 11.1465L19.7102 11.3139H19.6916L19.4312 11.3511H19.3196V11.2023Z"
       fill="#020101"
       id="path30" />
    <path
       d="M23.7091 10.3652H23.7277V10.3838H23.7091V10.3652Z"
       fill="#30223D"
       id="path31" />
    <path
       d="M17.5713 11.5L17.9433 10.5886L18.4641 11.3884H18.4083L17.9061 11.5372L18.5385 11.4628L19.3196 11.3512H19.4312L19.6916 11.314H19.7102L20.9192 11.1838L21.1238 11.128H21.1982L21.4028 11.1094L21.9608 11.035L22.6118 10.942H22.8164V11.0164L21.812 12.0766L19.4684 14.4388L18.7245 15.7594L18.3339 18.2145L17.0133 18.5307L16.9761 18.3075L17.1249 17.2287L18.1665 17.4147L17.4969 13.0252L17.5899 11.7604L17.5713 11.5Z"
       fill="#D6B2E4"
       id="path32" />
    <path
       d="M23.1326 10.7559L27.4477 10.6443L27.5035 10.6815L25.0856 14.0852L24.8066 14.2154L24.5648 13.955L22.9466 11.0721L22.8164 11.0163V10.9419L22.835 10.9047L23.1326 10.7559Z"
       fill="#B399C7"
       id="path33" />
    <path
       d="M25.0856 14.0852L27.5035 10.6814L29.0101 11.2394H29.0473L29.6983 12.9692L32.6185 16.2613L32.7115 16.3357L32.7487 16.4101L32.7673 16.4473L32.8603 17.0611H32.8231L32.5999 16.3357L29.2519 15.3499L28.9915 15.2569L28.9543 15.2011L30.1075 13.7876L27.0199 13.9364L26.7967 13.9178L26.9827 13.6946L27.5035 13.4714L28.5079 12.8018L27.4477 12.9878L27.2059 13.0994L26.9455 13.2296L25.1042 14.0852H25.0856Z"
       fill="#9E86A4"
       id="path34" />
    <path
       d="M22.6117 10.9234L22.8349 10.9048L22.8163 10.942H22.6117V10.9234Z"
       fill="#74657D"
       id="path35" />
    <path
       d="M21.9608 11.0163L22.6118 10.9233V10.9419L21.9608 11.0349V11.0163Z"
       fill="#846098"
       id="path36" />
    <path
       d="M28.9915 11.2209L28.5823 10.9233L29.0473 11.2395H29.0101L28.9915 11.2209Z"
       fill="#EFE7F3"
       id="path37" />
    <path
       d="M28.9915 11.2209H29.0101V11.2395H28.9915V11.2209Z"
       fill="#9E86A4"
       id="path38" />
    <path
       d="M21.4028 11.0908L21.9608 11.0164V11.035L21.4028 11.1094V11.0908Z"
       fill="#74657D"
       id="path39" />
    <path
       d="M21.812 12.0765L22.8164 11.0164L22.9466 11.0722L23.021 13.3785L23.114 17.8053V17.8983L23.0396 17.9727L20.8262 14.9595L20.7332 14.9781L20.5472 14.0295L21.812 12.0765Z"
       fill="#A836D5"
       id="path40" />
    <path
       d="M22.9465 11.072L24.5647 13.955L23.0209 13.3784L22.9465 11.072Z"
       fill="#EFE7F3"
       id="path41" />
    <path
       d="M21.1981 11.1278L21.4027 11.0906V11.1092L21.1981 11.1278Z"
       fill="#9E86A4"
       id="path42" />
    <path
       d="M20.9192 11.1465L21.1238 11.1279L20.9192 11.1837V11.1465Z"
       fill="#9E86A4"
       id="path43" />
    <path
       d="M19.7102 11.3139L20.9192 11.1465V11.1837L19.7102 11.3139Z"
       fill="#74657D"
       id="path44" />
    <path
       d="M18.464 11.3881L19.3196 11.2021V11.3509L18.5384 11.4625L18.4082 11.3881H18.464Z"
       fill="#30223D"
       id="path45" />
    <path
       d="M12.1401 11.4069L12.6237 11.3325L14.2419 12.0393L14.4279 13.3785L14.2605 13.4529L12.1587 11.7975L10.9311 12.7833L10.1313 13.4529L9.83374 13.5831L9.51754 13.7319L9.03395 14.3085H8.97815L12.1401 11.4069Z"
       fill="#CAD6E8"
       id="path46" />
    <path
       d="M9.51758 13.7318L9.83377 13.583L9.66638 13.8992L9.51758 13.7318Z"
       fill="#B2B1A8"
       id="path47" />
    <path
       d="M18.5384 11.4626L17.906 11.537L18.4082 11.3882L18.5384 11.4626Z"
       fill="#74657D"
       id="path48" />
    <path
       d="M14.4464 13.5458L17.5898 11.7603L17.4968 13.025L17.1248 17.2286L16.976 18.3074L14.558 14.4572L14.6882 21.1531L12.1029 14.234L11.8053 17.1356L11.3961 19.3862L10.5405 15.7964L10.5033 15.2756L10.5405 15.1082L12.0657 13.769L14.2976 13.5272L14.4464 13.5458Z"
       fill="#A867C4"
       id="path49" />
    <path
       d="M10.9312 12.7834L12.1587 11.7976L14.2605 13.453L14.2977 13.5274L12.0657 13.7692L10.9312 12.7834Z"
       fill="#886AB3"
       id="path50" />
    <path
       d="M19.4684 14.4386L21.812 12.0764L20.5472 14.0294L19.4684 14.4386Z"
       fill="#A867C4"
       id="path51" />
    <path
       d="M27.4477 12.9878L28.5079 12.8018L27.5035 13.4713L27.299 13.2668L27.3547 13.1552L27.4477 12.9878Z"
       fill="#74657D"
       id="path52" />
    <path
       d="M10.1313 13.4528L10.9311 12.7832L12.0657 13.769L10.5405 15.1082L10.1313 13.4528Z"
       fill="#9E86A4"
       id="path53" />
    <path
       d="M27.2059 13.0994L27.4477 12.9878L27.3547 13.1552L27.2059 13.0994Z"
       fill="#30223D"
       id="path54" />
    <path
       d="M17.1249 17.2287L17.4969 13.0251L18.1665 17.4147L17.1249 17.2287Z"
       fill="#EFE7F3"
       id="path55" />
    <path
       d="M26.9456 13.2298L27.206 13.0996L27.3548 13.1554L27.299 13.267L27.2246 13.3414L26.9456 13.2298Z"
       fill="#020101"
       id="path56" />
    <path
       d="M25.1042 14.0853L26.9455 13.2297L27.2245 13.3413L26.9827 13.6947L26.7967 13.9179H26.7781L25.0856 14.1783L25.1042 14.0853Z"
       fill="#30223D"
       id="path57" />
    <path
       d="M27.2245 13.3412L27.2989 13.2668L27.5035 13.4714L26.9827 13.6946L27.2245 13.3412Z"
       fill="#846098"
       id="path58" />
    <path
       d="M14.2605 13.4528L14.4279 13.3784L14.4465 13.5458L14.2977 13.5272L14.2605 13.4528Z"
       fill="#D6B2E4"
       id="path59" />
    <path
       d="M23.1139 17.8052L23.0209 13.3784L24.5647 13.955L24.8065 14.2154L25.0855 14.1782L26.7781 13.9178L25.0483 19.6279L24.9367 19.9441L24.7879 20.4091L23.2999 19.1443L24.4159 26.0449H24.2857L20.8262 14.9594L23.0395 17.9726L23.3185 18.047L23.1139 17.8052Z"
       fill="#CF43EC"
       id="path60" />
    <path
       d="M9.83374 13.5831L10.1313 13.4529L10.5405 15.1083L10.5033 15.2757L8.97815 14.7363V14.6991L9.03395 14.5131L9.66634 13.8993L9.83374 13.5831Z"
       fill="#B399C7"
       id="path61" />
    <path
       d="M27.0199 13.9364L30.1075 13.7876L28.9543 15.2012H28.8055L28.7125 15.1826L27.0199 13.9364Z"
       fill="#B399C7"
       id="path62" />
    <path
       d="M25.0483 19.6281L26.7781 13.918H26.7967L27.0199 13.9366L28.7125 15.1828L28.2289 15.9639L25.2529 19.6653L25.0483 19.6281Z"
       fill="#D070E8"
       id="path63" />
    <path
       d="M19.4684 14.4387L20.5471 14.0295L20.7331 14.9781L20.8075 17.3217L20.2123 17.6193L19.6544 21.7298L19.4312 21.4322L18.7244 15.7593L19.4684 14.4387Z"
       fill="#CF43EC"
       id="path64" />
    <path
       d="M24.8065 14.2154L25.0855 14.0852H25.1041L25.0855 14.1782L24.8065 14.2154Z"
       fill="#74657D"
       id="path65" />
    <path
       d="M11.8052 17.1357L12.1028 14.2341L14.6882 21.1532L14.9114 22.1762L15.674 26.0822L13.5908 26.3426L14.4464 22.418L14.3162 21.953L13.7396 22.5854L12.4934 23.8688L11.7308 19.1631L11.8052 17.1357Z"
       fill="#D6B2E4"
       id="path66" />
    <path
       d="M8.97815 14.6992V14.3086H9.03395V14.5132L8.97815 14.6992Z"
       fill="#EFE7F3"
       id="path67" />
    <path
       d="M14.6883 21.1532L14.5581 14.4573L16.9761 18.3074L17.0133 18.5306L16.8273 25.3195H16.8087L14.9115 22.1762L14.6883 21.1532Z"
       fill="#A836D5"
       id="path68" />
    <path
       d="M8.79211 14.9223L8.97811 14.7363V14.7921L8.79211 14.9595V14.9223Z"
       fill="#B2B1A8"
       id="path69" />
    <path
       d="M8.97811 14.7921V14.7363L10.5033 15.2757L10.5405 15.7965L9.7407 18.0471H9.64771L8.19692 17.2287L7.22974 17.5821L8.19692 16.4289L8.58752 15.9267L8.90372 15.0525L8.97811 14.7921Z"
       fill="#886AB3"
       id="path70" />
    <path
       d="M8.79216 14.9594L8.97816 14.792L8.90376 15.0524L8.77356 14.9966L8.79216 14.9594Z"
       fill="#30223D"
       id="path71" />
    <path
       d="M5.81616 17.8981L8.79212 14.9221V14.9593L8.77352 14.9965L7.37854 16.5589L6.61595 17.3959L5.98356 18.1027L5.96496 18.2515L5.90916 20.2975L5.85336 19.7395L5.87196 19.7209L5.81616 19.4605V17.8981Z"
       fill="#CAD6E8"
       id="path72" />
    <path
       d="M20.7332 14.9781L20.8262 14.9595L24.2857 26.0449L21.1051 20.5766L20.8076 17.3216L20.7332 14.9781Z"
       fill="#832CB8"
       id="path73" />
    <path
       d="M8.77352 14.9966L8.90372 15.0524L8.58752 15.9266L7.37854 16.559L8.77352 14.9966Z"
       fill="#020101"
       id="path74" />
    <path
       d="M28.2289 15.9638L28.7125 15.1826L28.8055 15.2012L28.9543 15.3686L30.9072 18.3818L30.0331 18.6422L28.2289 15.9638Z"
       fill="#CD94E6"
       id="path75" />
    <path
       d="M28.9543 15.3686L28.8055 15.2012H28.9543L28.9915 15.257V15.3686H28.9543Z"
       fill="#74657D"
       id="path76" />
    <path
       d="M28.9915 15.3687V15.2571L29.2519 15.3501L29.1589 15.4431L28.9915 15.3687Z"
       fill="#30223D"
       id="path77" />
    <path
       d="M29.1589 15.4431L29.2519 15.3501L32.5999 16.3359L32.8231 17.0613L32.9347 17.9169L29.1589 15.4431Z"
       fill="#020101"
       id="path78" />
    <path
       d="M30.9072 18.3818L28.9542 15.3687H28.9914L29.1588 15.4431L32.9346 17.9168L32.9718 17.9726L32.916 19.7954L32.8974 22.3064L32.823 22.3994L30.9072 18.3818Z"
       fill="#9E86A4"
       id="path79" />
    <path
       d="M18.3339 18.2144L18.7245 15.7593L19.4312 21.4322L18.3339 18.2144Z"
       fill="#A836D5"
       id="path80" />
    <path
       d="M9.74072 18.047L10.5405 15.7964L11.3961 19.3861L11.3589 20.0557L9.74072 18.047Z"
       fill="#832CB8"
       id="path81" />
    <path
       d="M7.37856 16.5591L8.58754 15.9268L8.19695 16.429L6.61597 17.3961L7.37856 16.5591Z"
       fill="#30223D"
       id="path82" />
    <path
       d="M25.253 19.6652L28.2289 15.9639L30.0331 18.6422L24.788 20.4092L24.9368 19.9442L25.253 19.6652Z"
       fill="#D6B2E4"
       id="path83" />
    <path
       d="M6.61591 17.3959L8.19689 16.4287L7.2297 17.5819L5.98352 18.1027L6.61591 17.3959Z"
       fill="#74657D"
       id="path84" />
    <path
       d="M32.8602 17.0613L32.7672 16.4475L34.8876 19.3491H34.869L33.4926 18.3261L33.0462 17.9913L32.8602 17.0613Z"
       fill="#CAD6E8"
       id="path85" />
    <path
       d="M32.9346 17.9169L32.823 17.0613H32.8602L33.0462 17.9913L32.9718 17.9727L32.9346 17.9169Z"
       fill="#231DF0"
       id="path86" />
    <path
       d="M11.3961 19.3863L11.8053 17.1357L11.7309 19.1631L11.5449 23.1063L11.3403 21.5811L11.3589 20.0559L11.3961 19.3863Z"
       fill="#74657D"
       id="path87" />
    <path
       d="M7.22975 17.5819L8.19694 17.2285L8.06674 19.8697L8.19694 20.7439L7.82494 21.2833L5.96497 18.2515L5.98357 18.1027L7.22975 17.5819Z"
       fill="#B399C7"
       id="path88" />
    <path
       d="M8.06677 19.8697L8.19697 17.2285L9.64775 18.0469L8.69916 19.7953L8.06677 19.8697Z"
       fill="#D6B2E4"
       id="path89" />
    <path
       d="M19.6544 21.7297L20.2124 17.6191L20.8076 17.3215L21.1052 20.5765L24.2858 26.0448H24.416L24.5648 26.1192V26.9748L20.5658 23.1247L19.673 22.2505L19.6544 21.7297Z"
       fill="#A836D5"
       id="path90" />
    <path
       d="M23.114 17.8052L23.3186 18.047L23.114 17.8982V17.8052Z"
       fill="#CD94E6"
       id="path91" />
    <path
       d="M23.0396 17.9726L23.1139 17.8982L23.3185 18.047L23.0396 17.9726Z"
       fill="#D070E8"
       id="path92" />
    <path
       d="M32.916 19.7954L32.9718 17.9727L33.0462 17.9913L33.4926 18.3261L32.916 19.7954Z"
       fill="#846098"
       id="path93" />
    <path
       d="M8.69914 19.7955L9.64773 18.0471H9.74073L11.3589 20.0559L11.3403 21.5811L10.5033 24.0362L8.02955 21.8787L7.82495 21.3951V21.2835L8.19695 20.7441L8.69914 19.7955Z"
       fill="#A867C4"
       id="path94" />
    <path
       d="M17.0133 18.5306L18.3339 18.2144L19.4312 21.4321L19.6544 21.7297L19.673 22.2505L16.8273 25.3195L17.0133 18.5306Z"
       fill="#D070E8"
       id="path95" />
    <path
       d="M5.90918 20.2974L5.96498 18.2515L7.82496 21.2832V21.3948L6.44857 20.595L5.96498 20.3346L6.18818 20.688L6.13238 20.6694L5.90918 20.2974Z"
       fill="#886AB3"
       id="path96" />
    <path
       d="M32.9161 19.7953L33.4927 18.3259L34.869 19.3489L34.7202 19.5907L34.1622 20.5207L33.9204 20.8927L33.3439 21.8227L33.0091 22.3249L32.8975 22.3063L32.9161 19.7953Z"
       fill="#74657D"
       id="path97" />
    <path
       d="M30.033 18.6422L30.9072 18.3818L32.823 22.3994L32.8974 22.511L32.6928 22.8458L29.1031 24.185L26.8711 27.4027L26.5177 27.4585L25.0111 21.5066L24.5647 26.1193L24.4159 26.0449L23.2999 19.1444L24.7879 20.4092L30.033 18.6422Z"
       fill="#A867C4"
       id="path98" />
    <path
       d="M11.5449 23.1062L11.7309 19.1631L12.4934 23.8688L11.4705 25.0034L11.5449 23.1062Z"
       fill="#CAD6E8"
       id="path99" />
    <path
       d="M34.7202 19.5907L34.869 19.3489H34.8876L34.7388 19.6279L34.7202 19.5907Z"
       fill="#EFE7F3"
       id="path100" />
    <path
       d="M34.1622 20.5208L34.7202 19.5908L34.7388 19.628L34.1808 20.6138L34.1622 20.5208Z"
       fill="#D6B2E4"
       id="path101" />
    <path
       d="M24.9368 19.9441L25.0484 19.6279L25.253 19.6651L24.9368 19.9441Z"
       fill="#CD94E6"
       id="path102" />
    <path
       d="M8.06677 19.8698L8.69916 19.7954L8.19697 20.744L8.06677 19.8698Z"
       fill="#CD94E6"
       id="path103" />
    <path
       d="M6.18816 20.6881L5.96497 20.3347L6.44856 20.5951L8.60613 23.6827L8.97813 24.7801L8.94093 24.8545L6.20676 20.7253L6.18816 20.6881Z"
       fill="#020101"
       id="path104" />
    <path
       d="M33.9204 20.8927L34.1622 20.5208L34.1808 20.6138L33.9762 20.9857L33.9204 20.8927Z"
       fill="#CD94E6"
       id="path105" />
    <path
       d="M8.60618 23.6828L6.44861 20.5952L7.82499 21.395L8.02959 21.8786L8.60618 23.6828Z"
       fill="#30223D"
       id="path106" />
    <path
       d="M6.18812 20.7255L6.13232 20.6697L6.18812 20.6883V20.7255Z"
       fill="#CAD6E8"
       id="path107" />
    <path
       d="M6.18823 20.7254V20.6882L6.20683 20.7254H6.18823Z"
       fill="#30223D"
       id="path108" />
    <path
       d="M8.9782 24.9475L6.18823 20.7253H6.20683L8.941 24.8545L8.9782 24.9475Z"
       fill="#B2B1A8"
       id="path109" />
    <path
       d="M33.3439 21.8228L33.9205 20.8928L33.9763 20.9858L33.5671 21.7298L33.4369 21.8972L33.3439 21.8228Z"
       fill="#D070E8"
       id="path110" />
    <path
       d="M24.5647 26.1193L25.0111 21.5066L26.5177 27.4585L25.0297 27.1237L24.5647 27.0121V26.9749V26.1193Z"
       fill="#B399C7"
       id="path111" />
    <path
       d="M8.02954 21.8787L10.5033 24.0362L11.3403 21.5811L11.5449 23.1062L11.4705 25.0034V25.0592H11.4147L10.5777 24.2594L9.31292 24.7802H8.97813L8.60613 23.6828L8.02954 21.8787Z"
       fill="#886AB3"
       id="path112" />
    <path
       d="M33.4368 21.8971L33.567 21.7297L33.4182 21.9715L33.4368 21.8971Z"
       fill="#EFE7F3"
       id="path113" />
    <path
       d="M33.009 22.3249L33.3438 21.8228L33.4368 21.8972L33.4182 21.9716V21.9902L32.9532 22.8085L32.8788 22.9759L32.265 24.0361H32.1534L32.6928 22.8457L32.8974 22.5109L33.009 22.3249Z"
       fill="#CF43EC"
       id="path114" />
    <path
       d="M13.7396 22.5853L14.3162 21.9529L14.4464 22.4179L13.7396 22.5853Z"
       fill="#CAD6E8"
       id="path115" />
    <path
       d="M15.6741 26.082L14.9115 22.176L16.8087 25.3194L16.7529 25.5612H16.6599L15.6741 26.1006V26.082Z"
       fill="#846098"
       id="path116" />
    <path
       d="M16.8273 25.3194L19.673 22.2505L20.5658 23.1247L19.766 24.1105L19.673 27.9234L18.2408 28.593L19.487 32.8338L16.7343 31.4574L15.8229 30.732L16.7529 25.5612L16.8087 25.3194H16.8273Z"
       fill="#D6B2E4"
       id="path117" />
    <path
       d="M32.823 22.3994L32.8974 22.3064L33.009 22.325L32.8974 22.511L32.823 22.3994Z"
       fill="#846098"
       id="path118" />
    <path
       d="M13.7396 22.5854L14.4464 22.418L13.5908 26.3425L13.4978 26.3611L11.4705 25.0591V25.0033L12.4934 23.8688L13.7396 22.5854Z"
       fill="#EFE7F3"
       id="path119" />
    <path
       d="M29.103 24.1849L32.6928 22.8457L32.1534 24.0361L32.0046 24.3895L31.8372 24.7243L31.6512 25.1335L31.4652 25.4869L31.2048 25.9705L31.056 25.9891H30.963L29.103 24.1849Z"
       fill="#846098"
       id="path120" />
    <path
       d="M32.265 24.036L32.8788 22.9758L32.2092 24.1662L32.265 24.036Z"
       fill="#EFE7F3"
       id="path121" />
    <path
       d="M19.487 32.8338L18.2408 28.5931L19.673 27.9235L19.766 24.1105L20.5658 23.1248L24.5648 26.9749V27.0121V27.0679L19.7474 32.964L19.487 32.8338Z"
       fill="#CD94E6"
       id="path122" />
    <path
       d="M32.0046 24.3895L32.1534 24.0361H32.265L32.2092 24.1663L32.1162 24.3709L32.0046 24.3895Z"
       fill="#D070E8"
       id="path123" />
    <path
       d="M26.8711 27.4026L29.1031 24.1848L30.963 25.989L30.6468 26.1192L26.8711 27.4026Z"
       fill="#9E86A4"
       id="path124" />
    <path
       d="M9.31299 24.7801L10.5778 24.2593L11.4148 25.0591L9.31299 25.0405V24.7801Z"
       fill="#74657D"
       id="path125" />
    <path
       d="M32.0047 24.3894L32.1163 24.3708L31.9117 24.7428L31.8373 24.7242L32.0047 24.3894Z"
       fill="#CD94E6"
       id="path126" />
    <path
       d="M31.6512 25.1336L31.8372 24.7244L31.9116 24.743L31.6884 25.1336H31.6512Z"
       fill="#D6B2E4"
       id="path127" />
    <path
       d="M8.94092 24.8544L8.97812 24.78H9.31291V25.0404L8.99672 24.9846L8.97812 24.9474L8.94092 24.8544Z"
       fill="#846098"
       id="path128" />
    <path
       d="M10.4661 26.9006L8.9967 24.9849L9.3129 25.0407L11.4147 25.0593H11.4705L13.4978 26.3612L12.3633 27.6074L12.0099 27.5888L10.8009 26.5658L10.2987 26.138L10.4847 26.9006H10.4661Z"
       fill="#B2B1A8"
       id="path129" />
    <path
       d="M31.4652 25.4869L31.6512 25.1335H31.6884L31.4652 25.5055V25.4869Z"
       fill="#EFE7F3"
       id="path130" />
    <path
       d="M15.6741 26.1007L16.6599 25.5613L14.8185 27.4399L15.6741 26.1007Z"
       fill="#D44728"
       id="path131" />
    <path
       d="M31.2048 25.9704L31.4652 25.4868V25.5054L31.1862 26.2494H31.149L31.2048 25.9704Z"
       fill="#B399C7"
       id="path132" />
    <path
       d="M15.674 26.1007L14.8185 27.4399L16.6598 25.5613H16.7528L15.8228 30.732L15.674 30.5832L15.6554 30.5088L14.2605 27.8305L13.5537 27.6817L12.6237 27.7561L12.5493 27.7003L12.3633 27.6073L13.4979 26.3611L13.5909 26.3425L15.674 26.0821V26.1007Z"
       fill="#9E86A4"
       id="path133" />
    <path
       d="M31.056 25.9891L31.2048 25.9705L31.149 26.2495L31.0746 26.7516L31.0188 26.9376L30.777 28.1652L30.6654 28.779L29.8842 28.8348L27.6151 28.872L26.1643 28.8906L26.1271 28.872L30.7398 26.1937L31.056 25.9891Z"
       fill="#74657D"
       id="path134" />
    <path
       d="M30.6469 26.1192L30.963 25.989H31.056L30.7398 26.1936L30.6469 26.1192Z"
       fill="#30223D"
       id="path135" />
    <path
       d="M26.8711 27.4028L30.6469 26.1194L30.7399 26.1938L26.1271 28.8721H26.0527L24.6392 27.0866L25.0298 27.1238L26.5177 27.4586L26.8711 27.4028Z"
       fill="#020101"
       id="path136" />
    <path
       d="M10.4847 26.9005L10.2987 26.1379L10.8009 26.5657L10.5033 26.9191L10.4847 26.9005Z"
       fill="#30223D"
       id="path137" />
    <path
       d="M31.0747 26.7517L31.1491 26.2495H31.1863L31.0933 26.7517H31.0747Z"
       fill="#D6B2E4"
       id="path138" />
    <path
       d="M10.5033 26.9191L10.8009 26.5657L12.0099 27.5887L12.5493 27.7003L12.6237 27.7561L13.0701 28.4257H12.9399L11.2473 28.5558L11.1543 28.5744L10.8939 28.5L10.8195 28.2583L10.5405 27.1051L10.5033 26.9191Z"
       fill="#020101"
       id="path139" />
    <path
       d="M31.0188 26.9377L31.0746 26.7517H31.0932L31.0374 27.0121L31.0188 26.9377Z"
       fill="#CAD6E8"
       id="path140" />
    <path
       d="M10.5033 27.105L10.4661 26.9004H10.4847L10.5033 26.919L10.5405 27.105H10.5033Z"
       fill="#9E86A4"
       id="path141" />
    <path
       d="M30.7771 28.1653L31.0189 26.9377L31.0375 27.0121L30.8143 28.1653H30.7771Z"
       fill="#B2B1A8"
       id="path142" />
    <path
       d="M24.5647 27.068V27.0122L25.0297 27.1238L24.6391 27.0866L24.5647 27.068Z"
       fill="#846098"
       id="path143" />
    <path
       d="M19.7474 32.964L24.5648 27.0679L24.6392 27.0865L26.0528 28.872L26.0342 28.9278L25.9412 28.9836L25.4018 29.3184L19.7474 32.964Z"
       fill="#886AB3"
       id="path144" />
    <path
       d="M10.7823 28.2582L10.5033 27.105H10.5405L10.8195 28.2582H10.8009H10.7823Z"
       fill="#B2B1A8"
       id="path145" />
    <path
       d="M12.5493 27.7002L12.0099 27.5886L12.3633 27.6072L12.5493 27.7002Z"
       fill="#74657D"
       id="path146" />
    <path
       d="M12.6237 27.756L13.5536 27.6816L13.2932 28.4256H13.0701L12.6237 27.756Z"
       fill="#846098"
       id="path147" />
    <path
       d="M13.2933 28.4256L13.5537 27.6816L14.2605 27.8304L13.5537 28.6488L13.2933 28.4256Z"
       fill="#886AB3"
       id="path148" />
    <path
       d="M13.5537 28.6487L14.2605 27.8303L15.6555 30.5087L14.8743 29.8205L14.7255 29.7089L14.0931 29.1323L13.9629 29.0207L13.5537 28.6487Z"
       fill="#832CB8"
       id="path149" />
    <path
       d="M30.6655 28.7791L30.7771 28.1653H30.8143L30.6841 28.7791H30.6655Z"
       fill="#CAD6E8"
       id="path150" />
    <path
       d="M10.8381 28.3885L10.7823 28.2583H10.8009L10.8381 28.3885Z"
       fill="#EFE7F3"
       id="path151" />
    <path
       d="M10.8381 28.3885L10.8009 28.2583H10.8195L10.8939 28.5001H10.8381V28.3885Z"
       fill="#9E86A4"
       id="path152" />
    <path
       d="M11.2473 28.556L12.9399 28.4258H13.0701H13.2933L13.5537 28.649L13.9629 29.021V29.0582L11.1543 28.6304V28.5746L11.2473 28.556Z"
       fill="#CAD6E8"
       id="path153" />
    <path
       d="M11.1543 28.6302L10.8381 28.5H10.8939L11.1543 28.5744V28.6302Z"
       fill="#B2B1A8"
       id="path154" />
    <path
       d="M29.8843 28.8349L30.6655 28.7791H30.6841L29.8843 28.8535V28.8349Z"
       fill="#D6B2E4"
       id="path155" />
    <path
       d="M27.6151 28.8722L29.8843 28.835V28.8536L27.6151 29.0396V28.8722Z"
       fill="#D070E8"
       id="path156" />
    <path
       d="M26.0341 28.9279L26.0527 28.8721H26.1271L26.1643 28.8907L26.4433 29.4301L26.4247 29.4487V29.5045H26.4061L25.9783 30.0067L25.8667 30.0997L26.0341 28.9279Z"
       fill="#231DF0"
       id="path157" />
    <path
       d="M26.4247 29.4302H26.4433V29.4488H26.4247V29.4302Z"
       fill="#CF43EC"
       id="path158" />
    <path
       d="M26.1643 28.8907L27.6151 28.8721V29.0395L26.4991 29.4301H26.4433L26.1643 28.8907Z"
       fill="#CF43EC"
       id="path159" />
    <path
       d="M25.9411 28.9835L26.0341 28.9277L25.8667 30.0995L25.6807 30.1739L25.4947 30.2297L24.8623 30.3599L25.7365 29.2439L25.9411 28.9835Z"
       fill="#020101"
       id="path160" />
    <path
       d="M25.4017 29.3184L25.9411 28.9836L25.7365 29.244L25.5133 29.3556L25.4017 29.3184Z"
       fill="#30223D"
       id="path161" />
    <path
       d="M13.9629 29.0582V29.021L14.0931 29.1326H14.0373L13.9629 29.0582Z"
       fill="#B399C7"
       id="path162" />
    <path
       d="M14.7254 29.7464L14.0372 29.1326H14.093L14.7254 29.7092V29.7464Z"
       fill="#D6B2E4"
       id="path163" />
    <path
       d="M25.5133 29.3557L25.7365 29.2441L24.8623 30.3601L24.4345 30.7135L23.6162 31.3645L23.393 31.5505L23.2814 31.6249L22.3514 32.3875H22.3142L21.5516 32.9827L20.975 33.4291H20.9564L20.9192 33.4105L25.5133 29.3557Z"
       fill="#231DF0"
       id="path164" />
    <path
       d="M19.7474 32.9639L25.4018 29.3184L25.5134 29.3556L20.9192 33.4103L20.7332 33.5963L20.7146 33.6149L20.4542 33.8195L20.045 34.0241L19.7474 32.9639Z"
       fill="#020101"
       id="path165" />
    <path
       d="M20.7146 33.5964H20.7332V33.615H20.7146V33.5964Z"
       fill="#886AB3"
       id="path166" />
    <path
       d="M26.4247 29.4488L26.4433 29.4302H26.4991L26.4247 29.5046V29.4488Z"
       fill="#EFE7F3"
       id="path167" />
    <path
       d="M25.9783 30.0066L26.4061 29.5044L25.9783 30.0252V30.0066Z"
       fill="#EFE7F3"
       id="path168" />
    <path
       d="M14.7255 29.7462V29.709L14.8743 29.8206L14.8371 29.8392L14.7255 29.7462Z"
       fill="#B399C7"
       id="path169" />
    <path
       d="M14.837 29.8394L14.8742 29.8208L15.6554 30.509L15.674 30.5834L14.837 29.8394Z"
       fill="#D6B2E4"
       id="path170" />
    <path
       d="M25.4948 30.2299L25.6807 30.1741L25.6063 30.2113L25.4948 30.2299Z"
       fill="#74657D"
       id="path171" />
    <path
       d="M25.4948 30.2298L25.6064 30.2112L24.4532 30.7134H24.4346L24.8624 30.36L25.4948 30.2298Z"
       fill="#B2B1A8"
       id="path172" />
    <path
       d="M23.6162 31.3644L24.4346 30.7134H24.4532L23.6162 31.3644Z"
       fill="#EFE7F3"
       id="path173" />
    <path
       d="M16.7343 31.4575L19.487 32.8339L19.7474 32.9641L20.045 34.0243L19.394 33.5779L18.371 32.7595L18.0362 32.4991L17.72 32.2573L17.069 31.7365L16.7343 31.4575Z"
       fill="#CF43EC"
       id="path174" />
    <path
       d="M18.0363 32.5363L17.7201 32.2573L18.0363 32.4991V32.5363Z"
       fill="#D6B2E4"
       id="path175" />
    <path
       d="M21.5516 32.9826L22.3142 32.3875L21.5516 33.0198V32.9826Z"
       fill="#EFE7F3"
       id="path176" />
    <path
       d="M18.0363 32.5362V32.499L18.3711 32.7594L18.0363 32.5362Z"
       fill="#CD94E6"
       id="path177" />
    <path
       d="M19.394 33.5965L18.371 32.7595L19.394 33.5779V33.5965Z"
       fill="#D6B2E4"
       id="path178" />
    <path
       d="M20.975 33.4291L21.5516 32.9827V33.0199L20.9936 33.4477L20.975 33.4291Z"
       fill="#D6B2E4"
       id="path179" />
    <path
       d="M20.7332 33.5964L20.9192 33.4104L20.9564 33.429L20.789 33.5964H20.7332Z"
       fill="#886AB3"
       id="path180" />
    <path
       d="M20.7889 33.5964L20.9563 33.429H20.9749L20.9935 33.4476L20.7889 33.5964Z"
       fill="#CAD6E8"
       id="path181" />
    <path
       d="M19.394 33.5965V33.5779L20.045 34.0243L20.4542 33.8197V33.8755L19.394 33.5965Z"
       fill="#CD94E6"
       id="path182" />
    <path
       d="M20.7146 33.615L20.7332 33.5964H20.789L20.4542 33.8754V33.8196L20.7146 33.615Z"
       fill="#CAD6E8"
       id="path183" />
  </g>
  <defs
     id="defs183">
    <linearGradient
       id="swatch183"
       inkscape:swatch="solid">
      <stop
         style="stop-color:#e9e7f7;stop-opacity:0.1;"
         offset="0"
         id="stop183" />
    </linearGradient>
    <clipPath
       id="clip0_11645_11507">
      <rect
         width="29.6666"
         height="28.4576"
         fill="white"
         transform="translate(5.5 5.77124)"
         id="rect183" />
    </clipPath>
  </defs>
</svg>
